g Headphones_1
v 0.3000078 0.7214367 0.08283228
v 2.741814E-06 0.8018275 -0.08283776
v 0.3000078 0.7214367 -0.08283776
v 2.741814E-06 0.8018275 0.08283228
v 0.519622 0.5018225 0.08283228
v 0.3000078 0.7214367 -0.08283776
v 0.519622 0.5018225 -0.08283776
v 0.3000078 0.7214367 0.08283228
v 0.5999883 0.2000087 0.08283228
v 0.519622 0.5018225 -0.08283776
v 0.5999883 0.2000087 -0.08283776
v 0.519622 0.5018225 0.08283228
v 2.741814E-06 0.7718612 0.08283228
v -0.2679095 0.7000742 -0.08283776
v -0.2679095 0.7000742 0.08283228
v 2.741814E-06 0.7718612 -0.08283776
v -0.2679095 0.7000742 0.08283228
v -0.4640102 0.503949 -0.08283776
v -0.4640102 0.503949 0.08283228
v -0.2679095 0.7000742 -0.08283776
v -0.4640102 0.503949 0.08283228
v -0.5357974 0.2000087 -0.08283776
v -0.5357974 0.2000087 0.08283228
v -0.4640102 0.503949 -0.08283776
v 0.5358028 0.2000087 0.08283228
v 0.4640157 0.503949 -0.08283776
v 0.4640157 0.503949 0.08283228
v 0.5358028 0.2000087 -0.08283776
v 0.4640157 0.503949 0.08283228
v 0.2678906 0.7000742 -0.08283776
v 0.2678906 0.7000742 0.08283228
v 0.4640157 0.503949 -0.08283776
v 0.2678906 0.7000742 0.08283228
v 2.741814E-06 0.7718612 -0.08283776
v 2.741814E-06 0.7718612 0.08283228
v 0.2678906 0.7000742 -0.08283776
v -0.5196165 0.5018225 0.08283228
v -0.6000073 0.2000087 -0.08283776
v -0.5196165 0.5018225 -0.08283776
v -0.6000073 0.2000087 0.08283228
v -0.4640102 0.503949 0.08283228
v -0.6000073 0.2000087 0.08283228
v -0.5196165 0.5018225 0.08283228
v -0.5357974 0.2000087 0.08283228
v -0.2679095 0.7000742 0.08283228
v -0.3000023 0.7214367 0.08283228
v 2.741814E-06 0.7718612 0.08283228
v 2.741814E-06 0.8018275 0.08283228
v 0.2678906 0.7000742 0.08283228
v 0.3000078 0.7214367 0.08283228
v 0.4640157 0.503949 0.08283228
v 0.519622 0.5018225 0.08283228
v 0.5358028 0.2000087 0.08283228
v 0.5999883 0.2000087 0.08283228
v -0.3000023 0.7214367 0.08283228
v -0.5196165 0.5018225 -0.08283776
v -0.3000023 0.7214367 -0.08283776
v -0.5196165 0.5018225 0.08283228
v 2.741814E-06 0.8018275 0.08283228
v -0.3000023 0.7214367 -0.08283776
v 2.741814E-06 0.8018275 -0.08283776
v -0.3000023 0.7214367 0.08283228
v -0.5357974 0.2000087 -0.08283776
v -0.5196165 0.5018225 -0.08283776
v -0.6000073 0.2000087 -0.08283776
v -0.4640102 0.503949 -0.08283776
v -0.3000023 0.7214367 -0.08283776
v -0.2679095 0.7000742 -0.08283776
v 2.741814E-06 0.8018275 -0.08283776
v 2.741814E-06 0.7718612 -0.08283776
v 0.3000078 0.7214367 -0.08283776
v 0.2678906 0.7000742 -0.08283776
v 0.519622 0.5018225 -0.08283776
v 0.4640157 0.503949 -0.08283776
v 0.5999883 0.2000087 -0.08283776
v 0.5358028 0.2000087 -0.08283776
vn 0.2544934 0.9670745 0
vn 0.2544934 0.9670745 0
vn 0.2544934 0.9670745 0
vn 0.2544934 0.9670745 0
vn 0.7071068 0.7071068 0
vn 0.7071068 0.7071068 0
vn 0.7071068 0.7071068 0
vn 0.7071068 0.7071068 0
vn 0.9670746 0.2544933 0
vn 0.9670746 0.2544933 0
vn 0.9670746 0.2544933 0
vn 0.9670746 0.2544933 0
vn 0.2544933 -0.9670746 0
vn 0.2544933 -0.9670746 0
vn 0.2544933 -0.9670746 0
vn 0.2544933 -0.9670746 0
vn 0.7071068 -0.7071068 0
vn 0.7071068 -0.7071068 0
vn 0.7071068 -0.7071068 0
vn 0.7071068 -0.7071068 0
vn 0.9730573 -0.2305638 0
vn 0.9730573 -0.2305638 0
vn 0.9730573 -0.2305638 0
vn 0.9730573 -0.2305638 0
vn -0.9730573 -0.2305638 0
vn -0.9730573 -0.2305638 0
vn -0.9730573 -0.2305638 0
vn -0.9730573 -0.2305638 0
vn -0.7071068 -0.7071068 0
vn -0.7071068 -0.7071068 0
vn -0.7071068 -0.7071068 0
vn -0.7071068 -0.7071068 0
vn -0.2544933 -0.9670746 0
vn -0.2544933 -0.9670746 0
vn -0.2544933 -0.9670746 0
vn -0.2544933 -0.9670746 0
vn -0.9670746 0.2544933 0
vn -0.9670746 0.2544933 0
vn -0.9670746 0.2544933 0
vn -0.9670746 0.2544933 0
vn -0.003921509 0.003921509 0.9999846
vn -0.003921509 0.003921509 0.9999846
vn -0.003921509 0.003921509 0.9999846
vn -0.003921509 0.003921509 0.9999846
vn -0.003921509 0.003921509 0.9999846
vn -0.003921509 0.003921509 0.9999846
vn -0.003921509 0.003921509 0.9999846
vn -0.003921509 0.003921509 0.9999846
vn -0.003921509 0.003921509 0.9999846
vn -0.003921509 0.003921509 0.9999846
vn -0.003921509 0.003921509 0.9999846
vn -0.003921509 0.003921509 0.9999846
vn -0.003921509 0.003921509 0.9999846
vn -0.003921509 0.003921509 0.9999846
vn -0.7071068 0.7071068 0
vn -0.7071068 0.7071068 0
vn -0.7071068 0.7071068 0
vn -0.7071068 0.7071068 0
vn -0.2544933 0.9670746 0
vn -0.2544933 0.9670746 0
vn -0.2544933 0.9670746 0
vn -0.2544933 0.9670746 0
vn -0.003921509 0.003921509 -0.9999846
vn -0.003921509 0.003921509 -0.9999846
vn -0.003921509 0.003921509 -0.9999846
vn -0.003921509 0.003921509 -0.9999846
vn -0.003921509 0.003921509 -0.9999846
vn -0.003921509 0.003921509 -0.9999846
vn -0.003921509 0.003921509 -0.9999846
vn -0.003921509 0.003921509 -0.9999846
vn -0.003921509 0.003921509 -0.9999846
vn -0.003921509 0.003921509 -0.9999846
vn -0.003921509 0.003921509 -0.9999846
vn -0.003921509 0.003921509 -0.9999846
vn -0.003921509 0.003921509 -0.9999846
vn -0.003921509 0.003921509 -0.9999846
g Headphones_1_0
f 3/3/3 2/2/2 1/1/1
f 1/1/1 2/2/2 4/4/4
f 7/7/7 6/6/6 5/5/5
f 5/5/5 6/6/6 8/8/8
f 11/11/11 10/10/10 9/9/9
f 9/9/9 10/10/10 12/12/12
f 15/15/15 14/14/14 13/13/13
f 13/13/13 14/14/14 16/16/16
f 19/19/19 18/18/18 17/17/17
f 17/17/17 18/18/18 20/20/20
f 23/23/23 22/22/22 21/21/21
f 21/21/21 22/22/22 24/24/24
f 27/27/27 26/26/26 25/25/25
f 25/25/25 26/26/26 28/28/28
f 31/31/31 30/30/30 29/29/29
f 29/29/29 30/30/30 32/32/32
f 35/35/35 34/34/34 33/33/33
f 33/33/33 34/34/34 36/36/36
f 39/39/39 38/38/38 37/37/37
f 37/37/37 38/38/38 40/40/40
f 43/43/43 42/42/42 41/41/41
f 41/41/41 42/42/42 44/44/44
f 45/45/45 43/43/43 41/41/41
f 46/46/46 43/43/43 45/45/45
f 47/47/47 46/46/46 45/45/45
f 48/48/48 46/46/46 47/47/47
f 49/49/49 48/48/48 47/47/47
f 50/50/50 48/48/48 49/49/49
f 51/51/51 50/50/50 49/49/49
f 52/52/52 50/50/50 51/51/51
f 53/53/53 52/52/52 51/51/51
f 54/54/54 52/52/52 53/53/53
f 57/57/57 56/56/56 55/55/55
f 55/55/55 56/56/56 58/58/58
f 61/61/61 60/60/60 59/59/59
f 59/59/59 60/60/60 62/62/62
f 65/65/65 64/64/64 63/63/63
f 63/63/63 64/64/64 66/66/66
f 64/64/64 67/67/67 66/66/66
f 66/66/66 67/67/67 68/68/68
f 67/67/67 69/69/69 68/68/68
f 68/68/68 69/69/69 70/70/70
f 69/69/69 71/71/71 70/70/70
f 70/70/70 71/71/71 72/72/72
f 71/71/71 73/73/73 72/72/72
f 72/72/72 73/73/73 74/74/74
f 73/73/73 75/75/75 74/74/74
f 74/74/74 75/75/75 76/76/76
