g Pumpkin_02
v 0.006066497 5.514943 -0.02526105
v 0.04194853 5.523033 0.04806307
v -1.040475 6.274642 -1.416385
v 0.05067309 5.395989 -0.03095924
v -0.05791256 5.395989 -0.2344719
v -1.146091 6.245932 -1.635883
v -2.305468 9.343741 -1.483223
v -2.199853 9.372451 -1.263724
v -0.05791256 5.395989 -0.2344719
v -1.146091 6.245932 -1.635883
v -1.975495 5.395989 -0.5311618
v -2.672722 5.620844 -0.5454876
v -1.399321 5.395989 0.04129589
v -1.722092 5.395989 -0.1434817
v -1.146091 6.245932 -1.635883
v -2.778337 5.592134 -0.7649862
v -2.113445 5.328665 -0.4368207
v 1.208898 5.917767 -0.6528262
v 0.04194853 5.523033 0.04806307
v 0.006066497 5.514943 -0.02526105
v -2.778337 5.592134 -0.7649862
v -1.722092 5.395989 -0.1434817
v -2.074723 5.395989 -0.3592936
v -2.199853 9.372451 -1.263724
v -1.040475 6.274642 -1.416385
v -2.672722 5.620844 -0.5454876
v 1.24569 5.695582 -0.5556738
v 0.2238776 5.395989 -0.1270368
v 0.556603 5.395989 0.8372375
v -2.199853 9.372451 -1.263724
v -2.672722 5.620844 -0.5454876
v -2.778337 5.592134 -0.7649862
v -2.305468 9.343741 -1.483223
v 1.24569 5.695582 -0.5556738
v 4.262473 5.5998 -1.91719
v 4.225681 5.821985 -2.014342
v 1.208898 5.917767 -0.6528262
v 4.225681 5.821985 -2.014342
v 1.962259 6.746913 0.9581071
v 1.208898 5.917767 -0.6528262
v 1.999051 6.524727 1.05526
v 0.556603 5.395989 0.8372375
v 0.3410908 5.395989 0.8558294
v 1.208898 5.917767 -0.6528262
v 0.1553656 5.395989 0.8614293
v 0.04194853 5.523033 0.04806307
v -2.305468 9.343741 -1.483223
v -2.778337 5.592134 -0.7649862
v -1.146091 6.245932 -1.635883
v 4.262473 5.5998 -1.91719
v 1.24569 5.695582 -0.5556738
v 1.999051 6.524727 1.05526
v 0.006066497 5.514943 -0.02526105
v 0.05067309 5.395989 -0.03095924
v 0.2238776 5.395989 -0.1270368
v -1.146091 6.245932 -1.635883
v -2.113445 5.328665 -0.4368207
v -1.975495 5.395989 -0.5311618
v 1.208898 5.917767 -0.6528262
v 0.006066497 5.514943 -0.02526105
v 1.24569 5.695582 -0.5556738
v 1.999051 6.524727 1.05526
v 0.3410908 5.395989 0.8558294
v 0.1553656 5.395989 0.8614293
v -2.778337 5.592134 -0.7649862
v -2.074723 5.395989 -0.3592936
v -2.113445 5.328665 -0.4368207
v 1.999051 6.524727 1.05526
v 1.24569 5.695582 -0.5556738
v 0.556603 5.395989 0.8372375
v -1.722092 5.395989 -0.1434817
v -2.778337 5.592134 -0.7649862
v -2.672722 5.620844 -0.5454876
v -1.399321 5.395989 0.04129589
v -2.672722 5.620844 -0.5454876
v -1.040475 6.274642 -1.416385
v -0.05464528 5.395989 0.2518281
v 0.04194853 5.523033 0.04806307
v 1.962259 6.746913 0.9581071
v 1.999051 6.524727 1.05526
v 0.1553656 5.395989 0.8614293
v 4.262473 5.5998 -1.91719
v 1.999051 6.524727 1.05526
v 1.962259 6.746913 0.9581071
v 4.225681 5.821985 -2.014342
v 1.962259 6.746913 0.9581071
v 0.1553656 5.395989 0.8614293
v 1.208898 5.917767 -0.6528262
v 0.1553656 5.395989 0.8614293
v -0.05464528 5.395989 0.2518281
v 0.04194853 5.523033 0.04806307
v 1.24569 5.695582 -0.5556738
v 0.006066497 5.514943 -0.02526105
v 0.2238776 5.395989 -0.1270368
v -2.074723 5.395989 -0.3592936
v -2.480068 5.395989 0.3427843
v -2.113445 5.328665 -0.4368207
v -1.734441 4.414901 -3.055808
v -3.696619 4.414901 0.3427843
v -1.975495 5.395989 -0.5311618
v -1.126165 5.395989 -2.002244
v -1.734441 4.414901 -3.055808
v -1.734441 0.9810891 -3.055808
v 2.189915 0.9810891 -3.055808
v 2.189915 4.414901 -3.055808
v -1.734441 4.414901 3.741376
v -3.696619 4.414901 0.3427843
v -2.480068 5.395989 0.3427843
v -1.126165 5.395989 2.687813
v -1.126165 5.395989 -2.002244
v -1.734441 4.414901 -3.055808
v 2.189915 4.414901 -3.055808
v 1.58164 5.395989 -2.002244
v 2.189915 4.414901 3.741376
v 1.58164 5.395989 2.687813
v 2.935543 5.395989 0.3427843
v 4.152093 4.414901 0.3427843
v -1.734441 0.9810891 -3.055808
v -1.263518 0 -2.240146
v 1.718993 0 -2.240146
v 2.189915 0.9810891 -3.055808
v 2.189915 0.9810891 -3.055808
v 4.152093 0.9810891 0.3427843
v 4.152093 4.414901 0.3427843
v 2.189915 4.414901 -3.055808
v 2.189915 0.9810891 3.741376
v 1.718993 0 2.925714
v -1.263518 0 2.925714
v -1.734441 0.9810891 3.741376
v -1.263518 0 -2.240146
v -2.754773 0 0.3427843
v -1.263518 0 2.925714
v 1.718993 0 -2.240146
v 1.718993 0 2.925714
v 3.210248 0 0.3427843
v 2.189915 4.414901 3.741376
v 2.189915 0.9810891 3.741376
v -1.734441 0.9810891 3.741376
v -1.734441 4.414901 3.741376
v 2.935543 5.395989 0.3427843
v 1.58164 5.395989 -2.002244
v 2.189915 4.414901 -3.055808
v 4.152093 4.414901 0.3427843
v 4.152093 0.9810891 0.3427843
v 2.189915 0.9810891 3.741376
v 2.189915 4.414901 3.741376
v 4.152093 4.414901 0.3427843
v 1.718993 0 2.925714
v 2.189915 0.9810891 3.741376
v 4.152093 0.9810891 0.3427843
v 3.210248 0 0.3427843
v -3.696619 0.9810891 0.3427843
v -1.734441 0.9810891 3.741376
v -1.263518 0 2.925714
v -2.754773 0 0.3427843
v -3.696619 4.414901 0.3427843
v -1.734441 4.414901 3.741376
v -1.734441 0.9810891 3.741376
v -3.696619 0.9810891 0.3427843
v -1.734441 0.9810891 -3.055808
v -3.696619 0.9810891 0.3427843
v -2.754773 0 0.3427843
v -1.263518 0 -2.240146
v 1.718993 0 -2.240146
v 3.210248 0 0.3427843
v 4.152093 0.9810891 0.3427843
v 2.189915 0.9810891 -3.055808
v -1.734441 4.414901 -3.055808
v -3.696619 4.414901 0.3427843
v -3.696619 0.9810891 0.3427843
v -1.734441 0.9810891 -3.055808
v 2.189915 4.414901 3.741376
v -1.734441 4.414901 3.741376
v -1.126165 5.395989 2.687813
v 1.58164 5.395989 2.687813
v -1.126165 5.395989 2.687813
v -2.480068 5.395989 0.3427843
v -2.074723 5.395989 -0.3592936
v -1.722092 5.395989 -0.1434817
v -1.399321 5.395989 0.04129589
v -0.05464528 5.395989 0.2518281
v 0.1553656 5.395989 0.8614293
v 1.58164 5.395989 2.687813
v 0.3410908 5.395989 0.8558294
v 0.556603 5.395989 0.8372375
v 1.58164 5.395989 -2.002244
v 0.2238776 5.395989 -0.1270368
v 0.05067309 5.395989 -0.03095924
v -0.05791256 5.395989 -0.2344719
v -1.126165 5.395989 -2.002244
v -1.975495 5.395989 -0.5311618
v 2.935543 5.395989 0.3427843
vt 0.03011863 8.050797
vt -0.09633515 8.064097
vt 2.696123 9.2997
vt 0.005363759 7.855244
vt 0.3629017 7.855244
vt 3.073354 9.252502
vt 3.71053 14.34513
vt 3.333298 14.39233
vt 0.1442785 5.068147
vt 2.143256 7.370965
vt 3.151903 5.068147
vt -4.015344 8.274817
vt -1.85053 7.877248
vt -2.427006 7.877248
vt 1.732498 7.961884
vt 4.285365 6.308743
vt 3.263695 5.642559
vt -0.7492691 4.661137
vt 0.08260425 2.627858
vt -0.037524 2.586185
vt -4.292096 8.750605
vt -2.392808 8.4448
vt -3.033624 8.4448
vt -2.223301 14.80713
vt -0.5013701 9.972277
vt -3.366467 8.951873
vt 0.1843922 4.341555
vt 0.07294976 2.56586
vt -1.508153 2.56586
vt -3.191862 13.82476
vt -2.480536 7.901511
vt -2.857997 7.856181
vt -3.569323 13.77943
vt -2.113879 7.985315
vt -7.243596 7.821509
vt -7.25573 8.201488
vt -2.126013 8.365294
vt -7.231061 3.278476
vt -2.318426 6.663273
vt -2.110713 3.628992
vt 2.946485 10.22932
vt 0.7480052 8.401589
vt 0.4127198 8.401589
vt 0.4204898 4.585614
vt 1.180467 1.712981
vt 0.09885398 2.412417
vt 2.223301 14.80713
vt 3.366467 8.951873
vt 0.5013701 9.972277
vt 7.231061 3.278476
vt 2.110713 3.628992
vt 2.318426 6.663273
vt -0.02721572 8.469722
vt -0.09196135 8.283545
vt -0.3989664 8.283545
vt 1.529711 8.260729
vt 3.197507 6.037603
vt 2.970862 6.200772
vt -2.104516 8.447359
vt -0.02197779 7.758128
vt -2.107796 8.067201
vt 3.047834 10.24808
vt 0.4884734 8.456368
vt 0.200468 8.456368
vt -4.131733 8.394194
vt -2.88435 8.045905
vt -3.005349 7.926359
vt -0.9604579 8.858603
vt 1.241496 6.760651
vt -1.091563 6.002604
vt -1.885067 5.324232
vt -3.675032 6.029101
vt -3.309127 6.132276
vt -2.132946 3.892739
vt -4.223652 4.5808
vt -1.93292 6.581438
vt -0.02330288 3.892739
vt 0.07576133 4.281496
vt 3.357092 9.689649
vt 3.459393 9.323499
vt 0.6562259 7.463394
vt 6.021327 6.729769
vt 0.2549719 8.259469
vt 0.3524524 8.626931
vt 6.118808 7.097232
vt 0.7680082 8.943214
vt 1.247665 5.47611
vt -1.404942 6.815236
vt 1.340843 5.085756
vt 0.3414597 5.085756
vt 0.09161363 5.39964
vt -2.114143 8.815264
vt -0.02427298 8.534892
vt -0.3967947 8.350263
vt 1.125619 3.457906
vt 2.38219 3.457906
vt 1.05156 3.304782
vt -2.757745 1.226477
vt 3.325019 1.226477
vt 0.818011 3.457906
vt -1.814917 3.457906
vt 2.688388 6.84311
vt 2.688388 1.520691
vt -3.394376 1.520691
vt -3.394376 6.84311
vt 3.678013 0.8376436
vt -2.404751 0.8376436
vt -1.461923 3.069073
vt 2.735184 3.069073
vt 1.74556 3.428602
vt 2.688388 1.197172
vt -3.394376 1.197172
vt -2.451547 3.428602
vt -3.325019 0.3902004
vt -2.38219 2.62163
vt 1.814917 2.62163
vt 2.757745 0.3902004
vt 2.688388 4.197397
vt 1.958457 2.219797
vt -2.664444 2.219797
vt -3.394376 4.197397
vt 2.404751 1.520691
vt -3.678013 1.520691
vt -3.678013 6.84311
vt 2.404751 6.84311
vt 3.394376 4.876738
vt 2.664444 2.899138
vt -1.958457 2.899138
vt -2.688388 4.876738
vt 1.958457 3.472233
vt 4.269907 -0.5313168
vt 1.958457 -4.534866
vt -2.664444 3.472233
vt -2.664444 -4.534866
vt -4.975894 -0.5313168
vt 3.394376 6.84311
vt 3.394376 1.520691
vt -2.688388 1.520691
vt -2.688388 6.84311
vt -2.735184 3.010463
vt 1.461923 3.010463
vt 2.404751 0.7790339
vt -3.678013 0.7790339
vt 2.757745 1.520691
vt -3.325019 1.520691
vt -3.325019 6.84311
vt 2.757745 6.84311
vt -2.595087 2.924737
vt -3.325019 4.902338
vt 2.757745 4.902338
vt 2.027813 2.924737
vt -2.404751 4.511468
vt 3.678013 4.511468
vt 2.948081 2.533868
vt -1.67482 2.533868
vt -2.404751 6.84311
vt 3.678013 6.84311
vt 3.678013 1.520691
vt -2.404751 1.520691
vt -2.757745 4.171797
vt 3.325019 4.171797
vt 2.595087 2.194197
vt -2.027813 2.194197
vt 1.67482 2.585067
vt -2.948081 2.585067
vt -3.678013 4.562667
vt 2.404751 4.562667
vt -2.757745 6.84311
vt 3.325019 6.84311
vt 3.325019 1.520691
vt -2.757745 1.520691
vt 3.394376 0.4195053
vt -2.688388 0.4195053
vt -1.74556 2.650935
vt 2.451547 2.650935
vt -1.74556 -4.166118
vt -3.844113 -0.5313168
vt -3.215828 0.5569062
vt -2.669248 0.2223971
vt -2.168952 -0.06400876
vt -0.08470035 -0.3903343
vt 0.2408172 -1.335218
vt 2.451547 -4.166118
vt 0.5286918 -1.326538
vt 0.8627363 -1.297721
vt 2.451547 3.103485
vt 0.3470109 0.1969075
vt 0.07854345 0.04798691
vt -0.08976465 0.3634322
vt -1.74556 3.103485
vt -3.062024 0.8233024
vt 4.550101 -0.5313168
vn 0.8318545 0.3332001 -0.443842
vn 0.8318545 0.3332001 -0.443842
vn 0.8318545 0.3332001 -0.443842
vn 0.8318545 0.3332001 -0.443842
vn 0.8318545 0.3332001 -0.443842
vn 0.8318545 0.3332001 -0.443842
vn 0.8318545 0.3332001 -0.443842
vn 0.8318545 0.3332001 -0.443842
vn 0.08747301 -0.8201926 -0.5653605
vn 0.08747301 -0.8201926 -0.5653605
vn 0.08747301 -0.8201926 -0.5653605
vn -0.4355341 -0.4811461 0.7607947
vn -0.4355341 -0.4811461 0.7607947
vn -0.4355341 -0.4811461 0.7607947
vn -0.01056066 -0.7900764 -0.6129174
vn -0.01056066 -0.7900764 -0.6129174
vn -0.01056066 -0.7900764 -0.6129174
vn -0.2981497 0.9536519 0.04068122
vn -0.2981497 0.9536519 0.04068122
vn -0.2981497 0.9536519 0.04068122
vn -0.5189659 -0.107745 0.8479772
vn -0.5189659 -0.107745 0.8479772
vn -0.5189659 -0.107745 0.8479772
vn 0.4306036 0.1170549 0.8949182
vn 0.4306036 0.1170549 0.8949182
vn 0.4306036 0.1170549 0.8949182
vn 0.2472112 -0.9651996 -0.08530088
vn 0.2472112 -0.9651996 -0.08530088
vn 0.2472112 -0.9651996 -0.08530088
vn -0.89414 0.1903024 0.4053377
vn -0.89414 0.1903024 0.4053377
vn -0.89414 0.1903024 0.4053377
vn -0.89414 0.1903024 0.4053377
vn -0.3839414 -0.4225639 -0.8209925
vn -0.3839414 -0.4225639 -0.8209925
vn -0.3839414 -0.4225639 -0.8209925
vn -0.3839414 -0.4225639 -0.8209925
vn -0.1500045 0.9058714 -0.3961006
vn -0.1500045 0.9058714 -0.3961006
vn -0.1500045 0.9058714 -0.3961006
vn 0.08227309 -0.2893483 0.9536817
vn 0.08227309 -0.2893483 0.9536817
vn 0.08227309 -0.2893483 0.9536817
vn -0.2164336 0.95955 0.1800567
vn -0.2164336 0.95955 0.1800567
vn -0.2164336 0.95955 0.1800567
vn -0.4306036 -0.1170549 -0.8949182
vn -0.4306036 -0.1170549 -0.8949182
vn -0.4306036 -0.1170549 -0.8949182
vn 0.1500045 -0.9058714 0.3961006
vn 0.1500045 -0.9058714 0.3961006
vn 0.1500045 -0.9058714 0.3961006
vn -0.4803896 -0.1386573 -0.8660254
vn -0.4803896 -0.1386573 -0.8660254
vn -0.4803896 -0.1386573 -0.8660254
vn -0.06023891 -0.7687626 -0.636691
vn -0.06023891 -0.7687626 -0.636691
vn -0.06023891 -0.7687626 -0.636691
vn -0.3035087 -0.4234808 -0.8535494
vn -0.3035087 -0.4234808 -0.8535494
vn -0.3035087 -0.4234808 -0.8535494
vn 0.02942798 -0.2156733 0.9760221
vn 0.02942798 -0.2156733 0.9760221
vn 0.02942798 -0.2156733 0.9760221
vn -0.5341014 -0.4878854 0.6904373
vn -0.5341014 -0.4878854 0.6904373
vn -0.5341014 -0.4878854 0.6904373
vn 0.5993802 -0.7904032 0.1265164
vn 0.5993802 -0.7904032 0.1265164
vn 0.5993802 -0.7904032 0.1265164
vn -0.3305646 -0.902199 0.2770635
vn -0.3305646 -0.902199 0.2770635
vn -0.3305646 -0.902199 0.2770635
vn -0.07835194 0.8622207 0.5004363
vn -0.07835194 0.8622207 0.5004363
vn -0.07835194 0.8622207 0.5004363
vn -0.07835194 0.8622207 0.5004363
vn -0.07835194 0.8622207 0.5004363
vn -0.3015819 0.3396164 0.8909035
vn -0.3015819 0.3396164 0.8909035
vn -0.3015819 0.3396164 0.8909035
vn 0.7947782 0.3487812 0.4966682
vn 0.7947782 0.3487812 0.4966682
vn 0.7947782 0.3487812 0.4966682
vn 0.7947782 0.3487812 0.4966682
vn -0.5886776 0.7970272 -0.1349309
vn -0.5886776 0.7970272 -0.1349309
vn -0.5886776 0.7970272 -0.1349309
vn -0.5931493 0.7787283 0.2043432
vn -0.5931493 0.7787283 0.2043432
vn -0.5931493 0.7787283 0.2043432
vn -0.399258 0.05210713 -0.9153567
vn -0.399258 0.05210713 -0.9153567
vn -0.399258 0.05210713 -0.9153567
vn -0.5901854 0.7318299 -0.3407437
vn -0.5901854 0.7318299 -0.3407437
vn -0.5901854 0.7318299 -0.3407437
vn -0.5901854 0.7318299 -0.3407437
vn -0.5901854 0.7318299 -0.3407437
vn -0.5901854 0.7318299 -0.3407437
vn -0.5901854 0.7318299 -0.3407437
vn 0 0 -1
vn 0 0 -1
vn 0 0 -1
vn 0 0 -1
vn -0.5901854 0.7318299 0.3407437
vn -0.5901854 0.7318299 0.3407437
vn -0.5901854 0.7318299 0.3407437
vn -0.5901854 0.7318299 0.3407437
vn 0 0.7318299 -0.6814874
vn 0 0.7318299 -0.6814874
vn 0 0.7318299 -0.6814874
vn 0 0.7318299 -0.6814874
vn 0.5901854 0.7318299 0.3407437
vn 0.5901854 0.7318299 0.3407437
vn 0.5901854 0.7318299 0.3407437
vn 0.5901854 0.7318299 0.3407437
vn 0 -0.6392995 -0.7689579
vn 0 -0.6392995 -0.7689579
vn 0 -0.6392995 -0.7689579
vn 0 -0.6392995 -0.7689579
vn 0.8660254 0 -0.5
vn 0.8660254 0 -0.5
vn 0.8660254 0 -0.5
vn 0.8660254 0 -0.5
vn 0 -0.6392995 0.7689579
vn 0 -0.6392995 0.7689579
vn 0 -0.6392995 0.7689579
vn 0 -0.6392995 0.7689579
vn 0 -1 0
vn 0 -1 0
vn 0 -1 0
vn 0 -1 0
vn 0 -1 0
vn 0 -1 0
vn 0 0 1
vn 0 0 1
vn 0 0 1
vn 0 0 1
vn 0.5901854 0.7318299 -0.3407437
vn 0.5901854 0.7318299 -0.3407437
vn 0.5901854 0.7318299 -0.3407437
vn 0.5901854 0.7318299 -0.3407437
vn 0.8660254 0 0.5
vn 0.8660254 0 0.5
vn 0.8660254 0 0.5
vn 0.8660254 0 0.5
vn 0.6659371 -0.6392995 0.3844789
vn 0.6659371 -0.6392995 0.3844789
vn 0.6659371 -0.6392995 0.3844789
vn 0.6659371 -0.6392995 0.3844789
vn -0.6659371 -0.6392995 0.3844789
vn -0.6659371 -0.6392995 0.3844789
vn -0.6659371 -0.6392995 0.3844789
vn -0.6659371 -0.6392995 0.3844789
vn -0.8660254 0 0.5
vn -0.8660254 0 0.5
vn -0.8660254 0 0.5
vn -0.8660254 0 0.5
vn -0.6659371 -0.6392995 -0.3844789
vn -0.6659371 -0.6392995 -0.3844789
vn -0.6659371 -0.6392995 -0.3844789
vn -0.6659371 -0.6392995 -0.3844789
vn 0.6659371 -0.6392995 -0.3844789
vn 0.6659371 -0.6392995 -0.3844789
vn 0.6659371 -0.6392995 -0.3844789
vn 0.6659371 -0.6392995 -0.3844789
vn -0.8660254 0 -0.5
vn -0.8660254 0 -0.5
vn -0.8660254 0 -0.5
vn -0.8660254 0 -0.5
vn 0 0.7318299 0.6814874
vn 0 0.7318299 0.6814874
vn 0 0.7318299 0.6814874
vn 0 0.7318299 0.6814874
vn 0 1 0
vn 0 1 0
vn 0 1 0
vn 0 1 0
vn 0 1 0
vn 0 1 0
vn 0 1 0
vn 0 1 0
vn 0 1 0
vn 0 1 0
vn 0 1 0
vn 0 1 0
vn 0 1 0
vn 0 1 0
vn 0 1 0
vn 0 1 0
vn 0 1 0
g Pumpkin_02_0
f 3/3/3 2/2/2 1/1/1
f 1/1/1 4/4/4 3/3/3
f 4/4/4 5/5/5 3/3/3
f 5/5/5 6/6/6 3/3/3
f 3/3/3 6/6/6 7/7/7
f 7/7/7 8/8/8 3/3/3
f 11/11/11 10/10/10 9/9/9
f 14/14/14 13/13/13 12/12/12
f 17/17/17 16/16/16 15/15/15
f 20/20/20 19/19/19 18/18/18
f 23/23/23 22/22/22 21/21/21
f 26/26/26 25/25/25 24/24/24
f 29/29/29 28/28/28 27/27/27
f 32/32/32 31/31/31 30/30/30
f 30/30/30 33/33/33 32/32/32
f 36/36/36 35/35/35 34/34/34
f 34/34/34 37/37/37 36/36/36
f 40/40/40 39/39/39 38/38/38
f 43/43/43 42/42/42 41/41/41
f 46/46/46 45/45/45 44/44/44
f 49/49/49 48/48/48 47/47/47
f 52/52/52 51/51/51 50/50/50
f 55/55/55 54/54/54 53/53/53
f 58/58/58 57/57/57 56/56/56
f 61/61/61 60/60/60 59/59/59
f 64/64/64 63/63/63 62/62/62
f 67/67/67 66/66/66 65/65/65
f 70/70/70 69/69/69 68/68/68
f 73/73/73 72/72/72 71/71/71
f 76/76/76 75/75/75 74/74/74
f 74/74/74 77/77/77 76/76/76
f 77/77/77 78/78/78 76/76/76
f 81/81/81 80/80/80 79/79/79
f 84/84/84 83/83/83 82/82/82
f 82/82/82 85/85/85 84/84/84
f 88/88/88 87/87/87 86/86/86
f 91/91/91 90/90/90 89/89/89
f 94/94/94 93/93/93 92/92/92
g Pumpkin_02_1
f 97/97/97 96/96/96 95/95/95
f 96/96/96 97/97/97 98/98/98
f 98/98/98 99/99/99 96/96/96
f 97/97/97 100/100/100 98/98/98
f 100/100/100 101/101/101 98/98/98
f 104/104/104 103/103/103 102/102/102
f 102/102/102 105/105/105 104/104/104
f 108/108/108 107/107/107 106/106/106
f 106/106/106 109/109/109 108/108/108
f 112/112/112 111/111/111 110/110/110
f 110/110/110 113/113/113 112/112/112
f 116/116/116 115/115/115 114/114/114
f 114/114/114 117/117/117 116/116/116
f 120/120/120 119/119/119 118/118/118
f 118/118/118 121/121/121 120/120/120
f 124/124/124 123/123/123 122/122/122
f 122/122/122 125/125/125 124/124/124
f 128/128/128 127/127/127 126/126/126
f 126/126/126 129/129/129 128/128/128
f 132/132/132 131/131/131 130/130/130
f 130/130/130 133/133/133 132/132/132
f 133/133/133 134/134/134 132/132/132
f 133/133/133 135/135/135 134/134/134
f 138/138/138 137/137/137 136/136/136
f 136/136/136 139/139/139 138/138/138
f 142/142/142 141/141/141 140/140/140
f 140/140/140 143/143/143 142/142/142
f 146/146/146 145/145/145 144/144/144
f 144/144/144 147/147/147 146/146/146
f 150/150/150 149/149/149 148/148/148
f 148/148/148 151/151/151 150/150/150
f 154/154/154 153/153/153 152/152/152
f 152/152/152 155/155/155 154/154/154
f 158/158/158 157/157/157 156/156/156
f 156/156/156 159/159/159 158/158/158
f 162/162/162 161/161/161 160/160/160
f 160/160/160 163/163/163 162/162/162
f 166/166/166 165/165/165 164/164/164
f 164/164/164 167/167/167 166/166/166
f 170/170/170 169/169/169 168/168/168
f 168/168/168 171/171/171 170/170/170
f 174/174/174 173/173/173 172/172/172
f 172/172/172 175/175/175 174/174/174
f 178/178/178 177/177/177 176/176/176
f 176/176/176 179/179/179 178/178/178
f 176/176/176 180/180/180 179/179/179
f 176/176/176 181/181/181 180/180/180
f 176/176/176 182/182/182 181/181/181
f 176/176/176 183/183/183 182/182/182
f 183/183/183 184/184/184 182/182/182
f 183/183/183 185/185/185 184/184/184
f 185/185/185 183/183/183 186/186/186
f 187/187/187 185/185/185 186/186/186
f 188/188/188 187/187/187 186/186/186
f 189/189/189 188/188/188 186/186/186
f 189/189/189 186/186/186 190/190/190
f 190/190/190 191/191/191 189/189/189
f 183/183/183 192/192/192 186/186/186
