g Rock_Chunk_02
v 3.632518 46.05958 -6.614726
v -6.915732 44.25945 -3.334397
v 5.078483 0 -7.434848
v 20.87658 30.7086 1.32904
v 19.58108 0 1.32904
v 9.583791 0 8.72454
v 20.87658 30.7086 1.32904
v 14.37148 30.7086 -3.052904
v 19.58108 0 1.32904
v 10.27217 45.47692 3.227033
v 14.37148 30.7086 6.209936
v -0.8577495 43.26458 8.859941
v 3.632518 46.05958 -6.614726
v 9.583791 0 -5.310452
v 19.58108 0 1.32904
v 20.87658 30.7086 1.32904
v 9.583791 0 8.72454
v -1.206191 0 14.39169
v 3.632518 46.05958 -6.614726
v 19.58108 0 1.32904
v 14.37148 30.7086 -3.052904
v 3.632518 46.05958 -6.614726
v 5.078483 0 -7.434848
v 9.583791 0 -5.310452
v 20.87658 30.7086 1.32904
v 14.37148 30.7086 6.209936
v 14.37148 30.7086 -3.052904
v -9.685072 0 -2.568817
v -16.02285 0 8.981807
v -1.206191 0 14.39169
v 5.078483 0 -7.434848
v 9.583791 0 8.72454
v 9.583791 0 -5.310452
v 19.58108 0 1.32904
v -9.685072 0 -2.568817
v -11.44394 42.51503 4.816582
v -16.02285 0 8.981807
v 14.37148 30.7086 -3.052904
v 14.37148 30.7086 6.209936
v 10.27217 45.47692 3.227033
v 14.37148 30.7086 6.209936
v 20.87658 30.7086 1.32904
v -1.206191 0 14.39169
v -0.8577495 43.26458 8.859941
v -16.02285 0 8.981807
v -11.44394 42.51503 4.816582
v -0.8577495 43.26458 8.859941
v -11.44394 42.51503 4.816582
v -6.915732 44.25945 -3.334397
v 3.632518 46.05958 -6.614726
v 10.27217 45.47692 3.227033
v 10.27217 46.42814 -3.374027
v -0.8577495 43.26458 8.859941
v -1.206191 0 14.39169
v -16.02285 0 8.981807
v 10.27217 46.42814 -3.374027
v 3.632518 46.05958 -6.614726
v 14.37148 30.7086 -3.052904
v -0.8577495 43.26458 8.859941
v 14.37148 30.7086 6.209936
v -1.206191 0 14.39169
v -6.915732 44.25945 -3.334397
v -11.44394 42.51503 4.816582
v -9.685072 0 -2.568817
v -6.915732 44.25945 -3.334397
v -9.685072 0 -2.568817
v 5.078483 0 -7.434848
v 10.27217 46.42814 -3.374027
v 14.37148 30.7086 -3.052904
v 10.27217 45.47692 3.227033
vt -8.431166 71.3285
vt 8.690998 68.53822
vt -10.94948 -0.06607433
vt 24.78931 48.10766
vt 23.17498 0.4942532
vt 3.90007 0.4942532
vt -27.98862 47.97092
vt -15.83144 47.97092
vt -26.3232 0.3592815
vt 12.54443 64.44115
vt 16.48917 40.56263
vt -6.763743 60.86407
vt 0.9819704 70.75315
vt -7.820696 -0.7211753
vt -26.42258 -0.7211753
vt 27.68987 46.84454
vt 6.863224 -0.7962778
vt -12.02776 -0.7962778
vt -3.847736 72.17989
vt -30.2709 0.3369613
vt -21.1793 48.23569
vt -0.7198572 71.01727
vt -2.204887 -0.4062709
vt -9.92553 -0.4062709
vt 32.35876 -2.060016
vt 22.27584 -9.62542
vt 22.27584 4.732011
vt 15.01189 3.981674
vt 24.83546 -13.92183
vt 1.8696 -22.30716
vt -7.871664 11.52404
vt -14.85491 -13.52306
vt -14.85491 8.231216
vt -30.35073 -2.060016
vt 3.730601 -0.7122106
vt 15.07795 65.25988
vt 24.15211 -0.7122106
vt 4.732011 39.90639
vt -9.62542 39.90639
vt -5.001912 63.66282
vt 12.04113 49.31741
vt 24.64671 49.31741
vt -14.88338 1.520862
vt 3.772698 64.77879
vt -18.04391 -2.850168
vt -13.79142 63.60714
vt 8.031776 1.582652
vt -8.449857 -4.600118
vt -11.47361 9.789096
vt -2.503161 24.63784
vt 15.28273 19.83161
vt 8.552596 27.67801
vt 3.461179 64.93098
vt 5.894597 -2.633518
vt -18.55422 -2.633518
vt -12.06979 70.54395
vt -0.6180147 69.97012
vt -18.00922 46.0692
vt -4.954178 65.02686
vt 18.88979 45.42299
vt -7.767905 -2.522876
vt 0.5839431 67.97325
vt 15.03613 65.26645
vt 3.677981 -0.7037821
vt 8.562819 68.57584
vt 13.01103 -0.02678587
vt -11.08345 -0.02678587
vt 5.825706 65.65152
vt 5.567626 40.46772
vt -4.398698 64.12759
vn -0.2981346 0.007635955 -0.9544933
vn -0.2981346 0.007635955 -0.9544933
vn -0.2981346 0.007635955 -0.9544933
vn 0.5945264 -0.02508121 0.8036848
vn 0.5945264 -0.02508121 0.8036848
vn 0.5945264 -0.02508121 0.8036848
vn 0.5585293 -0.02356261 -0.82915
vn 0.5585293 -0.02356261 -0.82915
vn 0.5585293 -0.02356261 -0.82915
vn 0.3872512 0.2846161 0.8769436
vn 0.3872512 0.2846161 0.8769436
vn 0.3872512 0.2846161 0.8769436
vn 0.5526026 0.04783892 -0.8320708
vn 0.5526026 0.04783892 -0.8320708
vn 0.5526026 0.04783892 -0.8320708
vn 0.4645749 0.04217672 0.8845289
vn 0.4645749 0.04217672 0.8845289
vn 0.4645749 0.04217672 0.8845289
vn 0.1651888 -0.1118032 -0.9799044
vn 0.1651888 -0.1118032 -0.9799044
vn 0.1651888 -0.1118032 -0.9799044
vn 0.4263102 0.02948136 -0.9040964
vn 0.4263102 0.02948136 -0.9040964
vn 0.4263102 0.02948136 -0.9040964
vn 0 1 0
vn 0 1 0
vn 0 1 0
vn 0 -1 0
vn 0 -1 0
vn 0 -1 0
vn 0 -1 0
vn 0 -1 0
vn 0 -1 0
vn 0 -1 0
vn -0.8757195 0.04724057 -0.4805035
vn -0.8757195 0.04724057 -0.4805035
vn -0.8757195 0.04724057 -0.4805035
vn 0.9635683 0.2674622 0
vn 0.9635683 0.2674622 0
vn 0.9635683 0.2674622 0
vn 0.5976754 -0.09095553 0.7965621
vn 0.5976754 -0.09095553 0.7965621
vn 0.5976754 -0.09095553 0.7965621
vn -0.361789 0.1294148 0.9232337
vn -0.361789 0.1294148 0.9232337
vn -0.361789 0.1294148 0.9232337
vn -0.1236015 0.9821866 0.1415353
vn -0.1236015 0.9821866 0.1415353
vn -0.1236015 0.9821866 0.1415353
vn -0.1236015 0.9821866 0.1415353
vn -0.1236015 0.9821866 0.1415353
vn -0.1236015 0.9821866 0.1415353
vn -0.3404151 0.1219485 0.9323337
vn -0.3404151 0.1219485 0.9323337
vn -0.3404151 0.1219485 0.9323337
vn 0.4324255 0.09444888 -0.8967093
vn 0.4324255 0.09444888 -0.8967093
vn 0.4324255 0.09444888 -0.8967093
vn 0.2655284 0.1201691 0.9565846
vn 0.2655284 0.1201691 0.9565846
vn 0.2655284 0.1201691 0.9565846
vn -0.8774153 0.04664153 -0.4774588
vn -0.8774153 0.04664153 -0.4774588
vn -0.8774153 0.04664153 -0.4774588
vn -0.3130311 0.003158421 -0.9497376
vn -0.3130311 0.003158421 -0.9497376
vn -0.3130311 0.003158421 -0.9497376
vn 0.9668143 0.2528683 0.03643887
vn 0.9668143 0.2528683 0.03643887
vn 0.9668143 0.2528683 0.03643887
g Rock_Chunk_02_0
f 3/3/3 2/2/2 1/1/1
f 6/6/6 5/5/5 4/4/4
f 9/9/9 8/8/8 7/7/7
f 12/12/12 11/11/11 10/10/10
f 15/15/15 14/14/14 13/13/13
f 18/18/18 17/17/17 16/16/16
f 21/21/21 20/20/20 19/19/19
f 24/24/24 23/23/23 22/22/22
f 27/27/27 26/26/26 25/25/25
f 30/30/30 29/29/29 28/28/28
f 28/28/28 31/31/31 30/30/30
f 31/31/31 32/32/32 30/30/30
f 31/31/31 33/33/33 32/32/32
f 33/33/33 34/34/34 32/32/32
f 37/37/37 36/36/36 35/35/35
f 40/40/40 39/39/39 38/38/38
f 43/43/43 42/42/42 41/41/41
f 46/46/46 45/45/45 44/44/44
f 49/49/49 48/48/48 47/47/47
f 47/47/47 50/50/50 49/49/49
f 47/47/47 51/51/51 50/50/50
f 51/51/51 52/52/52 50/50/50
f 55/55/55 54/54/54 53/53/53
f 58/58/58 57/57/57 56/56/56
f 61/61/61 60/60/60 59/59/59
f 64/64/64 63/63/63 62/62/62
f 67/67/67 66/66/66 65/65/65
f 70/70/70 69/69/69 68/68/68
