g Rock_Chunk_03
v 11.38609 32.74947 5.002439
v 4.746336 0 11.0626
v 3.743691 32.11655 10.24134
v -1.417325 20.13459 8.506977
v 2.282979 0 9.293374
v 0.04152582 19.82185 9.69527
v 11.38609 32.74947 5.002439
v 16.32573 0 3.012129
v 4.746336 0 11.0626
v -7.619368 36.61456 0.875026
v -7.144736 36.82389 3.459714
v -7.22259 0 5.980989
v -5.20119 0 -5.946835
v -6.219986 37.23176 -2.504198
v -8.260082 0 0.8116131
v -6.219986 37.23176 -2.504198
v -7.619368 36.61456 0.875026
v -8.260082 0 0.8116131
v -6.219986 37.23176 -2.504198
v -5.20119 0 -5.946835
v 0.5138099 0 -5.946835
v -7.144736 36.82389 3.459714
v -7.619368 36.61456 0.875026
v -6.219986 37.23176 -2.504198
v -6.219986 37.23176 4.381076
v -5.125723 37.71439 1.975284
v -3.988948 38.21576 4.381076
v -3.923066 38.24482 4.231293
v -3.605489 38.38489 -2.504198
v -2.496769 45.94189 0.513804
v -0.8227233 46.1699 3.542642
v 0.4920602 32.39474 7.938668
v -6.538033 21.95415 8.760132
v -8.914544 9.130299E-15 8.632502
v -4.963252 21.25756 7.842423
v -0.8227233 46.1699 3.542642
v 9.941439 43.87687 1.523891
v 0.4920602 32.39474 7.938668
v -0.2676214 44.56722 -5.049232
v 13.05163 0 -5.946835
v 7.882273 43.21416 -4.387392
v 9.941439 43.87687 1.523891
v 11.38609 32.74947 5.002439
v 0.4920602 32.39474 7.938668
v -6.538033 21.95415 8.760132
v -1.505084 9.168252E-15 12.85946
v -8.914544 9.130299E-15 8.632502
v 11.38609 32.74947 5.002439
v 3.743691 32.11655 10.24134
v 0.4920602 32.39474 7.938668
v -4.963252 21.25756 7.842423
v -8.914544 9.130299E-15 8.632502
v -6.21189 0 6.902351
v 13.05163 0 -5.946835
v 16.32573 0 3.012129
v 11.38609 32.74947 5.002439
v -3.605489 38.38489 -2.504198
v -6.219986 37.23176 -2.504198
v 0.5138099 0 -5.946835
v 13.05163 0 -5.946835
v 9.941439 43.87687 1.523891
v 7.882273 43.21416 -4.387392
v -8.260082 0 0.8116131
v -7.619368 36.61456 0.875026
v -7.22259 0 5.980989
v 13.05163 0 -5.946835
v 11.38609 32.74947 5.002439
v 9.941439 43.87687 1.523891
v 0.5138099 0 -5.946835
v -5.125723 37.71439 1.975284
v -3.605489 38.38489 -2.504198
v -6.538033 21.95415 8.760132
v -2.157686 20.90806 11.672
v -1.505084 9.168252E-15 12.85946
v -5.20119 0 -5.946835
v -8.260082 0 0.8116131
v -7.22259 0 5.980989
v -6.21189 0 6.902351
v -5.20119 0 7.823713
v 0.5138099 0 -5.946835
v -2.809254 0 3.012129
v -0.3243901 0 7.823713
v -0.1803778 0 7.524148
v 2.282979 0 9.293374
v 13.05163 0 -5.946835
v 4.746336 0 11.0626
v 16.32573 0 3.012129
v -1.505084 9.168252E-15 12.85946
v -8.914544 9.130299E-15 8.632502
v 3.743691 32.11655 10.24134
v 4.746336 0 11.0626
v 2.282979 0 9.293374
v -0.1803778 0 7.524148
v -3.988948 38.21576 4.381076
v -0.3243901 0 7.823713
v -5.20119 0 7.823713
v -0.2676214 44.56722 -5.049232
v -2.496769 45.94189 0.513804
v -2.809254 0 3.012129
v -0.8227233 46.1699 3.542642
v -2.496769 45.94189 0.513804
v -0.2676214 44.56722 -5.049232
v 9.941439 43.87687 1.523891
v 7.882273 43.21416 -4.387392
v -0.2676214 44.56722 -5.049232
v 0.5138099 0 -5.946835
v 13.05163 0 -5.946835
v -3.923066 38.24482 4.231293
v -0.1803778 0 7.524148
v -3.988948 38.21576 4.381076
v 0.5138099 0 -5.946835
v -2.809254 0 3.012129
v -5.125723 37.71439 1.975284
v -3.988948 38.21576 4.381076
v -0.1803778 0 7.524148
v -0.3243901 0 7.823713
v -4.363322 21.14806 8.448243
v -5.20119 0 7.823713
v -0.3243901 0 7.823713
v -1.417325 20.13459 8.506977
v -0.1803778 0 7.524148
v 2.282979 0 9.293374
v -3.988948 38.21576 4.381076
v -5.20119 0 7.823713
v -6.219986 37.23176 4.381076
v -2.809254 0 3.012129
v -0.1803778 0 7.524148
v -3.923066 38.24482 4.231293
v -4.363322 21.14806 8.448243
v -0.3243901 0 7.823713
v -1.499781 20.19168 8.681357
v -5.125723 37.71439 1.975284
v -2.809254 0 3.012129
v -3.923066 38.24482 4.231293
v -6.219986 37.23176 4.381076
v -5.20119 0 7.823713
v -6.21189 0 6.902351
v -7.22259 0 5.980989
v -7.144736 36.82389 3.459714
v -6.219986 37.23176 4.381076
v -7.22259 0 5.980989
v -5.20119 0 7.823713
v -4.363322 21.14806 8.448243
v -4.963252 21.25756 7.842423
v -4.963252 21.25756 7.842423
v -6.21189 0 6.902351
v -5.20119 0 7.823713
v -2.496769 45.94189 0.513804
v 0.4920602 32.39474 7.938668
v -0.1803778 0 7.524148
v 0.4920602 32.39474 7.938668
v 3.743691 32.11655 10.24134
v -0.1803778 0 7.524148
v 0.04152582 19.82185 9.69527
v 2.282979 0 9.293374
v -1.505084 9.168252E-15 12.85946
v -2.157686 20.90806 11.672
v -2.157686 20.90806 11.672
v -6.538033 21.95415 8.760132
v -4.963252 21.25756 7.842423
v -4.363322 21.14806 8.448243
v -1.499781 20.19168 8.681357
v 0.04152582 19.82185 9.69527
v -1.417325 20.13459 8.506977
v 0.5138099 0 -5.946835
v -0.2676214 44.56722 -5.049232
v -2.809254 0 3.012129
v -0.3243901 0 7.823713
v -1.417325 20.13459 8.506977
v -1.499781 20.19168 8.681357
v -0.1803778 0 7.524148
v -1.417325 20.13459 8.506977
v -0.3243901 0 7.823713
v -2.496769 45.94189 0.513804
v -0.1803778 0 7.524148
v -2.809254 0 3.012129
vt 10.21581 50.09142
vt -3.578739 -0.7083882
vt -4.145934 49.10965
vt -6.79369 32.09968
vt -11.97062 0.769779
vt -9.709806 31.61304
vt 10.06436 50.13378
vt 18.11182 -0.6612595
vt -3.747752 -0.6612595
vt -0.7854745 56.5764
vt 3.287785 56.9009
vt 7.110645 -0.1821401
vt -5.073348 -0.1470781
vt 0.439143 57.56729
vt 6.425278 -0.1470781
vt 0.07296787 57.52612
vt 5.742106 56.56932
vt 6.028547 -0.1914082
vt 9.640998 57.10683
vt 8.061861 -0.8486869
vt -0.796407 -0.8486869
vt 5.362567 12.90062
vt 1.356293 12.09656
vt -3.881515 14.46721
vt 6.790681 14.46721
vt 3.061697 16.32096
vt 6.790681 18.24674
vt 6.558518 18.35835
vt -3.881515 18.89634
vt -1.157781 70.77811
vt 4.206224 71.13236
vt 11.16246 49.72955
vt 15.44282 34.37311
vt 18.56962 0.287868
vt 12.61836 33.29161
vt -2.619813 66.32367
vt 14.31427 62.57772
vt -2.367582 43.8202
vt 1.106723 68.64389
vt -19.33365 -0.5102342
vt -11.56685 66.54436
vt 14.32912 62.53301
vt 15.14898 44.34264
vt -2.338405 43.76275
vt -2.074076 33.17279
vt 7.850437 -0.8963485
vt -5.371668 -0.8963485
vt 17.64848 -1.60944
vt 5.802732 -9.788801
vt 0.7626948 -6.193697
vt 13.03298 33.29
vt 18.85135 0.2625793
vt 13.87738 0.2625793
vt 1.713597 -3.555759
vt -13.07109 -3.555759
vt -13.34056 47.8721
vt 5.43804 58.93135
vt 9.487632 57.13747
vt -1.143733 -0.7827844
vt 1.757212 -2.743486
vt -7.480868 65.793
vt 2.220789 64.75784
vt -1.285945 -0.2152205
vt -0.9941559 56.54548
vt 6.886385 -0.2152205
vt 6.698453 -1.920928
vt -9.835101 49.05058
vt -4.211747 66.36933
vt 8.961717 0.1641657
vt -5.518635 58.77116
vt 1.813154 59.81311
vt -1.024652 33.50004
vt 7.128042 31.87785
vt 8.983458 -0.5446421
vt 8.061861 9.217613
vt 12.80315 -1.258003
vt 11.19504 -9.270552
vt 9.628448 -10.69867
vt 8.061861 -12.12678
vt -0.796407 9.217613
vt 4.354352 -4.66881
vt 0.5028057 -12.12678
vt 0.2795862 -11.66245
vt -3.538624 -14.40476
vt -20.23007 9.217613
vt -7.356834 -17.14706
vt -25.30493 -4.66881
vt 2.332885 -19.9322
vt 13.81757 -13.3804
vt 13.97327 49.75627
vt 15.97812 -0.02464619
vt 11.27717 -0.02464619
vt 6.576216 -0.02464619
vt -6.182883 58.38639
vt -0.5028057 -1.088026
vt -8.061861 -1.088026
vt -7.120852 69.11781
vt 2.168324 71.24874
vt 5.946155 0.03194425
vt -3.052613 22.0271
vt 2.123554 20.57612
vt 5.905431 11.82815
vt -12.4262 7.434937
vt -3.628014 3.217639
vt 0.4148139 68.90774
vt -0.796407 -0.1856091
vt -20.23007 -0.1856091
vt -8.514613 59.1609
vt -10.68667 -0.5806738
vt -8.768181 59.11551
vt 8.91922 0.1647397
vt -5.89169 0.1647397
vt -5.633564 58.7538
vt -8.799059 59.10125
vt -10.63208 -0.5976241
vt -11.14728 -0.5976241
vt 6.763162 33.15181
vt 8.061861 0.3579635
vt 0.5028057 0.3579635
vt -5.907639 32.02274
vt -6.576216 0.7252728
vt -11.27717 0.7252728
vt -5.904456 58.34979
vt -7.567063 -1.131065
vt -9.359767 56.81824
vt -1.841957 0.2517019
vt -9.936076 0.2517019
vt -2.605625 59.58161
vt 5.460669 33.39725
vt -0.676221 0.5800816
vt 1.008057 31.91316
vt 1.107211 58.75307
vt -2.020357 0.246982
vt -2.855313 59.57593
vt -2.550009 57.06384
vt 2.211873 -0.7172967
vt 0.09203647 -0.7172967
vt -2.0278 -0.7172967
vt -3.880888 56.43342
vt -1.857753 57.06638
vt -1.164476 -0.712964
vt -2.930603 -0.1044953
vt -4.532483 32.67594
vt -3.210944 32.84566
vt -2.503963 32.85089
vt -0.09203647 -0.09916925
vt -2.211873 -0.09916925
vt -0.7983367 71.14888
vt 11.60418 50.1487
vt 10.60198 -0.06817438
vt 7.732708 50.197
vt 13.90853 49.7658
vt 6.510783 -0.01501398
vt -10.25389 29.97562
vt -7.297224 -0.8087311
vt -15.36117 -0.8087311
vt -14.83607 31.66257
vt -14.95249 21.6175
vt -7.980411 26.14388
vt -7.73088 23.12975
vt -8.976188 22.65595
vt -11.19055 18.51773
vt -13.62881 16.9175
vt -11.00025 18.27073
vt -8.91922 0.02319894
vt -7.193552 69.10561
vt 5.89169 0.02319894
vt 11.22644 -0.1619226
vt 12.89672 31.066
vt 13.19569 31.15454
vt 10.63208 -0.1641897
vt 12.83575 31.06276
vt 11.14728 -0.1641897
vt -1.260128 71.04627
vt 9.936076 -0.2031552
vt 1.841957 -0.2031552
vn 0.5628062 0.03868391 0.8256832
vn 0.5628062 0.03868391 0.8256832
vn 0.5628062 0.03868391 0.8256832
vn 0.6403592 0.08788253 -0.7630313
vn 0.6403592 0.08788253 -0.7630313
vn 0.6403592 0.08788253 -0.7630313
vn 0.5704634 0.03617714 0.8205259
vn 0.5704634 0.03617714 0.8205259
vn 0.5704634 0.03617714 0.8205259
vn -0.9836589 0.01436756 0.1794678
vn -0.9836589 0.01436756 0.1794678
vn -0.9836589 0.01436756 0.1794678
vn -0.9109527 0.01319635 -0.4122997
vn -0.9109527 0.01319635 -0.4122997
vn -0.9109527 0.01319635 -0.4122997
vn -0.9248648 0.01684212 -0.3799227
vn -0.9248648 0.01684212 -0.3799227
vn -0.9248648 0.01684212 -0.3799227
vn 0 0.09207232 -0.9957523
vn 0 0.09207232 -0.9957523
vn 0 0.09207232 -0.9957523
vn -0.4035453 0.9149597 0
vn -0.4035453 0.9149597 0
vn -0.4035453 0.9149597 0
vn -0.4035453 0.9149597 0
vn -0.4035453 0.9149597 0
vn -0.4035453 0.9149597 0
vn -0.4035453 0.9149597 0
vn -0.4035453 0.9149597 0
vn -0.8753141 0.06918269 0.4785802
vn -0.8753141 0.06918269 0.4785802
vn -0.8753141 0.06918269 0.4785802
vn -0.4835827 0.05742482 -0.8734129
vn -0.4835827 0.05742482 -0.8734129
vn -0.4835827 0.05742482 -0.8734129
vn 0.2394655 0.315845 0.9180949
vn 0.2394655 0.315845 0.9180949
vn 0.2394655 0.315845 0.9180949
vn 0.08852056 0.04649455 -0.9949886
vn 0.08852056 0.04649455 -0.9949886
vn 0.08852056 0.04649455 -0.9949886
vn 0.2370904 0.3177724 0.9180462
vn 0.2370904 0.3177724 0.9180462
vn 0.2370904 0.3177724 0.9180462
vn -0.4949346 0.04853248 0.8675739
vn -0.4949346 0.04853248 0.8675739
vn -0.4949346 0.04853248 0.8675739
vn 0 0.9927811 0.1199403
vn 0 0.9927811 0.1199403
vn 0 0.9927811 0.1199403
vn -0.5378779 0.06875095 -0.8402146
vn -0.5378779 0.06875095 -0.8402146
vn -0.5378779 0.06875095 -0.8402146
vn 0.927079 0.1604228 -0.3388051
vn 0.927079 0.1604228 -0.3388051
vn 0.927079 0.1604228 -0.3388051
vn -0.03760479 0.08526146 -0.9956487
vn -0.03760479 0.08526146 -0.9956487
vn -0.03760479 0.08526146 -0.9956487
vn 0.9326874 0.1237951 -0.3387756
vn 0.9326874 0.1237951 -0.3387756
vn 0.9326874 0.1237951 -0.3387756
vn -0.9803099 0.01681361 0.196748
vn -0.9803099 0.01681361 0.196748
vn -0.9803099 0.01681361 0.196748
vn 0.9885479 0.09061879 -0.1206698
vn 0.9885479 0.09061879 -0.1206698
vn 0.9885479 0.09061879 -0.1206698
vn 0.9412342 0.07140148 0.3301212
vn 0.9412342 0.07140148 0.3301212
vn 0.9412342 0.07140148 0.3301212
vn -0.5483073 0.03035018 0.835726
vn -0.5483073 0.03035018 0.835726
vn -0.5483073 0.03035018 0.835726
vn 0 -1 0
vn 0 -1 0
vn 0 -1 0
vn 0 -1 0
vn 0 -1 0
vn 0 -1 0
vn 0 -1 0
vn 0 -1 0
vn 0 -1 0
vn 0 -1 0
vn 0 -1 0
vn 0 -1 0
vn 0 -1 0
vn 0 -1 0
vn 0 -1 0
vn -0.5833489 0.002557832 0.8122177
vn -0.5833489 0.002557832 0.8122177
vn -0.5833489 0.002557832 0.8122177
vn -0.5833489 0.002557832 0.8122177
vn 0 0.08972089 0.9959669
vn 0 0.08972089 0.9959669
vn 0 0.08972089 0.9959669
vn -0.9293306 -0.01374481 -0.3689929
vn -0.9293306 -0.01374481 -0.3689929
vn -0.9293306 -0.01374481 -0.3689929
vn 0.1747968 0.9698836 -0.1696226
vn 0.1747968 0.9698836 -0.1696226
vn 0.1747968 0.9698836 -0.1696226
vn 0.1747968 0.9698836 -0.1696226
vn 0.1747968 0.9698836 -0.1696226
vn 0 0.02013635 -0.9997973
vn 0 0.02013635 -0.9997973
vn 0 0.02013635 -0.9997973
vn 0.8991866 0.1241221 0.4195917
vn 0.8991866 0.1241221 0.4195917
vn 0.8991866 0.1241221 0.4195917
vn 0.935474 0.06699748 0.3469865
vn 0.935474 0.06699748 0.3469865
vn 0.935474 0.06699748 0.3469865
vn 0.8942538 0.1244785 0.4299013
vn 0.8942538 0.1244785 0.4299013
vn 0.8942538 0.1244785 0.4299013
vn 0 0.02951843 -0.9995642
vn 0 0.02951843 -0.9995642
vn 0 0.02951843 -0.9995642
vn 0.581696 0.07527031 -0.8099162
vn 0.581696 0.07527031 -0.8099162
vn 0.581696 0.07527031 -0.8099162
vn -0.04009623 0.09091033 0.9950516
vn -0.04009623 0.09091033 0.9950516
vn -0.04009623 0.09091033 0.9950516
vn 0.8633072 0.04117673 -0.5029961
vn 0.8633072 0.04117673 -0.5029961
vn 0.8633072 0.04117673 -0.5029961
vn 0.09691817 0.04786805 -0.9941406
vn 0.09691817 0.04786805 -0.9941406
vn 0.09691817 0.04786805 -0.9941406
vn 0.8776955 0.04078237 -0.4774802
vn 0.8776955 0.04078237 -0.4774802
vn 0.8776955 0.04078237 -0.4774802
vn -0.6728535 0.04983631 0.7380952
vn -0.6728535 0.04983631 0.7380952
vn -0.6728535 0.04983631 0.7380952
vn -0.6728535 0.04983631 0.7380952
vn -0.7157611 0.04920904 0.6966093
vn -0.7157611 0.04920904 0.6966093
vn -0.7157611 0.04920904 0.6966093
vn 0.7098706 -0.007325766 -0.704294
vn 0.7098706 -0.007325766 -0.704294
vn 0.7098706 -0.007325766 -0.704294
vn 0.6736746 -0.006890078 -0.738996
vn 0.6736746 -0.006890078 -0.738996
vn 0.6736746 -0.006890078 -0.738996
vn -0.918456 0.01400707 0.3952751
vn -0.918456 0.01400707 0.3952751
vn -0.918456 0.01400707 0.3952751
vn -0.5778339 0.001551046 0.816153
vn -0.5778339 0.001551046 0.816153
vn -0.5778339 0.001551046 0.816153
vn 0.6841059 0.06262474 0.7266892
vn 0.6841059 0.06262474 0.7266892
vn 0.6841059 0.06262474 0.7266892
vn 0.6841059 0.06262474 0.7266892
vn 0.3242218 0.9336373 -0.152321
vn 0.3242218 0.9336373 -0.152321
vn 0.3242218 0.9336373 -0.152321
vn 0.3242218 0.9336373 -0.152321
vn 0.3242218 0.9336373 -0.152321
vn 0.3242218 0.9336373 -0.152321
vn 0.3242218 0.9336373 -0.152321
vn -0.9375389 -0.009434702 -0.3477525
vn -0.9375389 -0.009434702 -0.3477525
vn -0.9375389 -0.009434702 -0.3477525
vn -0.9078626 -0.03510227 -0.4177957
vn -0.9078626 -0.03510227 -0.4177957
vn -0.9078626 -0.03510227 -0.4177957
vn -0.9007365 -0.0341989 -0.4330177
vn -0.9007365 -0.0341989 -0.4330177
vn -0.9007365 -0.0341989 -0.4330177
vn -0.8635626 0.03323482 0.5031449
vn -0.8635626 0.03323482 0.5031449
vn -0.8635626 0.03323482 0.5031449
g Rock_Chunk_03_0
f 3/3/3 2/2/2 1/1/1
f 6/6/6 5/5/5 4/4/4
f 9/9/9 8/8/8 7/7/7
f 12/12/12 11/11/11 10/10/10
f 15/15/15 14/14/14 13/13/13
f 18/18/18 17/17/17 16/16/16
f 21/21/21 20/20/20 19/19/19
f 24/24/24 23/23/23 22/22/22
f 22/22/22 25/25/25 24/24/24
f 25/25/25 26/26/26 24/24/24
f 25/25/25 27/27/27 26/26/26
f 27/27/27 28/28/28 26/26/26
f 24/24/24 26/26/26 29/29/29
f 32/32/32 31/31/31 30/30/30
f 35/35/35 34/34/34 33/33/33
f 38/38/38 37/37/37 36/36/36
f 41/41/41 40/40/40 39/39/39
f 44/44/44 43/43/43 42/42/42
f 47/47/47 46/46/46 45/45/45
f 50/50/50 49/49/49 48/48/48
f 53/53/53 52/52/52 51/51/51
f 56/56/56 55/55/55 54/54/54
f 59/59/59 58/58/58 57/57/57
f 62/62/62 61/61/61 60/60/60
f 65/65/65 64/64/64 63/63/63
f 68/68/68 67/67/67 66/66/66
f 71/71/71 70/70/70 69/69/69
f 74/74/74 73/73/73 72/72/72
f 77/77/77 76/76/76 75/75/75
f 75/75/75 78/78/78 77/77/77
f 75/75/75 79/79/79 78/78/78
f 75/75/75 80/80/80 79/79/79
f 80/80/80 81/81/81 79/79/79
f 82/82/82 79/79/79 81/81/81
f 81/81/81 83/83/83 82/82/82
f 83/83/83 81/81/81 80/80/80
f 80/80/80 84/84/84 83/83/83
f 82/82/82 83/83/83 84/84/84
f 80/80/80 85/85/85 84/84/84
f 85/85/85 86/86/86 84/84/84
f 85/85/85 87/87/87 86/86/86
f 78/78/78 79/79/79 88/88/88
f 79/79/79 82/82/82 88/88/88
f 82/82/82 84/84/84 88/88/88
f 88/88/88 89/89/89 78/78/78
f 92/92/92 91/91/91 90/90/90
f 90/90/90 93/93/93 92/92/92
f 96/96/96 95/95/95 94/94/94
f 99/99/99 98/98/98 97/97/97
f 102/102/102 101/101/101 100/100/100
f 100/100/100 103/103/103 102/102/102
f 103/103/103 104/104/104 102/102/102
f 107/107/107 106/106/106 105/105/105
f 110/110/110 109/109/109 108/108/108
f 113/113/113 112/112/112 111/111/111
f 116/116/116 115/115/115 114/114/114
f 119/119/119 118/118/118 117/117/117
f 122/122/122 121/121/121 120/120/120
f 125/125/125 124/124/124 123/123/123
f 128/128/128 127/127/127 126/126/126
f 131/131/131 130/130/130 129/129/129
f 134/134/134 133/133/133 132/132/132
f 137/137/137 136/136/136 135/135/135
f 135/135/135 138/138/138 137/137/137
f 141/141/141 140/140/140 139/139/139
f 144/144/144 143/143/143 142/142/142
f 147/147/147 146/146/146 145/145/145
f 150/150/150 149/149/149 148/148/148
f 153/153/153 152/152/152 151/151/151
f 156/156/156 155/155/155 154/154/154
f 154/154/154 157/157/157 156/156/156
f 160/160/160 159/159/159 158/158/158
f 158/158/158 161/161/161 160/160/160
f 158/158/158 162/162/162 161/161/161
f 158/158/158 163/163/163 162/162/162
f 163/163/163 164/164/164 162/162/162
f 167/167/167 166/166/166 165/165/165
f 170/170/170 169/169/169 168/168/168
f 173/173/173 172/172/172 171/171/171
f 176/176/176 175/175/175 174/174/174
