g Rock_Chunk_04
v -3.988428 4.589186E-15 -2.637104
v -5.816502 4.589186E-15 1.586232
v -2.031395 4.589186E-15 4.830491
v 1.754974 4.589186E-15 -5.792697
v -1.019067 4.589186E-15 6.090773
v 0.6415943 4.589186E-15 7.299997
v 5.020784 0 6.708266
v 7.015006 4.589186E-15 -0.2443452
v 8.447478 5.044043E-18 2.889514
v 8.447478 5.044043E-18 -0.1330861
v -2.448209 23.6887 -1.043213
v -3.988428 4.589186E-15 -2.637104
v 1.754974 4.589186E-15 -5.792697
v -2.945368 24.03811 2.401116
v -0.1883897 22.10048 4.132962
v -5.816502 4.589186E-15 1.586232
v -0.1883897 22.10048 4.132962
v -2.031395 4.589186E-15 4.830491
v -5.816502 4.589186E-15 1.586232
v 1.754974 4.589186E-15 -5.792697
v 0.5710609 21.56673 -4.38775
v -2.448209 23.6887 -1.043213
v -0.1883897 22.10048 4.132962
v 3.26842 19.67099 3.126388
v 1.523672 4.71144 7.446648
v 6.00305 5.63596 8.982088
v 0.6415943 4.589186E-15 7.299997
v 2.751192 4.963139 8.239598
v -3.988428 4.589186E-15 -2.637104
v -2.945368 24.03811 2.401116
v -5.816502 4.589186E-15 1.586232
v 8.419603 6.16688 2.577719
v 8.447478 5.044043E-18 2.889514
v 8.53723 6.178985 5.355996
v -2.031395 4.589186E-15 4.830491
v 1.523672 4.71144 7.446648
v -1.019067 4.589186E-15 6.090773
v 0.5710609 21.56673 -4.38775
v 1.754974 4.589186E-15 -5.792697
v 4.552189 18.76874 -1.212241
v -0.1883897 22.10048 4.132962
v 1.523672 4.71144 7.446648
v -2.031395 4.589186E-15 4.830491
v 2.751192 4.963139 8.239598
v 0.6415943 4.589186E-15 7.299997
v -1.019067 4.589186E-15 6.090773
v 2.751192 4.963139 8.239598
v -1.019067 4.589186E-15 6.090773
v 1.523672 4.71144 7.446648
v 3.26842 19.67099 3.126388
v 4.883085 5.410571 7.30137
v 1.523672 4.71144 7.446648
v 8.447478 5.044043E-18 2.889514
v 6.00305 5.63596 8.982088
v 8.53723 6.178985 5.355996
v 1.754974 4.589186E-15 -5.792697
v 7.015006 4.589186E-15 -0.2443452
v 7.293777 5.933039 2.523953
v 8.447478 5.044043E-18 2.889514
v 5.020784 0 6.708266
v 6.00305 5.63596 8.982088
v -3.988428 4.589186E-15 -2.637104
v -2.448209 23.6887 -1.043213
v -2.945368 24.03811 2.401116
v -0.1883897 22.10048 4.132962
v -2.945368 24.03811 2.401116
v -2.448209 23.6887 -1.043213
v 0.5710609 21.56673 -4.38775
v 3.26842 19.67099 3.126388
v 4.552189 18.76874 -1.212241
v 8.419603 6.16688 2.577719
v 7.293777 5.933039 2.523953
v 7.015006 4.589186E-15 -0.2443452
v 8.419603 6.16688 2.577719
v 7.015006 4.589186E-15 -0.2443452
v 8.447478 5.044043E-18 -0.1330861
v 4.552189 18.76874 -1.212241
v 7.293777 5.933039 2.523953
v 3.26842 19.67099 3.126388
v 1.754974 4.589186E-15 -5.792697
v 7.293777 5.933039 2.523953
v 4.552189 18.76874 -1.212241
v 7.293777 5.933039 2.523953
v 4.883085 5.410571 7.30137
v 3.26842 19.67099 3.126388
v 6.00305 5.63596 8.982088
v 5.020784 0 6.708266
v 0.6415943 4.589186E-15 7.299997
v 8.447478 5.044043E-18 -0.1330861
v 8.447478 5.044043E-18 2.889514
v 8.419603 6.16688 2.577719
v 2.751192 4.963139 8.239598
v 1.523672 4.71144 7.446648
v 4.883085 5.410571 7.30137
v 6.00305 5.63596 8.982088
v 7.293777 5.933039 2.523953
v 8.53723 6.178985 5.355996
v 8.419603 6.16688 2.577719
vt 6.182076 4.08752
vt 9.015596 -2.458665
vt 3.148669 -7.487275
vt -2.720215 8.978698
vt 1.579557 -9.440718
vt -0.9944732 -11.31502
vt -7.78223 -10.39783
vt -10.87328 0.3787358
vt -13.09362 -4.478755
vt -13.09362 0.2062839
vt 2.547171 36.27712
vt 3.449857 -0.5897697
vt -6.707623 -0.5897697
vt -1.99381 37.05935
vt 3.051742 34.05442
vt -6.458394 -0.219489
vt 3.947238 33.75727
vt 2.481865 -0.6032096
vt -5.245214 -0.6032096
vt -8.481788 -0.01213319
vt -5.635826 33.41651
vt 1.348116 36.7056
vt -2.926966 32.30042
vt 2.595006 28.44925
vt -2.646899 4.735728
vt 11.93814 9.850688
vt 3.271558 1.072183
vt 6.769063 8.802711
vt -1.295453 -0.8913942
vt 5.229008 36.64891
vt 5.837665 -0.8913942
vt -4.544069 9.528067
vt -5.028747 -0.0306438
vt -8.854264 9.546828
vt 3.865477 -1.670678
vt 10.47773 5.840364
vt 6.37108 -1.670678
vt 3.819687 32.82448
vt 3.876321 -0.7250446
vt -4.065009 28.4719
vt 3.99686 33.75713
vt 9.375425 6.720835
vt 2.557973 -0.6044639
vt 10.96504 6.901149
vt 7.464396 -0.8279576
vt 4.280273 -0.8279576
vt 10.59414 7.206613
vt 3.882071 -0.4987998
vt 8.329132 6.815843
vt 5.149009 27.94919
vt 7.763152 4.930067
vt 2.560717 3.801533
vt 3.450214 3.021434
vt -6.522179 11.98805
vt 0.3320641 12.85198
vt 4.644434 -2.24807
vt -7.20596 -2.24807
vt -10.61717 7.319193
vt 5.411353 4.721743
vt -2.541403 4.721743
vt -4.147727 14.12774
vt -3.112265 -0.4989757
vt -1.028472 36.32005
vt 4.365427 36.86313
vt -6.406104 19.93617
vt -3.721737 25.15933
vt 1.616984 24.21745
vt 6.801026 18.49738
vt -4.845911 13.38717
vt 1.878977 10.95504
vt -12.83627 10.6233
vt -11.09751 10.22306
vt -10.87869 0.06821129
vt -13.32062 9.947823
vt -10.8113 -0.4898671
vt -13.03833 -0.4898671
vt 3.45625 26.34497
vt -1.198159 5.711075
vt -3.546302 27.79537
vt 5.906862 -0.09859665
vt -9.580652 9.098474
vt -2.402734 28.99567
vt 1.875201 6.213317
vt -6.416912 5.380908
vt -1.887829 28.10097
vt 7.356668 13.90732
vt 6.319807 4.421643
vt -0.5296367 4.421643
vt 0.2062839 -0.05918465
vt -4.478755 -0.05918465
vt -3.995473 9.499597
vt 12.85965 5.473101
vt 11.59018 3.557014
vt 11.47637 8.879228
vt 14.11801 10.59503
vt 4.152936 12.85658
vt 8.582813 14.72887
vt 4.273562 14.63672
vn 0 -1 0
vn 0 -1 0
vn 0 -1 0
vn 0 -1 0
vn 0 -1 0
vn 0 -1 0
vn 0 -1 0
vn 0 -1 0
vn 0 -1 0
vn 0 -1 0
vn -0.4795842 0.08991355 -0.8728772
vn -0.4795842 0.08991355 -0.8728772
vn -0.4795842 0.08991355 -0.8728772
vn -0.5151688 0.03249812 0.8564724
vn -0.5151688 0.03249812 0.8564724
vn -0.5151688 0.03249812 0.8564724
vn -0.6487951 0.07799517 0.7569556
vn -0.6487951 0.07799517 0.7569556
vn -0.6487951 0.07799517 0.7569556
vn -0.7413204 0.003026131 -0.6711445
vn -0.7413204 0.003026131 -0.6711445
vn -0.7413204 0.003026131 -0.6711445
vn 0.406222 0.2094879 0.8894371
vn 0.406222 0.2094879 0.8894371
vn 0.406222 0.2094879 0.8894371
vn -0.2020868 -0.0985707 0.9743945
vn -0.2020868 -0.0985707 0.9743945
vn -0.2020868 -0.0985707 0.9743945
vn -0.9108442 0.1221573 -0.3942595
vn -0.9108442 0.1221573 -0.3942595
vn -0.9108442 0.1221573 -0.3942595
vn 0.9991016 0.00237689 -0.04231073
vn 0.9991016 0.00237689 -0.04231073
vn 0.9991016 0.00237689 -0.04231073
vn -0.758009 0.2338696 0.6088739
vn -0.758009 0.2338696 0.6088739
vn -0.758009 0.2338696 0.6088739
vn 0.6570916 0.08486545 -0.7490183
vn 0.6570916 0.08486545 -0.7490183
vn 0.6570916 0.08486545 -0.7490183
vn -0.6562029 0.07840918 0.7504997
vn -0.6562029 0.07840918 0.7504997
vn -0.6562029 0.07840918 0.7504997
vn -0.5858808 0.09670567 0.8046066
vn -0.5858808 0.09670567 0.8046066
vn -0.5858808 0.09670567 0.8046066
vn -0.5499501 0.05700972 0.8332495
vn -0.5499501 0.05700972 0.8332495
vn -0.5499501 0.05700972 0.8332495
vn -0.01658631 0.2792042 0.9600885
vn -0.01658631 0.2792042 0.9600885
vn -0.01658631 0.2792042 0.9600885
vn 0.8140927 -0.2254562 0.5351847
vn 0.8140927 -0.2254562 0.5351847
vn 0.8140927 -0.2254562 0.5351847
vn 0.6975669 0.2757884 -0.6613178
vn 0.6975669 0.2757884 -0.6613178
vn 0.6975669 0.2757884 -0.6613178
vn 0.691245 -0.3707243 0.6202773
vn 0.691245 -0.3707243 0.6202773
vn 0.691245 -0.3707243 0.6202773
vn -0.9859239 0.0741856 -0.1498355
vn -0.9859239 0.0741856 -0.1498355
vn -0.9859239 0.0741856 -0.1498355
vn 0.5750052 0.8181497 0
vn 0.5750052 0.8181497 0
vn 0.5750052 0.8181497 0
vn 0.5750052 0.8181497 0
vn 0.5750052 0.8181497 0
vn 0.5750052 0.8181497 0
vn -0.04489943 0.4241339 -0.9044858
vn -0.04489943 0.4241339 -0.9044858
vn -0.04489943 0.4241339 -0.9044858
vn 0.07091475 0.401668 -0.9130355
vn 0.07091475 0.401668 -0.9130355
vn 0.07091475 0.401668 -0.9130355
vn 0.9381936 0.2651445 0.2224662
vn 0.9381936 0.2651445 0.2224662
vn 0.9381936 0.2651445 0.2224662
vn 0.827755 0.01352728 -0.5609266
vn 0.827755 0.01352728 -0.5609266
vn 0.827755 0.01352728 -0.5609266
vn 0.8581479 0.2313476 0.4583234
vn 0.8581479 0.2313476 0.4583234
vn 0.8581479 0.2313476 0.4583234
vn 0.12332 -0.3896997 0.9126479
vn 0.12332 -0.3896997 0.9126479
vn 0.12332 -0.3896997 0.9126479
vn 0.9999899 0.004520115 0
vn 0.9999899 0.004520115 0
vn 0.9999899 0.004520115 0
vn -0.2035632 0.9790522 0.004352934
vn -0.2035632 0.9790522 0.004352934
vn -0.2035632 0.9790522 0.004352934
vn -0.2035632 0.9790522 0.004352934
vn -0.2035632 0.9790522 0.004352934
vn -0.2035632 0.9790522 0.004352934
vn -0.2035632 0.9790522 0.004352934
g Rock_Chunk_04_0
f 3/3/3 2/2/2 1/1/1
f 1/1/1 4/4/4 3/3/3
f 4/4/4 5/5/5 3/3/3
f 4/4/4 6/6/6 5/5/5
f 4/4/4 7/7/7 6/6/6
f 4/4/4 8/8/8 7/7/7
f 8/8/8 9/9/9 7/7/7
f 8/8/8 10/10/10 9/9/9
f 13/13/13 12/12/12 11/11/11
f 16/16/16 15/15/15 14/14/14
f 19/19/19 18/18/18 17/17/17
f 22/22/22 21/21/21 20/20/20
f 25/25/25 24/24/24 23/23/23
f 28/28/28 27/27/27 26/26/26
f 31/31/31 30/30/30 29/29/29
f 34/34/34 33/33/33 32/32/32
f 37/37/37 36/36/36 35/35/35
f 40/40/40 39/39/39 38/38/38
f 43/43/43 42/42/42 41/41/41
f 46/46/46 45/45/45 44/44/44
f 49/49/49 48/48/48 47/47/47
f 52/52/52 51/51/51 50/50/50
f 55/55/55 54/54/54 53/53/53
f 58/58/58 57/57/57 56/56/56
f 61/61/61 60/60/60 59/59/59
f 64/64/64 63/63/63 62/62/62
f 67/67/67 66/66/66 65/65/65
f 65/65/65 68/68/68 67/67/67
f 65/65/65 69/69/69 68/68/68
f 69/69/69 70/70/70 68/68/68
f 73/73/73 72/72/72 71/71/71
f 76/76/76 75/75/75 74/74/74
f 79/79/79 78/78/78 77/77/77
f 82/82/82 81/81/81 80/80/80
f 85/85/85 84/84/84 83/83/83
f 88/88/88 87/87/87 86/86/86
f 91/91/91 90/90/90 89/89/89
f 94/94/94 93/93/93 92/92/92
f 92/92/92 95/95/95 94/94/94
f 95/95/95 96/96/96 94/94/94
f 95/95/95 97/97/97 96/96/96
f 97/97/97 98/98/98 96/96/96
