g Rock_Small_03
v 0.6361802 5.106441 0.2597202
v 0.2549526 4.374185 2.799271
v -2.704192 4.690313 2.167977
v 4.219537 4.690313 -1.003564
v 0.6361802 5.106441 0.2597202
v 4.144032 4.690313 -1.039013
v 0.6361802 5.106441 0.2597202
v -0.1833165 4.690313 -3.070644
v 0.6361802 5.106441 0.2597202
v -2.704192 4.690313 2.167977
v -4.229466 3.961282 -0.05535288
v 4.219537 4.690313 -1.003564
v 3.059186 3.696767 1.843639
v 0.6361802 5.106441 0.2597202
v -0.1833165 4.690313 -3.070644
v -4.229466 3.961282 -0.05535288
v -4.229466 1.032256 -0.05535288
v 4.219537 4.690313 -1.003564
v 5.440172 1.032256 0.35244
v 3.059186 3.696767 1.843639
v 5.440172 1.032256 0.35244
v 3.9595 1.032256 -3.217159
v -0.3548573 0 0.2885971
v 3.059186 3.696767 1.843639
v 0.2549526 4.374185 2.799271
v 0.6361802 5.106441 0.2597202
v -2.704192 4.690313 2.167977
v 0.2549526 4.374185 2.799271
v 1.843318 1.032256 3.778955
v 3.9595 1.032256 -3.217159
v 5.440172 1.032256 0.35244
v 4.219537 4.690313 -1.003564
v -0.1833165 4.690313 -3.070644
v 3.9595 1.032256 -3.217159
v 4.219537 4.690313 -1.003564
v 4.144032 4.690313 -1.039013
v -0.1833165 4.690313 -3.070644
v -1.667921 1.032256 -3.436541
v 3.9595 1.032256 -3.217159
v -4.229466 1.032256 -0.05535288
v -4.229466 3.961282 -0.05535288
v -2.704192 4.690313 2.167977
v -0.3548573 0 0.2885971
v -1.667921 1.032256 -3.436541
v -4.229466 1.032256 -0.05535288
v -4.229466 1.032256 -0.05535288
v -2.704192 4.690313 2.167977
v -2.529186 1.032256 3.65773
v 3.9595 1.032256 -3.217159
v -1.667921 1.032256 -3.436541
v -0.3548573 0 0.2885971
v 3.059186 3.696767 1.843639
v 5.440172 1.032256 0.35244
v 1.843318 1.032256 3.778955
v -2.704192 4.690313 2.167977
v 1.843318 1.032256 3.778955
v -2.529186 1.032256 3.65773
v 0.2549526 4.374185 2.799271
v 3.059186 3.696767 1.843639
v 1.843318 1.032256 3.778955
v 1.843318 1.032256 3.778955
v -0.3548573 0 0.2885971
v -2.529186 1.032256 3.65773
v 0.6361802 5.106441 0.2597202
v -4.229466 3.961282 -0.05535288
v -0.1833165 4.690313 -3.070644
v -1.667921 1.032256 -3.436541
v -0.1833165 4.690313 -3.070644
v -4.229466 1.032256 -0.05535288
v -0.3548573 0 0.2885971
v -4.229466 1.032256 -0.05535288
v -2.529186 1.032256 3.65773
v 5.440172 1.032256 0.35244
v -0.3548573 0 0.2885971
v 1.843318 1.032256 3.778955
vt 0.9160479 1.740983
vt -0.2480817 -2.231012
vt -4.640663 -0.5162297
vt -5.259225 -3.016461
vt -1.063686 1.166471
vt -5.129936 -3.016461
vt -1.063686 1.166471
vt 2.279902 -3.016461
vt -0.287326 3.147644
vt 5.225485 0.7852394
vt 3.955538 -3.353547
vt 6.403356 1.655652
vt 2.583257 -1.58307
vt 0.6362566 3.01213
vt -2.616194 7.27
vt 5.205305 6.14
vt 5.205305 1.6
vt 4.705271 4.494215
vt 3.88004 -1.787912
vt -0.003355121 2.787958
vt -3.735394 7.745449
vt 2.254606 7.745449
vt -0.2024479 -0.6670452
vt 1.2088 -2.298251
vt -2.864579 0.06750838
vt 0.3900021 2.624781
vt -3.483667 6.335162
vt 1.205224 5.835611
vt 3.909116 0.5546501
vt 2.254606 0.33575
vt -3.735394 0.33575
vt -1.069069 6.083518
vt 2.279902 4.531741
vt -3.436235 -1.852643
vt -5.259225 4.531741
vt -5.129936 4.531741
vt 0.4693315 6.846581
vt 2.790819 1.156547
vt -5.938326 1.156547
vt -3.779341 1.6
vt -3.779341 6.14
vt 0.3998239 7.27
vt 0.6887015 0.1606061
vt -2.684648 5.514255
vt 3.890352 5.514255
vt -2.807409 0.8464353
vt 1.310182 6.561308
vt 3.522591 0.8464353
vt -5.938326 5.460048
vt 2.790819 5.460048
vt 0.5321869 -0.4509267
vt 1.462159 4.503251
vt 5.728539 0.2821906
vt -1.971461 0.2821906
vt -4.096768 5.429863
vt 3.018381 -0.68914
vt -3.761619 -0.68914
vt -1.471079 4.412132
vt 3.094783 3.253627
vt 0.1210999 -1.303159
vt 3.018381 5.991989
vt -0.5374216 0.4427606
vt -3.761619 5.991989
vt 0.1071398 2.883081
vt 1.772429 -4.699411
vt -4.484665 0.1277529
vt -2.684648 -0.3976248
vt -3.622162 5.675831
vt 3.890352 -0.3976248
vt 0.1777129 0.6563971
vt -2.807409 6.133729
vt 3.522591 6.133729
vt 5.728539 6.414475
vt -0.7067909 -0.05377693
vt -1.971461 6.414475
vn 0.2047463 0.9196593 0.3351204
vn 0.1834068 0.9368842 0.2976744
vn 0.04208012 0.958304 0.2826352
vn 0.06553112 0.98804 -0.1395805
vn 0.06553112 0.98804 -0.1395805
vn 0.06553112 0.98804 -0.1395805
vn -0.126126 0.984015 -0.1257245
vn -0.0804057 0.9913135 -0.1040791
vn -0.126126 0.984015 -0.1257245
vn -0.2155637 0.9620064 -0.1675588
vn -0.2203339 0.9683765 -0.1170468
vn 0.2456825 0.8797178 0.4071078
vn 0.2838834 0.8896996 0.3575537
vn 0.2047463 0.9196593 0.3351204
vn -0.5975466 0 -0.8018342
vn -0.5975466 0 -0.8018342
vn -0.5975466 0 -0.8018342
vn 0.773314 0.430563 0.4654042
vn 0.7351032 0.3234209 0.5958374
vn 0.7351032 0.3234209 0.5958374
vn 0.1745441 -0.9831926 0.05354241
vn 0.09389776 -0.9804139 -0.1731237
vn -0.02679092 -0.9995777 0.01125799
vn 0.2838834 0.8896996 0.3575537
vn 0.1834068 0.9368842 0.2976744
vn 0.2047463 0.9196593 0.3351204
vn -0.1059943 0.2874478 0.9519132
vn -0.1847241 0.1946032 0.963331
vn -0.1059943 0.2874478 0.9519132
vn 0.9111901 0.1639427 -0.3779624
vn 0.9111901 0.1639427 -0.3779624
vn 0.9111901 0.1639427 -0.3779624
vn 0.3774268 0.4596417 -0.8039145
vn 0.3774268 0.4596417 -0.8039145
vn 0.3774268 0.4596417 -0.8039145
vn 0.3774268 0.4596417 -0.8039145
vn 0.0388177 0.08384307 -0.9957225
vn 0.0388177 0.08384307 -0.9957225
vn 0.0388177 0.08384307 -0.9957225
vn -0.8682293 0.06288856 0.4921617
vn -0.8246069 0 0.5657062
vn -0.8682293 0.06288856 0.4921617
vn -0.02679092 -0.9995777 0.01125799
vn -0.1148474 -0.9669876 -0.2274753
vn -0.2548535 -0.9665213 -0.02977091
vn -0.8682293 0.06288856 0.4921617
vn -0.8682293 0.06288856 0.4921617
vn -0.9020695 0.1250685 0.413072
vn 0.09389776 -0.9804139 -0.1731237
vn -0.1148474 -0.9669876 -0.2274753
vn -0.02679092 -0.9995777 0.01125799
vn 0.7351032 0.3234209 0.5958374
vn 0.7351032 0.3234209 0.5958374
vn 0.6748744 0.2065917 0.7084239
vn -0.1059943 0.2874478 0.9519132
vn -0.1059943 0.2874478 0.9519132
vn -0.02568007 0.3759954 0.9262657
vn 0.3821428 0.4225479 0.8218395
vn 0.3821428 0.4225479 0.8218395
vn 0.3821428 0.4225479 0.8218395
vn 0.0817645 -0.9685615 0.2349532
vn -0.02679092 -0.9995777 0.01125799
vn -0.1384293 -0.9684183 0.2073722
vn -0.126126 0.984015 -0.1257245
vn -0.2203339 0.9683765 -0.1170468
vn -0.0804057 0.9913135 -0.1040791
vn -0.7441376 0.3583935 -0.5637493
vn -0.7441376 0.3583935 -0.5637493
vn -0.7441376 0.3583935 -0.5637493
vn -0.02679092 -0.9995777 0.01125799
vn -0.2548535 -0.9665213 -0.02977091
vn -0.1384293 -0.9684183 0.2073722
vn 0.1745441 -0.9831926 0.05354241
vn -0.02679092 -0.9995777 0.01125799
vn 0.0817645 -0.9685615 0.2349532
g Rock_Small_03_0
f 3/3/3 2/2/2 1/1/1
f 6/6/6 5/5/5 4/4/4
f 8/8/8 7/7/7 6/6/6
f 11/11/11 10/10/10 9/9/9
f 14/14/14 13/13/13 12/12/12
f 17/17/17 16/16/16 15/15/15
f 20/20/20 19/19/19 18/18/18
f 23/23/23 22/22/22 21/21/21
f 26/26/26 25/25/25 24/24/24
f 29/29/29 28/28/28 27/27/27
f 32/32/32 31/31/31 30/30/30
f 35/35/35 34/34/34 33/33/33
f 33/33/33 36/36/36 35/35/35
f 39/39/39 38/38/38 37/37/37
f 42/42/42 41/41/41 40/40/40
f 45/45/45 44/44/44 43/43/43
f 48/48/48 47/47/47 46/46/46
f 51/51/51 50/50/50 49/49/49
f 54/54/54 53/53/53 52/52/52
f 57/57/57 56/56/56 55/55/55
f 60/60/60 59/59/59 58/58/58
f 63/63/63 62/62/62 61/61/61
f 66/66/66 65/65/65 64/64/64
f 69/69/69 68/68/68 67/67/67
f 72/72/72 71/71/71 70/70/70
f 75/75/75 74/74/74 73/73/73
