g Rock_Chunk_Small_04
v 5.534089 0 -0.1820868
v 4.004657 0 3.251923
v 2.095634 5.08 1.919344
v 2.86035 5.08 0.2023394
v -1.005054 5.08 -1.865744
v -2.487129 5.08 0.2023394
v -5.160868 0 -0.1820868
v -2.196718 0 -4.318254
v -0.3667468 5.08 3.039275
v -0.9201042 0 5.491786
v -5.160868 0 -0.1820868
v -2.487129 5.08 0.2023394
v 2.095634 5.08 1.919344
v 4.004657 0 3.251923
v -0.9201042 0 5.491786
v -0.3667468 5.08 3.039275
v -2.196718 0 -4.318254
v -5.160868 0 -0.1820868
v -0.9201042 0 5.491786
v 2.832482 0 -4.318254
v 4.004657 0 3.251923
v 5.534089 0 -0.1820868
v -1.005054 5.08 -1.865744
v -2.196718 0 -4.318254
v 2.832482 0 -4.318254
v 1.509546 5.08 -1.865744
v -0.3667468 5.08 3.039275
v -2.487129 5.08 0.2023394
v -1.005054 5.08 -1.865744
v 1.509546 5.08 -1.865744
v 2.095634 5.08 1.919344
v 2.86035 5.08 0.2023394
v 5.534089 0 -0.1820868
v 2.86035 5.08 0.2023394
v 1.509546 5.08 -1.865744
v 2.832482 0 -4.318254
vt 3.747724 -3.168475
vt -2.079048 -3.168475
vt -1.39609 5.466084
vt 1.517295 5.466084
vt -1.443173 5.861679
vt 2.500516 5.861679
vt 4.430264 -2.845015
vt -3.457115 -2.845015
vt 3.433055 6.215984
vt 5.964452 -2.197008
vt -5.015097 -2.197008
vt -2.05672 6.215984
vt 1.725119 5.838144
vt 3.563479 -2.626044
vt -4.822348 -2.626044
vt -2.467794 5.838144
vt 3.40492 6.693307
vt 7.999362 0.282235
vt 1.426164 -8.512284
vt -4.390356 6.693307
vt -6.207232 -5.040491
vt -8.577856 0.282235
vt 1.557836 5.83361
vt 3.40492 -2.910002
vt -4.390356 -2.910002
vt -2.339802 5.83361
vt -0.5684587 -4.710886
vt -3.855057 -0.3136268
vt -1.557836 2.89191
vt 2.339802 2.89191
vt 3.24824 -2.97499
vt 4.433551 -0.3136268
vt -4.454512 -3.185453
vt -2.687069 5.555632
vt 1.141671 5.555632
vt 3.202968 -3.185453
vn 0.8330329 0.4103712 0.3710144
vn 0.8330329 0.4103712 0.3710144
vn 0.8330329 0.4103712 0.3710144
vn 0.8330329 0.4103712 0.3710144
vn -0.7350909 0.426763 -0.5267968
vn -0.7350909 0.426763 -0.5267968
vn -0.7350909 0.426763 -0.5267968
vn -0.7350909 0.426763 -0.5267968
vn -0.7496757 0.3521722 0.5603223
vn -0.7496757 0.3521722 0.5603223
vn -0.7496757 0.3521722 0.5603223
vn -0.7496757 0.3521722 0.5603223
vn 0.3851403 0.3668651 0.8468039
vn 0.3851403 0.3668651 0.8468039
vn 0.3851403 0.3668651 0.8468039
vn 0.3851403 0.3668651 0.8468039
vn 0 -1 0
vn 0 -1 0
vn 0 -1 0
vn 0 -1 0
vn 0 -1 0
vn 0 -1 0
vn 0 0.4347629 -0.900545
vn 0 0.4347629 -0.900545
vn 0 0.4347629 -0.900545
vn 0 0.4347629 -0.900545
vn 0 1 0
vn 0 1 0
vn 0 1 0
vn 0 1 0
vn 0 1 0
vn 0 1 0
vn 0.7541812 0.4342234 -0.4926061
vn 0.7541812 0.4342234 -0.4926061
vn 0.7541812 0.4342234 -0.4926061
vn 0.7541812 0.4342234 -0.4926061
g Rock_Chunk_Small_04_0
f 3/3/3 2/2/2 1/1/1
f 1/1/1 4/4/4 3/3/3
f 7/7/7 6/6/6 5/5/5
f 5/5/5 8/8/8 7/7/7
f 11/11/11 10/10/10 9/9/9
f 9/9/9 12/12/12 11/11/11
f 15/15/15 14/14/14 13/13/13
f 13/13/13 16/16/16 15/15/15
f 19/19/19 18/18/18 17/17/17
f 17/17/17 20/20/20 19/19/19
f 20/20/20 21/21/21 19/19/19
f 20/20/20 22/22/22 21/21/21
f 25/25/25 24/24/24 23/23/23
f 23/23/23 26/26/26 25/25/25
f 29/29/29 28/28/28 27/27/27
f 27/27/27 30/30/30 29/29/29
f 27/27/27 31/31/31 30/30/30
f 31/31/31 32/32/32 30/30/30
f 35/35/35 34/34/34 33/33/33
f 33/33/33 36/36/36 35/35/35
