g Rock_Chunk_Small_05
v -2.21613 2.54 -1.40999
v -4.939805 0 -2.085847
v -2.398511 0 -5.002707
v -0.742179 2.54 -3.101769
v 1.122619 2.54 0.007918446
v 0.4591809 3.556 0.1816196
v 0.1420393 3.556 -0.2366258
v 0.4883353 2.54 -0.8285724
v -2.398511 0 -5.002707
v -4.939805 0 -2.085847
v -4.67424 0 1.77365
v -1.75738 0 4.314944
v 1.460986 0 -5.268272
v 2.102118 0 4.049379
v 4.377846 0 -2.726978
v 4.643412 0 1.132519
v 1.122619 2.54 0.007918446
v 0.9796363 2.54 1.047913
v 0.3876897 3.556 0.7016167
v 0.4591809 3.556 0.1816196
v -0.3779579 3.556 -0.308117
v -0.551659 2.54 -0.9715546
v 0.4883353 2.54 -0.8285724
v 0.1420393 3.556 -0.2366258
v -0.370323 2.54 2.302469
v -2.062102 2.54 0.8285184
v -1.531132 2.54 0.7027229
v -0.8968489 2.54 1.539214
v 0.1431455 2.54 1.682196
v 1.868186 2.54 2.148441
v 0.9796363 2.54 1.047913
v 1.122619 2.54 0.007918446
v 1.496329 2.54 -3.255797
v 3.188108 2.54 -1.781846
v 3.342136 2.54 0.4566623
v -1.38815 2.54 -0.3372714
v -0.742179 2.54 -3.101769
v -2.21613 2.54 -1.40999
v -0.551659 2.54 -0.9715546
v 0.4883353 2.54 -0.8285724
v 0.3876897 3.556 0.7016167
v 0.9796363 2.54 1.047913
v 0.1431455 2.54 1.682196
v -0.03055564 3.556 1.018758
v 4.377846 0 -2.726978
v 4.643412 0 1.132519
v 3.342136 2.54 0.4566623
v 3.188108 2.54 -1.781846
v -0.742179 2.54 -3.101769
v -2.398511 0 -5.002707
v 1.460986 0 -5.268272
v 1.496329 2.54 -3.255797
v -0.8676944 3.556 0.5290218
v -1.531132 2.54 0.7027229
v -1.38815 2.54 -0.3372714
v -0.7962033 3.556 0.009024639
v 4.643412 0 1.132519
v 2.102118 0 4.049379
v 1.868186 2.54 2.148441
v 3.342136 2.54 0.4566623
v 1.496329 2.54 -3.255797
v 1.460986 0 -5.268272
v 4.377846 0 -2.726978
v 3.188108 2.54 -1.781846
v -0.7962033 3.556 0.009024639
v -1.38815 2.54 -0.3372714
v -0.551659 2.54 -0.9715546
v -0.3779579 3.556 -0.308117
v -4.67424 0 1.77365
v -4.939805 0 -2.085847
v -2.21613 2.54 -1.40999
v -2.062102 2.54 0.8285184
v -0.5505528 3.556 0.9472672
v -0.8968489 2.54 1.539214
v -1.531132 2.54 0.7027229
v -0.8676944 3.556 0.5290218
v -0.03055564 3.556 1.018758
v 0.1431455 2.54 1.682196
v -0.8968489 2.54 1.539214
v -0.5505528 3.556 0.9472672
v 1.868186 2.54 2.148441
v 2.102118 0 4.049379
v -1.75738 0 4.314944
v -0.370323 2.54 2.302469
v -0.5505528 3.556 0.9472672
v -0.8676944 3.556 0.5290218
v -0.7962033 3.556 0.009024639
v -0.3779579 3.556 -0.308117
v -0.03055564 3.556 1.018758
v 0.1420393 3.556 -0.2366258
v 0.3876897 3.556 0.7016167
v 0.4591809 3.556 0.1816196
v -1.75738 0 4.314944
v -4.67424 0 1.77365
v -2.062102 2.54 0.8285184
v -0.370323 2.54 2.302469
vt 0.6086399 -0.01519007
vt 2.59202 -5.536644
vt -3.404358 -5.536644
vt -2.869259 -0.01519007
vt -1.061139 2.610883
vt -0.6543492 4.466814
vt 0.1592297 4.466814
vt 0.5660192 2.610883
vt 3.7177 7.754211
vt 7.656713 3.23307
vt 7.245086 -2.749164
vt 2.723944 -6.688177
vt -2.264534 8.165838
vt -3.258289 -6.27655
vt -6.785676 4.226825
vt -7.197302 -1.755408
vt 0.2248417 2.42758
vt -1.402316 2.42758
vt -0.9955267 4.283511
vt -0.1819478 4.283511
vt 0.6454244 4.46877
vt 1.052214 2.612839
vt -0.574944 2.612839
vt -0.1681545 4.46877
vt -0.5740018 -3.568834
vt -3.196264 -1.284206
vt -2.37326 -1.089223
vt -1.390118 -2.385786
vt 0.2218759 -2.607409
vt 2.895694 -3.33009
vt 1.518439 -1.624268
vt 1.740062 -0.01227362
vt 2.319315 5.046495
vt 4.941578 2.761867
vt 5.180321 -0.707828
vt -2.151637 0.5227717
vt -1.15038 4.807752
vt -3.435008 2.185489
vt -0.8550732 1.505913
vt 0.7569213 1.28429
vt -0.178251 4.026238
vt 0.2285385 2.170307
vt -1.398619 2.170307
vt -0.99183 4.026238
vt 3.751045 -3.120919
vt -2.245333 -3.120919
vt -1.061766 1.268254
vt 2.416133 1.268254
vt 0.8176336 0.06166206
vt 3.176635 -4.959085
vt -2.819743 -4.959085
vt -2.660266 0.06166206
vt 0.9955267 4.030961
vt 1.402316 2.17503
vt -0.2248417 2.17503
vt 0.1819478 4.030961
vt 3.404358 -3.219532
vt -2.59202 -3.219532
vt -0.6086399 1.294816
vt 2.869259 1.294816
vt 1.566322 0.6917256
vt 3.656719 -3.875941
vt -2.339659 -3.875941
vt -1.911577 0.6917256
vt 0.99183 4.288234
vt 1.398619 2.432303
vt -0.2285385 2.432303
vt 0.178251 4.288234
vt 2.245333 -5.374413
vt -3.751045 -5.374413
vt -2.416133 0.3385775
vt 1.061766 0.3385775
vt 0.6543492 3.847658
vt 1.061139 1.991727
vt -0.5660192 1.991727
vt -0.1592297 3.847658
vt 0.1681545 3.845702
vt 0.574944 1.989771
vt -1.052214 1.989771
vt -0.6454244 3.845702
vt 2.660266 1.027207
vt 2.819743 -3.901048
vt -3.176635 -3.901048
vt -0.8176336 1.027207
vt -0.8533586 -1.468267
vt -1.344929 -0.8199854
vt -1.234118 -0.01398822
vt -0.5858359 0.4775823
vt -0.04736133 -1.579079
vt 0.2201613 0.3667708
vt 0.6009203 -1.087508
vt 0.7117319 -0.2815109
vt 2.339659 -4.72144
vt -3.656719 -4.72144
vt -1.566322 0.7255159
vt 1.911577 0.7255159
vn -0.5376157 0.7011252 -0.4683939
vn -0.5376157 0.7011252 -0.4683939
vn -0.5376157 0.7011252 -0.4683939
vn -0.5376157 0.7011252 -0.4683939
vn 0.6761274 0.5291558 -0.512685
vn 0.6761274 0.5291558 -0.512685
vn 0.6761274 0.5291558 -0.512685
vn 0.6761274 0.5291558 -0.512685
vn 0 -1 0
vn 0 -1 0
vn 0 -1 0
vn 0 -1 0
vn 0 -1 0
vn 0 -1 0
vn 0 -1 0
vn 0 -1 0
vn 0.8406173 0.5291559 0.1155712
vn 0.8406173 0.5291559 0.1155712
vn 0.8406173 0.5291559 0.1155712
vn 0.8406173 0.5291559 0.1155712
vn 0.1155712 0.5291559 -0.8406173
vn 0.1155712 0.5291559 -0.8406173
vn 0.1155712 0.5291559 -0.8406173
vn 0.1155712 0.5291559 -0.8406173
vn 0 1 0
vn 0 1 0
vn 0 1 0
vn 0 1 0
vn 0 1 0
vn 0 1 0
vn 0 1 0
vn 0 1 0
vn 0 1 0
vn 0 1 0
vn 0 1 0
vn 0 1 0
vn 0 1 0
vn 0 1 0
vn 0 1 0
vn 0 1 0
vn 0.512685 0.5291558 0.6761274
vn 0.512685 0.5291558 0.6761274
vn 0.512685 0.5291558 0.6761274
vn 0.512685 0.5291558 0.6761274
vn 0.8948658 0.4420676 -0.06157414
vn 0.8948658 0.4420676 -0.06157414
vn 0.8948658 0.4420676 -0.06157414
vn 0.8948658 0.4420676 -0.06157414
vn -0.05382855 0.6205742 -0.7822981
vn -0.05382855 0.6205742 -0.7822981
vn -0.05382855 0.6205742 -0.7822981
vn -0.05382855 0.6205742 -0.7822981
vn -0.8406173 0.5291559 -0.1155712
vn -0.8406173 0.5291559 -0.1155712
vn -0.8406173 0.5291559 -0.1155712
vn -0.8406173 0.5291559 -0.1155712
vn 0.6575524 0.4893099 0.572888
vn 0.6575524 0.4893099 0.572888
vn 0.6575524 0.4893099 0.572888
vn 0.6575524 0.4893099 0.572888
vn 0.5662006 0.5070275 -0.6498768
vn 0.5662006 0.5070275 -0.6498768
vn 0.5662006 0.5070275 -0.6498768
vn 0.5662006 0.5070275 -0.6498768
vn -0.512685 0.5291558 -0.6761274
vn -0.512685 0.5291558 -0.6761274
vn -0.512685 0.5291558 -0.6761274
vn -0.512685 0.5291558 -0.6761274
vn -0.687507 0.7246353 0.04730614
vn -0.687507 0.7246353 0.04730614
vn -0.687507 0.7246353 0.04730614
vn -0.687507 0.7246353 0.04730614
vn -0.6761274 0.5291558 0.512685
vn -0.6761274 0.5291558 0.512685
vn -0.6761274 0.5291558 0.512685
vn -0.6761274 0.5291558 0.512685
vn -0.1155712 0.5291559 0.8406173
vn -0.1155712 0.5291559 0.8406173
vn -0.1155712 0.5291559 0.8406173
vn -0.1155712 0.5291559 0.8406173
vn 0.05483878 0.6015111 0.79698
vn 0.05483878 0.6015111 0.79698
vn 0.05483878 0.6015111 0.79698
vn 0.05483878 0.6015111 0.79698
vn 0 1 0
vn 0 1 0
vn 0 1 0
vn 0 1 0
vn 0 1 0
vn 0 1 0
vn 0 1 0
vn 0 1 0
vn -0.4748001 0.6910673 0.5449687
vn -0.4748001 0.6910673 0.5449687
vn -0.4748001 0.6910673 0.5449687
vn -0.4748001 0.6910673 0.5449687
g Rock_Chunk_Small_05_0
f 3/3/3 2/2/2 1/1/1
f 1/1/1 4/4/4 3/3/3
f 7/7/7 6/6/6 5/5/5
f 5/5/5 8/8/8 7/7/7
f 11/11/11 10/10/10 9/9/9
f 9/9/9 12/12/12 11/11/11
f 9/9/9 13/13/13 12/12/12
f 13/13/13 14/14/14 12/12/12
f 13/13/13 15/15/15 14/14/14
f 15/15/15 16/16/16 14/14/14
f 19/19/19 18/18/18 17/17/17
f 17/17/17 20/20/20 19/19/19
f 23/23/23 22/22/22 21/21/21
f 21/21/21 24/24/24 23/23/23
f 27/27/27 26/26/26 25/25/25
f 25/25/25 28/28/28 27/27/27
f 25/25/25 29/29/29 28/28/28
f 25/25/25 30/30/30 29/29/29
f 30/30/30 31/31/31 29/29/29
f 30/30/30 32/32/32 31/31/31
f 30/30/30 33/33/33 32/32/32
f 30/30/30 34/34/34 33/33/33
f 30/30/30 35/35/35 34/34/34
f 26/26/26 27/27/27 36/36/36
f 26/26/26 36/36/36 37/37/37
f 37/37/37 38/38/38 26/26/26
f 36/36/36 39/39/39 37/37/37
f 39/39/39 33/33/33 37/37/37
f 39/39/39 40/40/40 33/33/33
f 40/40/40 32/32/32 33/33/33
f 43/43/43 42/42/42 41/41/41
f 41/41/41 44/44/44 43/43/43
f 47/47/47 46/46/46 45/45/45
f 45/45/45 48/48/48 47/47/47
f 51/51/51 50/50/50 49/49/49
f 49/49/49 52/52/52 51/51/51
f 55/55/55 54/54/54 53/53/53
f 53/53/53 56/56/56 55/55/55
f 59/59/59 58/58/58 57/57/57
f 57/57/57 60/60/60 59/59/59
f 63/63/63 62/62/62 61/61/61
f 61/61/61 64/64/64 63/63/63
f 67/67/67 66/66/66 65/65/65
f 65/65/65 68/68/68 67/67/67
f 71/71/71 70/70/70 69/69/69
f 69/69/69 72/72/72 71/71/71
f 75/75/75 74/74/74 73/73/73
f 73/73/73 76/76/76 75/75/75
f 79/79/79 78/78/78 77/77/77
f 77/77/77 80/80/80 79/79/79
f 83/83/83 82/82/82 81/81/81
f 81/81/81 84/84/84 83/83/83
f 87/87/87 86/86/86 85/85/85
f 85/85/85 88/88/88 87/87/87
f 85/85/85 89/89/89 88/88/88
f 89/89/89 90/90/90 88/88/88
f 89/89/89 91/91/91 90/90/90
f 91/91/91 92/92/92 90/90/90
f 95/95/95 94/94/94 93/93/93
f 93/93/93 96/96/96 95/95/95
