g SC_Christmas_Presents_04
v -0.07890676 0.3068647 0.07890664
v -0.07890676 0.3799968 0.07890664
v 0.07890676 0.3799968 0.07890664
v 0.07890676 0.3068647 0.07890664
v -0.07890676 0.3799968 0.07890664
v -0.07890676 0.3799968 -0.07890686
v 0.07890676 0.3799968 -0.07890686
v 0.07890676 0.3799968 0.07890664
v -0.07890676 0.3799968 -0.07890686
v -0.07890676 0.3068647 -0.07890686
v 0.07890676 0.3068647 -0.07890686
v 0.07890676 0.3799968 -0.07890686
v -0.07890676 0.3068647 -0.07890686
v -0.07890676 0.3068647 0.07890664
v 0.07890676 0.3068647 0.07890664
v 0.07890676 0.3068647 -0.07890686
v 0.2992648 0.3446241 0.0943374
v 0.2992648 0.422467 0.0943374
v 0.2992648 0.422467 -0.09433758
v 0.2992648 0.3446241 -0.09433758
v -0.2992648 0.3446241 -0.09433758
v -0.2992648 0.422467 -0.09433758
v -0.2992648 0.422467 0.0943374
v -0.2992648 0.3446241 0.0943374
v 0.07890676 0.3068647 0.07890664
v 0.07890676 0.320156 0.050225
v 0.07890676 0.320156 -0.05022519
v 0.07890676 0.3068647 -0.07890686
v 0.07890676 0.3667055 -0.05022519
v 0.07890676 0.3799968 -0.07890686
v 0.07890676 0.3667055 0.050225
v 0.07890676 0.3799968 0.07890664
v -0.07890676 0.3068647 -0.07890686
v -0.07890676 0.320156 -0.05022519
v -0.07890676 0.320156 0.050225
v -0.07890676 0.3068647 0.07890664
v -0.07890676 0.3667055 0.050225
v -0.07890676 0.3799968 0.07890664
v -0.07890676 0.3667055 -0.05022519
v -0.07890676 0.3799968 -0.07890686
v 0.07890676 0.320156 0.050225
v 0.2992648 0.3446241 0.0943374
v 0.2992648 0.3446241 -0.09433758
v 0.07890676 0.320156 -0.05022519
v 0.07890676 0.320156 -0.05022519
v 0.2992648 0.3446241 -0.09433758
v 0.2992648 0.422467 -0.09433758
v 0.07890676 0.3667055 -0.05022519
v 0.07890676 0.3667055 -0.05022519
v 0.2992648 0.422467 -0.09433758
v 0.2992648 0.422467 0.0943374
v 0.07890676 0.3667055 0.050225
v 0.07890676 0.3667055 0.050225
v 0.2992648 0.422467 0.0943374
v 0.2992648 0.3446241 0.0943374
v 0.07890676 0.320156 0.050225
v -0.07890676 0.320156 -0.05022519
v -0.2992648 0.3446241 -0.09433758
v -0.2992648 0.3446241 0.0943374
v -0.07890676 0.320156 0.050225
v -0.07890676 0.320156 0.050225
v -0.2992648 0.3446241 0.0943374
v -0.2992648 0.422467 0.0943374
v -0.07890676 0.3667055 0.050225
v -0.07890676 0.3667055 0.050225
v -0.2992648 0.422467 0.0943374
v -0.2992648 0.422467 -0.09433758
v -0.07890676 0.3667055 -0.05022519
v -0.07890676 0.3667055 -0.05022519
v -0.2992648 0.422467 -0.09433758
v -0.2992648 0.3446241 -0.09433758
v -0.07890676 0.320156 -0.05022519
v 0.0716852 0 0.358426
v -0.07168519 0 0.358426
v -0.07168519 0.3100191 0.358426
v 0.0716852 0.3100191 0.358426
v -0.07168519 0.3100191 0.0716852
v -0.07168519 0.3100191 -0.07168519
v 0.07168521 0.3100191 -0.0716852
v 0.07168521 0.3100191 0.07168519
v 0.358426 0.3100191 -0.0716852
v 0.358426 0.3100191 0.07168519
v -0.358426 0.3100191 -0.0716852
v -0.358426 0.3100191 0.07168519
v 0.0716852 0.3100191 0.358426
v -0.07168519 0.3100191 0.358426
v -0.07168519 0.3100191 -0.358426
v 0.0716852 0.3100191 -0.358426
v 0.0716852 0.3100191 -0.358426
v -0.07168519 0.3100191 -0.358426
v -0.07168519 0 -0.358426
v 0.0716852 0 -0.358426
v -0.07168521 0 -0.0716852
v -0.0716852 0 0.07168519
v 0.0716852 0 0.0716852
v 0.07168519 0 -0.07168519
v 0.358426 0 -0.07168519
v 0.358426 0 0.0716852
v -0.358426 0 0.0716852
v -0.358426 0 -0.07168519
v -0.07168519 0 0.358426
v 0.0716852 0 0.358426
v 0.0716852 0 -0.358426
v -0.07168519 0 -0.358426
v 0.358426 0 0.0716852
v 0.358426 0.3100191 0.07168519
v 0.358426 0.3100191 -0.0716852
v 0.358426 0 -0.07168519
v -0.358426 0.3100191 -0.0716852
v -0.358426 0.3100191 0.07168519
v -0.358426 0 0.0716852
v -0.358426 0 -0.07168519
v 0.0716852 0.3100191 0.358426
v 0.358426 0.3100191 0.358426
v 0.358426 0 0.358426
v 0.0716852 0 0.358426
v 0.0716852 0 -0.358426
v 0.358426 0 -0.358426
v 0.358426 0.3100191 -0.358426
v 0.0716852 0.3100191 -0.358426
v -0.358426 0 0.358426
v -0.358426 0.3100191 0.358426
v -0.07168519 0.3100191 0.358426
v -0.07168519 0 0.358426
v -0.358426 0.3100191 -0.358426
v -0.358426 0 -0.358426
v -0.07168519 0 -0.358426
v -0.07168519 0.3100191 -0.358426
v -0.358426 0 0.0716852
v -0.358426 0 0.358426
v -0.07168519 0 0.358426
v -0.0716852 0 0.07168519
v -0.358426 0.3100191 0.07168519
v -0.358426 0.3100191 0.358426
v -0.358426 0 0.358426
v -0.358426 0 0.0716852
v -0.358426 0.3100191 0.358426
v -0.358426 0.3100191 0.07168519
v -0.07168519 0.3100191 0.0716852
v -0.07168519 0.3100191 0.358426
v 0.358426 0.3100191 0.07168519
v 0.358426 0.3100191 0.358426
v 0.0716852 0.3100191 0.358426
v 0.07168521 0.3100191 0.07168519
v 0.358426 0 0.358426
v 0.358426 0.3100191 0.358426
v 0.358426 0.3100191 0.07168519
v 0.358426 0 0.0716852
v 0.0716852 0 0.358426
v 0.358426 0 0.358426
v 0.358426 0 0.0716852
v 0.0716852 0 0.0716852
v 0.0716852 0.3100191 -0.358426
v 0.358426 0.3100191 -0.358426
v 0.358426 0.3100191 -0.0716852
v 0.07168521 0.3100191 -0.0716852
v -0.358426 0.3100191 -0.0716852
v -0.358426 0.3100191 -0.358426
v -0.07168519 0.3100191 -0.358426
v -0.07168519 0.3100191 -0.07168519
v -0.358426 0 -0.358426
v -0.358426 0.3100191 -0.358426
v -0.358426 0.3100191 -0.0716852
v -0.358426 0 -0.07168519
v -0.358426 0 -0.358426
v -0.358426 0 -0.07168519
v -0.07168521 0 -0.0716852
v -0.07168519 0 -0.358426
v 0.358426 0 -0.07168519
v 0.358426 0 -0.358426
v 0.0716852 0 -0.358426
v 0.07168519 0 -0.07168519
v 0.358426 0.3100191 -0.0716852
v 0.358426 0.3100191 -0.358426
v 0.358426 0 -0.358426
v 0.358426 0 -0.07168519
vt 0.3281221 0.1681331
vt 0.3281221 0.1681332
vt 0.3281221 0.1681332
vt 0.3281221 0.1681331
vt 0.3585797 0.1681332
vt 0.3585797 0.1681332
vt 0.3585797 0.1681332
vt 0.3585797 0.1681332
vt 0.3281221 0.1681332
vt 0.3281221 0.1681331
vt 0.3281221 0.1681331
vt 0.3281221 0.1681332
vt 0.2647576 0.1681331
vt 0.2647576 0.1681331
vt 0.2647575 0.1681331
vt 0.2647575 0.1681331
vt 0.2983482 0.1681331
vt 0.2983482 0.1681332
vt 0.2983481 0.1681332
vt 0.2983481 0.1681331
vt 0.2983482 0.1681331
vt 0.2983482 0.1681332
vt 0.2983482 0.1681332
vt 0.2983482 0.1681331
vt 0.2983482 0.1681331
vt 0.2983482 0.1681331
vt 0.2983481 0.1681331
vt 0.2983481 0.1681331
vt 0.2983481 0.1681332
vt 0.2983481 0.1681332
vt 0.2983482 0.1681332
vt 0.2983482 0.1681332
vt 0.2983482 0.1681331
vt 0.2983482 0.1681331
vt 0.2983482 0.1681331
vt 0.2983482 0.1681331
vt 0.2983482 0.1681332
vt 0.2983482 0.1681332
vt 0.2983482 0.1681332
vt 0.2983482 0.1681332
vt 0.2983482 0.1681331
vt 0.2983482 0.1681331
vt 0.2983481 0.1681331
vt 0.2983481 0.1681331
vt 0.3280656 0.1681331
vt 0.3280656 0.1681331
vt 0.3280656 0.1681332
vt 0.3280656 0.1681332
vt 0.3577831 0.1681332
vt 0.3577831 0.1681332
vt 0.3577831 0.1681332
vt 0.3577831 0.1681332
vt 0.3280657 0.1681332
vt 0.3280657 0.1681332
vt 0.3280657 0.1681331
vt 0.3280657 0.1681331
vt 0.2983482 0.1681331
vt 0.2983482 0.1681331
vt 0.2983482 0.1681331
vt 0.2983482 0.1681331
vt 0.3280657 0.1681331
vt 0.3280657 0.1681331
vt 0.3280657 0.1681332
vt 0.3280657 0.1681332
vt 0.3577832 0.1681332
vt 0.3577832 0.1681332
vt 0.3577832 0.1681332
vt 0.3577832 0.1681332
vt 0.3280657 0.1681332
vt 0.3280657 0.1681332
vt 0.3280657 0.1681331
vt 0.3280657 0.1681331
vt 0.2676966 0.1671425
vt 0.2676966 0.1671425
vt 0.2676966 0.1671426
vt 0.2676966 0.1671426
vt 0.2981542 0.1671426
vt 0.2981542 0.1671426
vt 0.2981542 0.1671426
vt 0.2981542 0.1671426
vt 0.2981542 0.1671426
vt 0.2981541 0.1671426
vt 0.2981542 0.1671426
vt 0.2981542 0.1671426
vt 0.2981542 0.1671426
vt 0.2981542 0.1671426
vt 0.2981542 0.1671425
vt 0.2981542 0.1671425
vt 0.2676966 0.1671425
vt 0.2676966 0.1671425
vt 0.2676966 0.1671425
vt 0.2676966 0.1671425
vt 0.204332 0.1671425
vt 0.204332 0.1671425
vt 0.204332 0.1671425
vt 0.204332 0.1671425
vt 0.204332 0.1671425
vt 0.204332 0.1671425
vt 0.204332 0.1671425
vt 0.204332 0.1671425
vt 0.204332 0.1671425
vt 0.204332 0.1671425
vt 0.204332 0.1671425
vt 0.204332 0.1671425
vt 0.2379226 0.1671425
vt 0.2379226 0.1671426
vt 0.2379226 0.1671426
vt 0.2379226 0.1671425
vt 0.2379226 0.1671426
vt 0.2379226 0.1671426
vt 0.2379226 0.1671425
vt 0.2379226 0.1671425
vt 0.3327333 0.3546688
vt 0.3327333 0.3546688
vt 0.3327333 0.3546687
vt 0.3327333 0.3546688
vt 0.3327333 0.3546688
vt 0.3327333 0.3546687
vt 0.3327333 0.3546688
vt 0.3327333 0.3546688
vt 0.3327333 0.3546687
vt 0.3327333 0.3546688
vt 0.3327333 0.3546688
vt 0.3327333 0.3546687
vt 0.3327333 0.3546688
vt 0.3327333 0.3546687
vt 0.3327333 0.3546687
vt 0.3327333 0.3546687
vt 0.2693687 0.3546688
vt 0.2693687 0.3546687
vt 0.2693687 0.3546687
vt 0.2693687 0.3546687
vt 0.3029594 0.3546688
vt 0.3029594 0.3546688
vt 0.3029594 0.3546687
vt 0.3029594 0.3546688
vt 0.3631909 0.3546688
vt 0.3631909 0.3546688
vt 0.3631909 0.3546688
vt 0.3631909 0.3546688
vt 0.3631908 0.3546688
vt 0.3631908 0.3546688
vt 0.3631909 0.3546688
vt 0.3631909 0.3546688
vt 0.3029593 0.3546687
vt 0.3029593 0.3546688
vt 0.3029593 0.3546688
vt 0.3029593 0.3546688
vt 0.2693687 0.3546688
vt 0.2693687 0.3546687
vt 0.2693687 0.3546688
vt 0.2693687 0.3546688
vt 0.3631909 0.3546688
vt 0.3631908 0.3546688
vt 0.3631909 0.3546688
vt 0.3631909 0.3546688
vt 0.3631909 0.3546688
vt 0.3631909 0.3546688
vt 0.3631909 0.3546687
vt 0.3631909 0.3546688
vt 0.3029594 0.3546687
vt 0.3029594 0.3546688
vt 0.3029594 0.3546688
vt 0.3029594 0.3546687
vt 0.2693687 0.3546687
vt 0.2693687 0.3546687
vt 0.2693687 0.3546688
vt 0.2693687 0.3546687
vt 0.2693687 0.3546687
vt 0.2693687 0.3546687
vt 0.2693687 0.3546688
vt 0.2693687 0.3546687
vt 0.3029593 0.3546688
vt 0.3029593 0.3546688
vt 0.3029593 0.3546687
vt 0.3029593 0.3546687
vn 0 0 1
vn 0 0 1
vn 0 0 1
vn 0 0 1
vn 0 1 0
vn 0 1 0
vn 0 1 0
vn 0 1 0
vn 0 0 -1
vn 0 0 -1
vn 0 0 -1
vn 0 0 -1
vn 0 -1 0
vn 0 -1 0
vn 0 -1 0
vn 0 -1 0
vn 1 0 0
vn 1 0 0
vn 1 0 0
vn 1 0 0
vn -1 0 0
vn -1 0 0
vn -1 0 0
vn -1 0 0
vn 1 0 0
vn 1 0 0
vn 1 0 0
vn 1 0 0
vn 1 0 0
vn 1 0 0
vn 1 0 0
vn 1 0 0
vn -1 0 0
vn -1 0 0
vn -1 0 0
vn -1 0 0
vn -1 0 0
vn -1 0 0
vn -1 0 0
vn -1 0 0
vn 0.1103598 -0.9938917 0
vn 0.1103598 -0.9938917 0
vn 0.1103598 -0.9938917 0
vn 0.1103598 -0.9938917 0
vn -0.1962906 0 -0.9805458
vn -0.1962906 0 -0.9805458
vn -0.1962906 0 -0.9805458
vn -0.1962906 0 -0.9805458
vn -0.2453171 0.9694429 0
vn -0.2453171 0.9694429 0
vn -0.2453171 0.9694429 0
vn -0.2453171 0.9694429 0
vn -0.1962907 0 0.9805458
vn -0.1962907 0 0.9805458
vn -0.1962907 0 0.9805458
vn -0.1962907 0 0.9805458
vn -0.1103598 -0.9938917 0
vn -0.1103598 -0.9938917 0
vn -0.1103598 -0.9938917 0
vn -0.1103598 -0.9938917 0
vn 0.1962907 0 0.9805458
vn 0.1962907 0 0.9805458
vn 0.1962907 0 0.9805458
vn 0.1962907 0 0.9805458
vn 0.2453171 0.9694429 0
vn 0.2453171 0.9694429 0
vn 0.2453171 0.9694429 0
vn 0.2453171 0.9694429 0
vn 0.1962906 0 -0.9805458
vn 0.1962906 0 -0.9805458
vn 0.1962906 0 -0.9805458
vn 0.1962906 0 -0.9805458
vn 0 0 1
vn 0 0 1
vn 0 0 1
vn 0 0 1
vn 0 1 0
vn 0 1 0
vn 0 1 0
vn 0 1 0
vn 0 1 0
vn 0 1 0
vn 0 1 0
vn 0 1 0
vn 0 1 0
vn 0 1 0
vn 0 1 0
vn 0 1 0
vn 0 0 -1
vn 0 0 -1
vn 0 0 -1
vn 0 0 -1
vn 0 -1 0
vn 0 -1 0
vn 0 -1 0
vn 0 -1 0
vn 0 -1 0
vn 0 -1 0
vn 0 -1 0
vn 0 -1 0
vn 0 -1 0
vn 0 -1 0
vn 0 -1 0
vn 0 -1 0
vn 1 0 0
vn 1 0 0
vn 1 0 0
vn 1 0 0
vn -1 0 0
vn -1 0 0
vn -1 0 0
vn -1 0 0
vn 0 0 1
vn 0 0 1
vn 0 0 1
vn 0 0 1
vn 0 0 -1
vn 0 0 -1
vn 0 0 -1
vn 0 0 -1
vn 0 0 1
vn 0 0 1
vn 0 0 1
vn 0 0 1
vn 0 0 -1
vn 0 0 -1
vn 0 0 -1
vn 0 0 -1
vn 0 -1 0
vn 0 -1 0
vn 0 -1 0
vn 0 -1 0
vn -1 0 0
vn -1 0 0
vn -1 0 0
vn -1 0 0
vn 0 1 0
vn 0 1 0
vn 0 1 0
vn 0 1 0
vn 0 1 0
vn 0 1 0
vn 0 1 0
vn 0 1 0
vn 1 0 0
vn 1 0 0
vn 1 0 0
vn 1 0 0
vn 0 -1 0
vn 0 -1 0
vn 0 -1 0
vn 0 -1 0
vn 0 1 0
vn 0 1 0
vn 0 1 0
vn 0 1 0
vn 0 1 0
vn 0 1 0
vn 0 1 0
vn 0 1 0
vn -1 0 0
vn -1 0 0
vn -1 0 0
vn -1 0 0
vn 0 -1 0
vn 0 -1 0
vn 0 -1 0
vn 0 -1 0
vn 0 -1 0
vn 0 -1 0
vn 0 -1 0
vn 0 -1 0
vn 1 0 0
vn 1 0 0
vn 1 0 0
vn 1 0 0
g SC_Christmas_Presents_04_0
f 3/3/3 2/2/2 1/1/1
f 4/4/4 3/3/3 1/1/1
f 7/7/7 6/6/6 5/5/5
f 8/8/8 7/7/7 5/5/5
f 11/11/11 10/10/10 9/9/9
f 12/12/12 11/11/11 9/9/9
f 15/15/15 14/14/14 13/13/13
f 16/16/16 15/15/15 13/13/13
f 19/19/19 18/18/18 17/17/17
f 20/20/20 19/19/19 17/17/17
f 23/23/23 22/22/22 21/21/21
f 24/24/24 23/23/23 21/21/21
f 27/27/27 26/26/26 25/25/25
f 28/28/28 27/27/27 25/25/25
f 29/29/29 27/27/27 28/28/28
f 30/30/30 29/29/29 28/28/28
f 31/31/31 29/29/29 30/30/30
f 32/32/32 31/31/31 30/30/30
f 26/26/26 31/31/31 32/32/32
f 25/25/25 26/26/26 32/32/32
f 35/35/35 34/34/34 33/33/33
f 36/36/36 35/35/35 33/33/33
f 37/37/37 35/35/35 36/36/36
f 38/38/38 37/37/37 36/36/36
f 39/39/39 37/37/37 38/38/38
f 40/40/40 39/39/39 38/38/38
f 34/34/34 39/39/39 40/40/40
f 33/33/33 34/34/34 40/40/40
f 43/43/43 42/42/42 41/41/41
f 44/44/44 43/43/43 41/41/41
f 47/47/47 46/46/46 45/45/45
f 48/48/48 47/47/47 45/45/45
f 51/51/51 50/50/50 49/49/49
f 52/52/52 51/51/51 49/49/49
f 55/55/55 54/54/54 53/53/53
f 56/56/56 55/55/55 53/53/53
f 59/59/59 58/58/58 57/57/57
f 60/60/60 59/59/59 57/57/57
f 63/63/63 62/62/62 61/61/61
f 64/64/64 63/63/63 61/61/61
f 67/67/67 66/66/66 65/65/65
f 68/68/68 67/67/67 65/65/65
f 71/71/71 70/70/70 69/69/69
f 72/72/72 71/71/71 69/69/69
f 75/75/75 74/74/74 73/73/73
f 76/76/76 75/75/75 73/73/73
f 79/79/79 78/78/78 77/77/77
f 80/80/80 79/79/79 77/77/77
f 79/79/79 80/80/80 81/81/81
f 80/80/80 82/82/82 81/81/81
f 78/78/78 83/83/83 77/77/77
f 83/83/83 84/84/84 77/77/77
f 80/80/80 77/77/77 85/85/85
f 77/77/77 86/86/86 85/85/85
f 87/87/87 78/78/78 79/79/79
f 88/88/88 87/87/87 79/79/79
f 91/91/91 90/90/90 89/89/89
f 92/92/92 91/91/91 89/89/89
f 95/95/95 94/94/94 93/93/93
f 96/96/96 95/95/95 93/93/93
f 96/96/96 97/97/97 95/95/95
f 97/97/97 98/98/98 95/95/95
f 93/93/93 94/94/94 99/99/99
f 100/100/100 93/93/93 99/99/99
f 101/101/101 94/94/94 95/95/95
f 102/102/102 101/101/101 95/95/95
f 96/96/96 93/93/93 103/103/103
f 93/93/93 104/104/104 103/103/103
f 107/107/107 106/106/106 105/105/105
f 108/108/108 107/107/107 105/105/105
f 111/111/111 110/110/110 109/109/109
f 112/112/112 111/111/111 109/109/109
f 115/115/115 114/114/114 113/113/113
f 116/116/116 115/115/115 113/113/113
f 119/119/119 118/118/118 117/117/117
f 120/120/120 119/119/119 117/117/117
f 123/123/123 122/122/122 121/121/121
f 124/124/124 123/123/123 121/121/121
f 127/127/127 126/126/126 125/125/125
f 128/128/128 127/127/127 125/125/125
f 131/131/131 130/130/130 129/129/129
f 132/132/132 131/131/131 129/129/129
f 135/135/135 134/134/134 133/133/133
f 136/136/136 135/135/135 133/133/133
f 139/139/139 138/138/138 137/137/137
f 140/140/140 139/139/139 137/137/137
f 143/143/143 142/142/142 141/141/141
f 144/144/144 143/143/143 141/141/141
f 147/147/147 146/146/146 145/145/145
f 148/148/148 147/147/147 145/145/145
f 151/151/151 150/150/150 149/149/149
f 152/152/152 151/151/151 149/149/149
f 155/155/155 154/154/154 153/153/153
f 156/156/156 155/155/155 153/153/153
f 159/159/159 158/158/158 157/157/157
f 160/160/160 159/159/159 157/157/157
f 163/163/163 162/162/162 161/161/161
f 164/164/164 163/163/163 161/161/161
f 167/167/167 166/166/166 165/165/165
f 168/168/168 167/167/167 165/165/165
f 171/171/171 170/170/170 169/169/169
f 172/172/172 171/171/171 169/169/169
f 175/175/175 174/174/174 173/173/173
f 176/176/176 175/175/175 173/173/173
