g SC_Christmas_Presents_08_Openable
v -0.09791374 0 -0.09791136
v -0.09791374 0 0.09791231
v 0.09791183 0 0.09791231
v 0.09791183 0 -0.09791136
v 0.4895592 0 -0.09791136
v 0.4895592 0 0.09791231
v -0.4895606 0 0.09791231
v -0.4895606 0 -0.09791136
v -0.09791374 0 0.4895601
v 0.09791183 0 0.4895601
v 0.09791183 0 -0.4895601
v -0.09791374 0 -0.4895601
v -0.4895606 0 0.09791231
v -0.4895606 0 0.4895601
v -0.09791374 0 0.4895601
v -0.09791374 0 0.09791231
v 0.09791183 0 0.4895601
v 0.4895592 0 0.4895601
v 0.4895592 0 0.09791231
v 0.09791183 0 0.09791231
v -0.4895606 0 -0.4895601
v -0.4895606 0 -0.09791136
v -0.09791374 0 -0.09791136
v -0.09791374 0 -0.4895601
v 0.4895592 0 -0.09791136
v 0.4895592 0 -0.4895601
v 0.09791183 0 -0.4895601
v 0.09791183 0 -0.09791136
v -0.09791374 0.7832956 -0.4895601
v -0.09791374 0 -0.4895601
v 0.09791183 0 -0.4895601
v 0.09791183 0.7832956 -0.4895601
v -0.4895606 0.7832956 -0.4895601
v -0.4895606 0 -0.4895601
v -0.09791374 0 -0.4895601
v -0.09791374 0.7832956 -0.4895601
v -0.4895606 0 -0.4895601
v -0.4895606 0.7832956 -0.4895601
v -0.4895606 0.7832956 -0.09791136
v -0.4895606 0 -0.09791136
v -0.4895606 0.7832956 0.09791231
v -0.4895606 0 0.09791231
v -0.4895606 0 -0.09791136
v -0.4895606 0.7832956 -0.09791136
v -0.4895606 0.7832956 0.4895601
v -0.4895606 0 0.4895601
v -0.4895606 0 0.09791231
v -0.4895606 0.7832956 0.09791231
v -0.4895606 0 0.4895601
v -0.4895606 0.7832956 0.4895601
v -0.09791374 0.7832956 0.4895601
v -0.09791374 0 0.4895601
v 0.09791183 0 0.4895601
v -0.09791374 0 0.4895601
v -0.09791374 0.7832956 0.4895601
v 0.09791183 0.7832956 0.4895601
v 0.4895592 0.7832956 0.4895601
v 0.4895592 0 0.4895601
v 0.09791183 0 0.4895601
v 0.09791183 0.7832956 0.4895601
v 0.4895592 0 0.4895601
v 0.4895592 0.7832956 0.4895601
v 0.4895592 0.7832956 0.09791231
v 0.4895592 0 0.09791231
v 0.4895592 0 0.09791231
v 0.4895592 0.7832956 0.09791231
v 0.4895592 0.7832956 -0.09791136
v 0.4895592 0 -0.09791136
v 0.4895592 0.7832956 -0.4895601
v 0.4895592 0 -0.4895601
v 0.4895592 0 -0.09791136
v 0.4895592 0.7832956 -0.09791136
v 0.09791183 0 -0.4895601
v 0.4895592 0 -0.4895601
v 0.4895592 0.7832956 -0.4895601
v 0.09791183 0.7832956 -0.4895601
v -0.436089 0.1199607 -0.08721685
v -0.436089 0.1199607 -0.4360876
v -0.08721828 0.1199607 -0.4360876
v 0.08721638 0.1199607 -0.4360876
v 0.4360867 0.1199607 -0.4360876
v 0.4360867 0.1199607 -0.08721685
v -0.436089 0.1199607 0.08721781
v 0.4360867 0.1199607 0.08721781
v -0.436089 0.1199607 0.4360886
v 0.4360867 0.1199607 0.4360886
v -0.08721828 0.1199607 0.4360886
v 0.08721638 0.1199607 0.4360886
v -0.09791374 0.7832956 -0.4895601
v -0.08721828 0.7832956 -0.4360876
v -0.436089 0.7832956 -0.4360876
v -0.4895606 0.7832956 -0.4895601
v -0.436089 0.7832956 -0.08721685
v -0.4895606 0.7832956 -0.09791136
v -0.436089 0.7832956 0.08721781
v -0.4895606 0.7832956 0.09791231
v -0.436089 0.7832956 0.4360886
v -0.4895606 0.7832956 0.4895601
v -0.08721828 0.7832956 0.4360886
v -0.09791374 0.7832956 0.4895601
v 0.08721638 0.7832956 0.4360886
v 0.09791183 0.7832956 0.4895601
v 0.4360867 0.7832956 0.4360886
v 0.4895592 0.7832956 0.4895601
v 0.4360867 0.7832956 0.08721781
v 0.4895592 0.7832956 0.09791231
v 0.4360867 0.7832956 -0.08721685
v 0.4895592 0.7832956 -0.09791136
v 0.4360867 0.7832956 -0.4360876
v 0.4895592 0.7832956 -0.4895601
v 0.08721638 0.7832956 -0.4360876
v 0.09791183 0.7832956 -0.4895601
v -0.08721828 0.7832956 -0.4360876
v -0.08721828 0.1199607 -0.4360876
v -0.436089 0.1199607 -0.4360876
v -0.436089 0.7832956 -0.4360876
v 0.08721638 0.7832956 -0.4360876
v 0.08721638 0.1199607 -0.4360876
v 0.4360867 0.7832956 -0.4360876
v 0.4360867 0.1199607 -0.4360876
v -0.436089 0.7832956 -0.4360876
v -0.436089 0.1199607 -0.4360876
v -0.436089 0.1199607 -0.08721685
v -0.436089 0.7832956 -0.08721685
v -0.436089 0.1199607 0.08721781
v -0.436089 0.7832956 0.08721781
v -0.436089 0.1199607 0.4360886
v -0.436089 0.7832956 0.4360886
v -0.436089 0.7832956 0.4360886
v -0.436089 0.1199607 0.4360886
v -0.08721828 0.1199607 0.4360886
v -0.08721828 0.7832956 0.4360886
v 0.08721638 0.1199607 0.4360886
v 0.08721638 0.7832956 0.4360886
v 0.4360867 0.1199607 0.4360886
v 0.4360867 0.7832956 0.4360886
v 0.4360867 0.7832956 0.4360886
v 0.4360867 0.1199607 0.4360886
v 0.4360867 0.1199607 0.08721781
v 0.4360867 0.7832956 0.08721781
v 0.4360867 0.1199607 -0.08721685
v 0.4360867 0.7832956 -0.08721685
v 0.4360867 0.1199607 -0.4360876
v 0.4360867 0.7832956 -0.4360876
vt 0.204332 0.2195534
vt 0.204332 0.2195534
vt 0.204332 0.2195534
vt 0.204332 0.2195534
vt 0.204332 0.2195534
vt 0.204332 0.2195534
vt 0.204332 0.2195534
vt 0.204332 0.2195534
vt 0.204332 0.2195534
vt 0.204332 0.2195534
vt 0.204332 0.2195534
vt 0.204332 0.2195534
vt 0.204332 0.1700243
vt 0.204332 0.1700243
vt 0.204332 0.1700243
vt 0.204332 0.1700243
vt 0.204332 0.1700243
vt 0.204332 0.1700243
vt 0.204332 0.1700243
vt 0.204332 0.1700243
vt 0.204332 0.1700243
vt 0.204332 0.1700243
vt 0.204332 0.1700243
vt 0.204332 0.1700243
vt 0.204332 0.1700243
vt 0.204332 0.1700243
vt 0.204332 0.1700243
vt 0.204332 0.1700243
vt 0.2676966 0.2195534
vt 0.2676966 0.2195534
vt 0.2676966 0.2195534
vt 0.2676966 0.2195534
vt 0.2676966 0.1700243
vt 0.2676966 0.1700243
vt 0.2676966 0.1700243
vt 0.2676966 0.1700243
vt 0.2379226 0.1700243
vt 0.2379227 0.1700243
vt 0.2379227 0.1700243
vt 0.2379226 0.1700243
vt 0.2379226 0.2195535
vt 0.2379226 0.2195534
vt 0.2379226 0.2195534
vt 0.2379227 0.2195535
vt 0.2379226 0.1700243
vt 0.2379226 0.1700243
vt 0.2379226 0.1700243
vt 0.2379226 0.1700243
vt 0.2676966 0.1700243
vt 0.2676966 0.1700243
vt 0.2676966 0.1700243
vt 0.2676966 0.1700243
vt 0.2676966 0.2195534
vt 0.2676966 0.2195534
vt 0.2676966 0.2195535
vt 0.2676966 0.2195535
vt 0.2676966 0.1700243
vt 0.2676966 0.1700243
vt 0.2676966 0.1700243
vt 0.2676966 0.1700243
vt 0.2379226 0.1700243
vt 0.2379226 0.1700243
vt 0.2379226 0.1700243
vt 0.2379226 0.1700243
vt 0.2379226 0.2195534
vt 0.2379226 0.2195535
vt 0.2379226 0.2195535
vt 0.2379226 0.2195534
vt 0.2379226 0.1700243
vt 0.2379226 0.1700243
vt 0.2379226 0.1700243
vt 0.2379226 0.1700243
vt 0.2676966 0.1700243
vt 0.2676966 0.1700243
vt 0.2676966 0.1700243
vt 0.2676966 0.1700243
vt 0.2998567 0.1695081
vt 0.2998567 0.1695081
vt 0.2998571 0.1695081
vt 0.2998571 0.1695081
vt 0.2998571 0.1695081
vt 0.2998571 0.1695081
vt 0.2998567 0.1695081
vt 0.2998571 0.1695081
vt 0.2998567 0.1695081
vt 0.2998571 0.1695081
vt 0.2998571 0.1695081
vt 0.2998571 0.1695081
vt 0.2998571 0.1695081
vt 0.2998571 0.1695081
vt 0.2998567 0.1695081
vt 0.2998567 0.1695081
vt 0.2998567 0.1695081
vt 0.2998567 0.1695081
vt 0.2998567 0.1695081
vt 0.2998567 0.1695081
vt 0.2998567 0.1695081
vt 0.2998567 0.1695081
vt 0.2998571 0.1695081
vt 0.2998571 0.1695081
vt 0.2998571 0.1695081
vt 0.2998571 0.1695081
vt 0.2998571 0.1695081
vt 0.2998571 0.1695081
vt 0.2998571 0.1695081
vt 0.2998571 0.1695081
vt 0.2998571 0.1695081
vt 0.2998571 0.1695081
vt 0.2998571 0.1695081
vt 0.2998571 0.1695081
vt 0.2998571 0.1695081
vt 0.2998571 0.1695081
vt 0.2655307 0.1695081
vt 0.2655307 0.1695081
vt 0.2655302 0.1695081
vt 0.2655302 0.1695081
vt 0.2655307 0.1695081
vt 0.2655307 0.1695081
vt 0.2655307 0.1695081
vt 0.2655307 0.1695081
vt 0.2416058 0.1695081
vt 0.2416058 0.1695081
vt 0.2416058 0.1695081
vt 0.2416058 0.1695081
vt 0.2416058 0.1695081
vt 0.2416058 0.1695081
vt 0.2416058 0.1695081
vt 0.2416058 0.1695081
vt 0.2655302 0.1695081
vt 0.2655302 0.1695081
vt 0.2655307 0.1695081
vt 0.2655307 0.1695081
vt 0.2655307 0.1695081
vt 0.2655307 0.1695081
vt 0.2655307 0.1695081
vt 0.2655307 0.1695081
vt 0.2416062 0.1695081
vt 0.2416062 0.1695081
vt 0.2416062 0.1695081
vt 0.2416062 0.1695081
vt 0.2416062 0.1695081
vt 0.2416062 0.1695081
vt 0.2416062 0.1695081
vt 0.2416062 0.1695081
vn 0 -1 0
vn 0 -1 0
vn 0 -1 0
vn 0 -1 0
vn 0 -1 0
vn 0 -1 0
vn 0 -1 0
vn 0 -1 0
vn 0 -1 0
vn 0 -1 0
vn 0 -1 0
vn 0 -1 0
vn 0 -1 0
vn 0 -1 0
vn 0 -1 0
vn 0 -1 0
vn 0 -1 0
vn 0 -1 0
vn 0 -1 0
vn 0 -1 0
vn 0 -1 0
vn 0 -1 0
vn 0 -1 0
vn 0 -1 0
vn 0 -1 0
vn 0 -1 0
vn 0 -1 0
vn 0 -1 0
vn 0 0 -1
vn 0 0 -1
vn 0 0 -1
vn 0 0 -1
vn 0 0 -1
vn 0 0 -1
vn 0 0 -1
vn 0 0 -1
vn -1 0 0
vn -1 0 0
vn -1 0 0
vn -1 0 0
vn -1 0 0
vn -1 0 0
vn -1 0 0
vn -1 0 0
vn -1 0 0
vn -1 0 0
vn -1 0 0
vn -1 0 0
vn 0 0 1
vn 0 0 1
vn 0 0 1
vn 0 0 1
vn 0 0 1
vn 0 0 1
vn 0 0 1
vn 0 0 1
vn 0 0 1
vn 0 0 1
vn 0 0 1
vn 0 0 1
vn 1 0 0
vn 1 0 0
vn 1 0 0
vn 1 0 0
vn 1 0 0
vn 1 0 0
vn 1 0 0
vn 1 0 0
vn 1 0 0
vn 1 0 0
vn 1 0 0
vn 1 0 0
vn 0 0 -1
vn 0 0 -1
vn 0 0 -1
vn 0 0 -1
vn 0 1 0
vn 0 1 0
vn 0 1 0
vn 0 1 0
vn 0 1 0
vn 0 1 0
vn 0 1 0
vn 0 1 0
vn 0 1 0
vn 0 1 0
vn 0 1 0
vn 0 1 0
vn 0 1 0
vn 0 1 0
vn 0 1 0
vn 0 1 0
vn 0 1 0
vn 0 1 0
vn 0 1 0
vn 0 1 0
vn 0 1 0
vn 0 1 0
vn 0 1 0
vn 0 1 0
vn 0 1 0
vn 0 1 0
vn 0 1 0
vn 0 1 0
vn 0 1 0
vn 0 1 0
vn 0 1 0
vn 0 1 0
vn 0 1 0
vn 0 1 0
vn 0 1 0
vn 0 1 0
vn 0 0 1
vn 0 0 1
vn 0 0 1
vn 0 0 1
vn 0 0 1
vn 0 0 1
vn 0 0 1
vn 0 0 1
vn 1 0 0
vn 1 0 0
vn 1 0 0
vn 1 0 0
vn 1 0 0
vn 1 0 0
vn 1 0 0
vn 1 0 0
vn 0 0 -1
vn 0 0 -1
vn 0 0 -1
vn 0 0 -1
vn 0 0 -1
vn 0 0 -1
vn 0 0 -1
vn 0 0 -1
vn -1 0 0
vn -1 0 0
vn -1 0 0
vn -1 0 0
vn -1 0 0
vn -1 0 0
vn -1 0 0
vn -1 0 0
g SC_Christmas_Presents_08_Openable_0
f 3/3/3 2/2/2 1/1/1
f 4/4/4 3/3/3 1/1/1
f 4/4/4 5/5/5 3/3/3
f 5/5/5 6/6/6 3/3/3
f 1/1/1 2/2/2 7/7/7
f 8/8/8 1/1/1 7/7/7
f 9/9/9 2/2/2 3/3/3
f 10/10/10 9/9/9 3/3/3
f 4/4/4 1/1/1 11/11/11
f 1/1/1 12/12/12 11/11/11
f 15/15/15 14/14/14 13/13/13
f 16/16/16 15/15/15 13/13/13
f 19/19/19 18/18/18 17/17/17
f 20/20/20 19/19/19 17/17/17
f 23/23/23 22/22/22 21/21/21
f 24/24/24 23/23/23 21/21/21
f 27/27/27 26/26/26 25/25/25
f 28/28/28 27/27/27 25/25/25
f 31/31/31 30/30/30 29/29/29
f 32/32/32 31/31/31 29/29/29
f 35/35/35 34/34/34 33/33/33
f 36/36/36 35/35/35 33/33/33
f 39/39/39 38/38/38 37/37/37
f 40/40/40 39/39/39 37/37/37
f 43/43/43 42/42/42 41/41/41
f 44/44/44 43/43/43 41/41/41
f 47/47/47 46/46/46 45/45/45
f 48/48/48 47/47/47 45/45/45
f 51/51/51 50/50/50 49/49/49
f 52/52/52 51/51/51 49/49/49
f 55/55/55 54/54/54 53/53/53
f 56/56/56 55/55/55 53/53/53
f 59/59/59 58/58/58 57/57/57
f 60/60/60 59/59/59 57/57/57
f 63/63/63 62/62/62 61/61/61
f 64/64/64 63/63/63 61/61/61
f 67/67/67 66/66/66 65/65/65
f 68/68/68 67/67/67 65/65/65
f 71/71/71 70/70/70 69/69/69
f 72/72/72 71/71/71 69/69/69
f 75/75/75 74/74/74 73/73/73
f 76/76/76 75/75/75 73/73/73
f 79/79/79 78/78/78 77/77/77
f 77/77/77 80/80/80 79/79/79
f 77/77/77 81/81/81 80/80/80
f 77/77/77 82/82/82 81/81/81
f 77/77/77 83/83/83 82/82/82
f 83/83/83 84/84/84 82/82/82
f 83/83/83 85/85/85 84/84/84
f 85/85/85 86/86/86 84/84/84
f 85/85/85 87/87/87 86/86/86
f 87/87/87 88/88/88 86/86/86
f 91/91/91 90/90/90 89/89/89
f 92/92/92 91/91/91 89/89/89
f 93/93/93 91/91/91 92/92/92
f 94/94/94 93/93/93 92/92/92
f 95/95/95 93/93/93 94/94/94
f 96/96/96 95/95/95 94/94/94
f 97/97/97 95/95/95 96/96/96
f 98/98/98 97/97/97 96/96/96
f 99/99/99 97/97/97 98/98/98
f 100/100/100 99/99/99 98/98/98
f 101/101/101 99/99/99 100/100/100
f 102/102/102 101/101/101 100/100/100
f 103/103/103 101/101/101 102/102/102
f 104/104/104 103/103/103 102/102/102
f 105/105/105 103/103/103 104/104/104
f 106/106/106 105/105/105 104/104/104
f 107/107/107 105/105/105 106/106/106
f 108/108/108 107/107/107 106/106/106
f 109/109/109 107/107/107 108/108/108
f 110/110/110 109/109/109 108/108/108
f 111/111/111 109/109/109 110/110/110
f 112/112/112 111/111/111 110/110/110
f 90/90/90 111/111/111 112/112/112
f 89/89/89 90/90/90 112/112/112
f 115/115/115 114/114/114 113/113/113
f 116/116/116 115/115/115 113/113/113
f 113/113/113 114/114/114 117/117/117
f 114/114/114 118/118/118 117/117/117
f 117/117/117 118/118/118 119/119/119
f 118/118/118 120/120/120 119/119/119
f 123/123/123 122/122/122 121/121/121
f 124/124/124 123/123/123 121/121/121
f 125/125/125 123/123/123 124/124/124
f 126/126/126 125/125/125 124/124/124
f 127/127/127 125/125/125 126/126/126
f 128/128/128 127/127/127 126/126/126
f 131/131/131 130/130/130 129/129/129
f 132/132/132 131/131/131 129/129/129
f 133/133/133 131/131/131 132/132/132
f 134/134/134 133/133/133 132/132/132
f 135/135/135 133/133/133 134/134/134
f 136/136/136 135/135/135 134/134/134
f 139/139/139 138/138/138 137/137/137
f 140/140/140 139/139/139 137/137/137
f 141/141/141 139/139/139 140/140/140
f 142/142/142 141/141/141 140/140/140
f 143/143/143 141/141/141 142/142/142
f 144/144/144 143/143/143 142/142/142
