g SC_Christmas_Tree_Undecorated
v -0.1595022 0 0.1595022
v -0.1595022 1 0.1595021
v 0.1595022 1 0.1595021
v 0.1595022 0 0.1595022
v -0.1595022 1 -0.159502
v -0.1595022 0 -0.1595022
v 0.1595022 0 -0.1595022
v 0.1595022 1 -0.159502
v -0.1595022 0 -0.1595022
v -0.1595022 0 0.1595022
v 0.1595022 0 0.1595022
v 0.1595022 0 -0.1595022
v 0.1595022 0 0.1595022
v 0.1595022 1 0.1595021
v 0.1595022 1 -0.159502
v 0.1595022 0 -0.1595022
v -0.1595022 0 -0.1595022
v -0.1595022 1 -0.159502
v -0.1595022 1 0.1595021
v -0.1595022 0 0.1595022
v -1.128794 1 1.128794
v -0.4898578 1.666049 0.4898581
v 0.4898578 1.666049 0.4898581
v 1.128794 1 1.128794
v -0.4898578 1.666049 -0.4898579
v -1.128794 1 -1.128794
v 1.128794 1 -1.128794
v 0.4898578 1.666049 -0.4898579
v 1.128794 1 1.128794
v 0.4898578 1.666049 0.4898581
v 0.4898578 1.666049 -0.4898579
v 1.128794 1 -1.128794
v -1.128794 1 -1.128794
v -0.4898578 1.666049 -0.4898579
v -0.4898578 1.666049 0.4898581
v -1.128794 1 1.128794
v -0.9202006 1.666049 0.9202006
v -0.3993356 2.332099 0.399336
v 0.3993356 2.332099 0.399336
v 0.9202006 1.666049 0.9202006
v -0.3993356 2.332099 -0.3993354
v -0.9202006 1.666049 -0.9202006
v 0.9202006 1.666049 -0.9202006
v 0.3993356 2.332099 -0.3993354
v 0.9202006 1.666049 0.9202006
v 0.3993356 2.332099 0.399336
v 0.3993356 2.332099 -0.3993354
v 0.9202006 1.666049 -0.9202006
v -0.9202006 1.666049 -0.9202006
v -0.3993356 2.332099 -0.3993354
v -0.3993356 2.332099 0.399336
v -0.9202006 1.666049 0.9202006
v -0.6076748 2.332099 0.6076748
v -0.2637101 2.998148 0.2637105
v 0.2637101 2.998148 0.2637105
v 0.6076748 2.332099 0.6076748
v -0.2637101 2.998148 -0.2637099
v -0.6076748 2.332099 -0.6076748
v 0.6076748 2.332099 -0.6076748
v 0.2637101 2.998148 -0.2637099
v 0.6076748 2.332099 0.6076748
v 0.2637101 2.998148 0.2637105
v 0.2637101 2.998148 -0.2637099
v 0.6076748 2.332099 -0.6076748
v -0.6076748 2.332099 -0.6076748
v -0.2637101 2.998148 -0.2637099
v -0.2637101 2.998148 0.2637105
v -0.6076748 2.332099 0.6076748
v -0.4099507 2.998148 0.4099507
v -0.1779046 3.664198 0.1779049
v 0.1779046 3.664198 0.1779049
v 0.4099507 2.998148 0.4099507
v -0.1779046 3.664198 -0.1779044
v -0.4099507 2.998148 -0.4099507
v 0.4099507 2.998148 -0.4099507
v 0.1779046 3.664198 -0.1779044
v 0.4099507 2.998148 0.4099507
v 0.1779046 3.664198 0.1779049
v 0.1779046 3.664198 -0.1779044
v 0.4099507 2.998148 -0.4099507
v -0.4099507 2.998148 -0.4099507
v -0.1779046 3.664198 -0.1779044
v -0.1779046 3.664198 0.1779049
v -0.4099507 2.998148 0.4099507
v -0.2667115 3.664198 0.2667115
v 0 4.330247 0
v 0.2667115 3.664198 0.2667115
v 0 4.330247 0
v -0.2667115 3.664198 -0.2667115
v 0.2667115 3.664198 -0.2667115
v 0.2667115 3.664198 0.2667115
v 0 4.330247 0
v 0.2667115 3.664198 -0.2667115
v -0.2667115 3.664198 -0.2667115
v 0 4.330247 0
v -0.2667115 3.664198 0.2667115
v -1.128794 1 -1.128794
v -0.1595022 1 -0.159502
v 0.1595022 1 -0.159502
v 1.128794 1 -1.128794
v 0.1595022 1 0.1595021
v 1.128794 1 1.128794
v -0.1595022 1 0.1595021
v -1.128794 1 1.128794
v -0.9202006 1.666049 -0.9202006
v -0.4898578 1.666049 -0.4898579
v 0.4898578 1.666049 -0.4898579
v 0.9202006 1.666049 -0.9202006
v 0.4898578 1.666049 0.4898581
v 0.9202006 1.666049 0.9202006
v -0.4898578 1.666049 0.4898581
v -0.9202006 1.666049 0.9202006
v -0.6076748 2.332099 -0.6076748
v -0.3993356 2.332099 -0.3993354
v 0.3993356 2.332099 -0.3993354
v 0.6076748 2.332099 -0.6076748
v 0.3993356 2.332099 0.399336
v 0.6076748 2.332099 0.6076748
v -0.3993356 2.332099 0.399336
v -0.6076748 2.332099 0.6076748
v -0.4099507 2.998148 -0.4099507
v -0.2637101 2.998148 -0.2637099
v 0.2637101 2.998148 -0.2637099
v 0.4099507 2.998148 -0.4099507
v 0.2637101 2.998148 0.2637105
v 0.4099507 2.998148 0.4099507
v -0.2637101 2.998148 0.2637105
v -0.4099507 2.998148 0.4099507
v -0.2667115 3.664198 -0.2667115
v -0.1779046 3.664198 -0.1779044
v 0.1779046 3.664198 -0.1779044
v 0.2667115 3.664198 -0.2667115
v 0.1779046 3.664198 0.1779049
v 0.2667115 3.664198 0.2667115
v -0.1779046 3.664198 0.1779049
v -0.2667115 3.664198 0.2667115
vt 0.2044426 0.3979658
vt 0.2044426 0.3979659
vt 0.2044425 0.3979659
vt 0.2044425 0.3979658
vt 0.2044426 0.3979659
vt 0.2044426 0.3979658
vt 0.2044425 0.3979658
vt 0.2044425 0.3979659
vt 0.141078 0.3979658
vt 0.141078 0.3979658
vt 0.141078 0.3979658
vt 0.141078 0.3979658
vt 0.1746686 0.3979658
vt 0.1746686 0.3979659
vt 0.1746686 0.3979659
vt 0.1746686 0.3979658
vt 0.1746686 0.3979658
vt 0.1746686 0.3979659
vt 0.1746686 0.3979659
vt 0.1746686 0.3979658
vt 0.2349795 0.2888384
vt 0.2349795 0.2888384
vt 0.2349794 0.2888384
vt 0.2349794 0.2888384
vt 0.2349795 0.2888384
vt 0.2349795 0.2888384
vt 0.2349794 0.2888384
vt 0.2349794 0.2888384
vt 0.2052055 0.2888384
vt 0.2052055 0.2888384
vt 0.2052054 0.2888384
vt 0.2052054 0.2888384
vt 0.2052055 0.2888384
vt 0.2052055 0.2888384
vt 0.2052055 0.2888384
vt 0.2052055 0.2888384
vt 0.2349795 0.2888384
vt 0.2349795 0.2888384
vt 0.2349794 0.2888384
vt 0.2349794 0.2888384
vt 0.2349795 0.2888384
vt 0.2349795 0.2888384
vt 0.2349794 0.2888384
vt 0.2349794 0.2888384
vt 0.2052055 0.2888384
vt 0.2052055 0.2888384
vt 0.2052054 0.2888384
vt 0.2052054 0.2888384
vt 0.2052055 0.2888384
vt 0.2052055 0.2888384
vt 0.2052055 0.2888384
vt 0.2052055 0.2888384
vt 0.2349795 0.2888384
vt 0.2349795 0.2888384
vt 0.2349794 0.2888384
vt 0.2349794 0.2888384
vt 0.2349795 0.2888384
vt 0.2349795 0.2888384
vt 0.2349794 0.2888384
vt 0.2349794 0.2888384
vt 0.2052055 0.2888384
vt 0.2052055 0.2888384
vt 0.2052054 0.2888384
vt 0.2052054 0.2888384
vt 0.2052055 0.2888384
vt 0.2052055 0.2888384
vt 0.2052055 0.2888384
vt 0.2052055 0.2888384
vt 0.2349795 0.2888384
vt 0.2349795 0.2888384
vt 0.2349794 0.2888384
vt 0.2349794 0.2888384
vt 0.2349795 0.2888384
vt 0.2349795 0.2888384
vt 0.2349794 0.2888384
vt 0.2349794 0.2888384
vt 0.2052055 0.2888384
vt 0.2052055 0.2888384
vt 0.2052054 0.2888384
vt 0.2052054 0.2888384
vt 0.2052055 0.2888384
vt 0.2052055 0.2888384
vt 0.2052055 0.2888384
vt 0.2052055 0.2888384
vt 0.2349795 0.2888384
vt 0.2349795 0.2888384
vt 0.2349794 0.2888384
vt 0.2349795 0.2888384
vt 0.2349795 0.2888384
vt 0.2349794 0.2888384
vt 0.2052055 0.2888384
vt 0.2052054 0.2888384
vt 0.2052054 0.2888384
vt 0.2052055 0.2888384
vt 0.2052055 0.2888384
vt 0.2052055 0.2888384
vt 0.1716149 0.2888384
vt 0.1716149 0.2888384
vt 0.1716149 0.2888384
vt 0.1716149 0.2888384
vt 0.1716149 0.2888384
vt 0.1716149 0.2888384
vt 0.1716149 0.2888384
vt 0.1716149 0.2888384
vt 0.1716149 0.2888384
vt 0.1716149 0.2888384
vt 0.1716149 0.2888384
vt 0.1716149 0.2888384
vt 0.1716149 0.2888384
vt 0.1716149 0.2888384
vt 0.1716149 0.2888384
vt 0.1716149 0.2888384
vt 0.1716149 0.2888384
vt 0.1716149 0.2888384
vt 0.1716149 0.2888384
vt 0.1716149 0.2888384
vt 0.1716149 0.2888384
vt 0.1716149 0.2888384
vt 0.1716149 0.2888384
vt 0.1716149 0.2888384
vt 0.1716149 0.2888384
vt 0.1716149 0.2888384
vt 0.1716149 0.2888384
vt 0.1716149 0.2888384
vt 0.1716149 0.2888384
vt 0.1716149 0.2888384
vt 0.1716149 0.2888384
vt 0.1716149 0.2888384
vt 0.1716149 0.2888384
vt 0.1716149 0.2888384
vt 0.1716149 0.2888384
vt 0.1716149 0.2888384
vt 0.1716149 0.2888384
vt 0.1716149 0.2888384
vt 0.1716149 0.2888384
vt 0.1716149 0.2888384
vn 0 0 1
vn 0 0 1
vn 0 0 1
vn 0 0 1
vn 0 0 -1
vn 0 0 -1
vn 0 0 -1
vn 0 0 -1
vn 0 -1 0
vn 0 -1 0
vn 0 -1 0
vn 0 -1 0
vn 1 0 0
vn 1 0 0
vn 1 0 0
vn 1 0 0
vn -1 0 0
vn -1 0 0
vn -1 0 0
vn -1 0 0
vn 0 0.6922657 0.7216427
vn 0 0.6922657 0.7216427
vn 0 0.6922657 0.7216427
vn 0 0.6922657 0.7216427
vn 0 0.6922658 -0.7216426
vn 0 0.6922658 -0.7216426
vn 0 0.6922658 -0.7216426
vn 0 0.6922658 -0.7216426
vn 0.7216426 0.6922659 0
vn 0.7216426 0.6922659 0
vn 0.7216426 0.6922659 0
vn 0.7216426 0.6922659 0
vn -0.7216426 0.6922659 0
vn -0.7216426 0.6922659 0
vn -0.7216426 0.6922659 0
vn -0.7216426 0.6922659 0
vn 0 0.616021 0.7877297
vn 0 0.616021 0.7877297
vn 0 0.616021 0.7877297
vn 0 0.616021 0.7877297
vn 0 0.6160215 -0.7877294
vn 0 0.6160215 -0.7877294
vn 0 0.6160215 -0.7877294
vn 0 0.6160215 -0.7877294
vn 0.7877295 0.6160213 0
vn 0.7877295 0.6160213 0
vn 0.7877295 0.6160213 0
vn 0.7877295 0.6160213 0
vn -0.7877295 0.6160213 0
vn -0.7877295 0.6160213 0
vn -0.7877295 0.6160213 0
vn -0.7877295 0.6160213 0
vn 0 0.4588502 0.8885136
vn 0 0.4588502 0.8885136
vn 0 0.4588502 0.8885136
vn 0 0.4588502 0.8885136
vn 0 0.4588508 -0.8885133
vn 0 0.4588508 -0.8885133
vn 0 0.4588508 -0.8885133
vn 0 0.4588508 -0.8885133
vn 0.8885134 0.4588507 0
vn 0.8885134 0.4588507 0
vn 0.8885134 0.4588507 0
vn 0.8885134 0.4588507 0
vn -0.8885134 0.4588507 0
vn -0.8885134 0.4588507 0
vn -0.8885134 0.4588507 0
vn -0.8885134 0.4588507 0
vn 0 0.3289968 0.944331
vn 0 0.3289968 0.944331
vn 0 0.3289968 0.944331
vn 0 0.3289968 0.944331
vn 0 0.3289974 -0.9443309
vn 0 0.3289974 -0.9443309
vn 0 0.3289974 -0.9443309
vn 0 0.3289974 -0.9443309
vn 0.9443309 0.328997 0
vn 0.9443309 0.328997 0
vn 0.9443309 0.328997 0
vn 0.9443309 0.328997 0
vn -0.9443309 0.328997 0
vn -0.9443309 0.328997 0
vn -0.9443309 0.328997 0
vn -0.9443309 0.328997 0
vn 0 0.3717412 0.9283364
vn 0 0.3717412 0.9283364
vn 0 0.3717412 0.9283364
vn 0 0.3717412 -0.9283364
vn 0 0.3717412 -0.9283364
vn 0 0.3717412 -0.9283364
vn 0.9283364 0.3717412 0
vn 0.9283364 0.3717412 0
vn 0.9283364 0.3717412 0
vn -0.9283364 0.3717412 0
vn -0.9283364 0.3717412 0
vn -0.9283364 0.3717412 0
vn 0 -1 0
vn 0 -1 0
vn 0 -1 0
vn 0 -1 0
vn 0 -1 0
vn 0 -1 0
vn 0 -1 0
vn 0 -1 0
vn 0 -1 0
vn 0 -1 0
vn 0 -1 0
vn 0 -1 0
vn 0 -1 0
vn 0 -1 0
vn 0 -1 0
vn 0 -1 0
vn 0 -1 0
vn 0 -1 0
vn 0 -1 0
vn 0 -1 0
vn 0 -1 0
vn 0 -1 0
vn 0 -1 0
vn 0 -1 0
vn 0 -1 0
vn 0 -1 0
vn 0 -1 0
vn 0 -1 0
vn 0 -1 0
vn 0 -1 0
vn 0 -1 0
vn 0 -1 0
vn 0 -1 0
vn 0 -1 0
vn 0 -1 0
vn 0 -1 0
vn 0 -1 0
vn 0 -1 0
vn 0 -1 0
vn 0 -1 0
g SC_Christmas_Tree_Undecorated_0
f 3/3/3 2/2/2 1/1/1
f 4/4/4 3/3/3 1/1/1
f 7/7/7 6/6/6 5/5/5
f 8/8/8 7/7/7 5/5/5
f 11/11/11 10/10/10 9/9/9
f 12/12/12 11/11/11 9/9/9
f 15/15/15 14/14/14 13/13/13
f 16/16/16 15/15/15 13/13/13
f 19/19/19 18/18/18 17/17/17
f 20/20/20 19/19/19 17/17/17
f 23/23/23 22/22/22 21/21/21
f 24/24/24 23/23/23 21/21/21
f 27/27/27 26/26/26 25/25/25
f 28/28/28 27/27/27 25/25/25
f 31/31/31 30/30/30 29/29/29
f 32/32/32 31/31/31 29/29/29
f 35/35/35 34/34/34 33/33/33
f 36/36/36 35/35/35 33/33/33
f 39/39/39 38/38/38 37/37/37
f 40/40/40 39/39/39 37/37/37
f 43/43/43 42/42/42 41/41/41
f 44/44/44 43/43/43 41/41/41
f 47/47/47 46/46/46 45/45/45
f 48/48/48 47/47/47 45/45/45
f 51/51/51 50/50/50 49/49/49
f 52/52/52 51/51/51 49/49/49
f 55/55/55 54/54/54 53/53/53
f 56/56/56 55/55/55 53/53/53
f 59/59/59 58/58/58 57/57/57
f 60/60/60 59/59/59 57/57/57
f 63/63/63 62/62/62 61/61/61
f 64/64/64 63/63/63 61/61/61
f 67/67/67 66/66/66 65/65/65
f 68/68/68 67/67/67 65/65/65
f 71/71/71 70/70/70 69/69/69
f 72/72/72 71/71/71 69/69/69
f 75/75/75 74/74/74 73/73/73
f 76/76/76 75/75/75 73/73/73
f 79/79/79 78/78/78 77/77/77
f 80/80/80 79/79/79 77/77/77
f 83/83/83 82/82/82 81/81/81
f 84/84/84 83/83/83 81/81/81
f 87/87/87 86/86/86 85/85/85
f 90/90/90 89/89/89 88/88/88
f 93/93/93 92/92/92 91/91/91
f 96/96/96 95/95/95 94/94/94
f 99/99/99 98/98/98 97/97/97
f 100/100/100 99/99/99 97/97/97
f 101/101/101 99/99/99 100/100/100
f 102/102/102 101/101/101 100/100/100
f 103/103/103 101/101/101 102/102/102
f 104/104/104 103/103/103 102/102/102
f 98/98/98 103/103/103 104/104/104
f 97/97/97 98/98/98 104/104/104
f 107/107/107 106/106/106 105/105/105
f 108/108/108 107/107/107 105/105/105
f 109/109/109 107/107/107 108/108/108
f 110/110/110 109/109/109 108/108/108
f 111/111/111 109/109/109 110/110/110
f 112/112/112 111/111/111 110/110/110
f 106/106/106 111/111/111 112/112/112
f 105/105/105 106/106/106 112/112/112
f 115/115/115 114/114/114 113/113/113
f 116/116/116 115/115/115 113/113/113
f 117/117/117 115/115/115 116/116/116
f 118/118/118 117/117/117 116/116/116
f 119/119/119 117/117/117 118/118/118
f 120/120/120 119/119/119 118/118/118
f 114/114/114 119/119/119 120/120/120
f 113/113/113 114/114/114 120/120/120
f 123/123/123 122/122/122 121/121/121
f 124/124/124 123/123/123 121/121/121
f 125/125/125 123/123/123 124/124/124
f 126/126/126 125/125/125 124/124/124
f 127/127/127 125/125/125 126/126/126
f 128/128/128 127/127/127 126/126/126
f 122/122/122 127/127/127 128/128/128
f 121/121/121 122/122/122 128/128/128
f 131/131/131 130/130/130 129/129/129
f 132/132/132 131/131/131 129/129/129
f 133/133/133 131/131/131 132/132/132
f 134/134/134 133/133/133 132/132/132
f 135/135/135 133/133/133 134/134/134
f 136/136/136 135/135/135 134/134/134
f 130/130/130 135/135/135 136/136/136
f 129/129/129 130/130/130 136/136/136
