g SC_SaintPatrick_Rainbow
v 0.8809872 1.279908 0
v 0.6263981 0 0
v 0.3132 0 0
v 0.591629 1.399764 0
v 1.605997 2.364962 0
v 1.384533 2.586427 0
v 2.691051 3.089972 0
v 2.571196 3.37933 0
v 3.970961 3.344562 0
v 3.970961 3.657761 0
v 5.250868 3.089972 0
v 5.370724 3.37933 0
v 6.335922 2.364962 0
v 6.557386 2.586427 0
v 7.060932 1.279908 0
v 7.35029 1.399764 0
v 7.628721 0 0
v 7.315521 0 0
v 0.01291275 1.639477 0
v 0.3022709 1.51962 0
v 0 0 0
v -0.3132 0 0
v 0.9416027 3.029358 0
v 1.163067 2.807893 0
v 2.331484 3.958047 0
v 2.45134 3.668689 0
v 3.970961 4.284159 0
v 3.970961 3.97096 0
v 5.610437 3.958047 0
v 5.49058 3.668689 0
v 7.000319 3.029357 0
v 6.778852 2.807892 0
v 7.929007 1.639476 0
v 7.639648 1.51962 0
v 8.255119 0 0
v 7.941919 0 0
v 7.941919 0 0
v 7.628721 0 0
v 7.35029 1.399764 0
v 7.639648 1.51962 0
v 6.557386 2.586427 0
v 6.778852 2.807892 0
v 5.370724 3.37933 0
v 5.49058 3.668689 0
v 3.970961 3.657761 0
v 3.970961 3.97096 0
v 2.571196 3.37933 0
v 2.45134 3.668689 0
v 1.384533 2.586427 0
v 1.163067 2.807893 0
v 0.591629 1.399764 0
v 0.3022709 1.51962 0
v 0.3132 0 0
v 0 0 0
v 8.218367 1.759332 0
v 8.568317 0 0
v 8.255119 0 0
v 7.929007 1.639476 0
v 7.221785 3.250823 0
v 7.000319 3.029357 0
v 5.730291 4.247405 0
v 5.610437 3.958047 0
v 3.970961 4.597358 0
v 3.970961 4.284159 0
v 2.211628 4.247405 0
v 2.331484 3.958047 0
v 0.7201366 3.250823 0
v 0.9416027 3.029358 0
v -0.2764454 1.759333 0
v 0.01291275 1.639477 0
v -0.6263981 0 0
v -0.3132 0 0
v -0.6263981 0 0
v -0.9859962 0 0
v -0.6086712 1.895362 0
v -0.2764454 1.759333 0
v 0.4658623 3.503515 0
v 0.7201366 3.250823 0
v 2.074017 4.578048 0
v 2.211628 4.247405 0
v 3.970961 4.955374 0
v 3.970961 4.597358 0
v 5.867903 4.578048 0
v 5.730291 4.247405 0
v 7.476059 3.503514 0
v 7.221785 3.250823 0
v 8.550592 1.895362 0
v 8.218367 1.759332 0
v 8.927916 0 0
v 8.568317 0 0
v 0.8809872 1.279908 0
v 1.123865 1.18554 0
v 0.889286 0 0
v 0.6263981 0 0
v 1.605997 2.364962 0
v 1.791887 2.185307 0
v 2.691051 3.089972 0
v 2.791655 2.85333 0
v 3.970961 3.344562 0
v 3.970961 3.087908 0
v 5.250868 3.089972 0
v 5.150265 2.85333 0
v 6.335922 2.364962 0
v 6.150032 2.185306 0
v 7.060932 1.279908 0
v 6.818054 1.18554 0
v 7.315521 0 0
v 7.052633 0 0
vt 0.2994244 0.3317903
vt 0.2994244 0.3317903
vt 0.2994244 0.3317903
vt 0.2994244 0.3317903
vt 0.2994244 0.3317903
vt 0.2994244 0.3317903
vt 0.2994244 0.3317903
vt 0.2994244 0.3317903
vt 0.2994244 0.3317902
vt 0.2994244 0.3317902
vt 0.2994244 0.3317903
vt 0.2994244 0.3317903
vt 0.2994244 0.3317903
vt 0.2994244 0.3317903
vt 0.2994244 0.3317903
vt 0.2994244 0.3317903
vt 0.2994244 0.3317903
vt 0.2994244 0.3317903
vt 0.2994244 0.1533947
vt 0.2994244 0.1533947
vt 0.2994244 0.1533947
vt 0.2994244 0.1533947
vt 0.2994244 0.1533947
vt 0.2994244 0.1533947
vt 0.2994244 0.1533947
vt 0.2994244 0.1533947
vt 0.2994244 0.1533947
vt 0.2994244 0.1533947
vt 0.2994244 0.1533947
vt 0.2994244 0.1533947
vt 0.2994244 0.1533947
vt 0.2994244 0.1533947
vt 0.2994244 0.1533947
vt 0.2994244 0.1533947
vt 0.2994244 0.1533947
vt 0.2994244 0.1533947
vt 0.2994244 0.1358064
vt 0.2994244 0.1358064
vt 0.2994244 0.1358064
vt 0.2994244 0.1358064
vt 0.2994244 0.1358064
vt 0.2994244 0.1358064
vt 0.2994244 0.1358064
vt 0.2994244 0.1358064
vt 0.2994244 0.1358064
vt 0.2994244 0.1358064
vt 0.2994244 0.1358064
vt 0.2994244 0.1358064
vt 0.2994244 0.1358064
vt 0.2994244 0.1358064
vt 0.2994244 0.1358064
vt 0.2994244 0.1358064
vt 0.2994244 0.1358064
vt 0.2994244 0.1358064
vt 0.2994244 0.2212353
vt 0.2994244 0.2212353
vt 0.2994244 0.2212353
vt 0.2994244 0.2212353
vt 0.2994244 0.2212353
vt 0.2994244 0.2212353
vt 0.2994244 0.2212353
vt 0.2994244 0.2212353
vt 0.2994244 0.2212352
vt 0.2994244 0.2212352
vt 0.2994244 0.2212353
vt 0.2994244 0.2212353
vt 0.2994244 0.2212353
vt 0.2994244 0.2212353
vt 0.2994244 0.2212353
vt 0.2994244 0.2212353
vt 0.2994244 0.2212353
vt 0.2994244 0.2212353
vt 0.2994251 0.1684704
vt 0.2994251 0.1684704
vt 0.2994251 0.1684706
vt 0.2994251 0.1684704
vt 0.2994251 0.1684704
vt 0.2994251 0.1684704
vt 0.2994251 0.1684704
vt 0.2994251 0.1684704
vt 0.2994251 0.1684704
vt 0.2994251 0.1684704
vt 0.2994251 0.1684704
vt 0.2994251 0.1684704
vt 0.2994251 0.1684704
vt 0.2994251 0.1684704
vt 0.2994251 0.1684704
vt 0.2994251 0.1684704
vt 0.2994251 0.1684704
vt 0.2994251 0.1684704
vt 0.2026888 0.01143211
vt 0.2026888 0.01143208
vt 0.2026888 0.01143208
vt 0.2026888 0.01143211
vt 0.2026888 0.01143211
vt 0.2026888 0.01143208
vt 0.2026888 0.01143211
vt 0.2026888 0.01143208
vt 0.2026888 0.01143211
vt 0.2026888 0.01143208
vt 0.2026888 0.01143211
vt 0.2026888 0.01143208
vt 0.2026888 0.01143211
vt 0.2026888 0.01143208
vt 0.2026888 0.01143211
vt 0.2026888 0.01143208
vt 0.2026888 0.01143211
vt 0.2026888 0.01143208
vn 0 0 1
vn 0 0 1
vn 0 0 1
vn 0 0 1
vn 0 0 1
vn 0 0 1
vn 0 0 1
vn 0 0 1
vn 0 0 1
vn 0 0 1
vn 0 0 1
vn 0 0 1
vn 0 0 1
vn 0 0 1
vn 0 0 1
vn 0 0 1
vn 0 0 1
vn 0 0 1
vn 0 0 1
vn 0 0 1
vn 0 0 1
vn 0 0 1
vn 0 0 1
vn 0 0 1
vn 0 0 1
vn 0 0 1
vn 0 0 1
vn 0 0 1
vn 0 0 1
vn 0 0 1
vn 0 0 1
vn 0 0 1
vn 0 0 1
vn 0 0 1
vn 0 0 1
vn 0 0 1
vn 0 0 1
vn 0 0 1
vn 0 0 1
vn 0 0 1
vn 0 0 1
vn 0 0 1
vn 0 0 1
vn 0 0 1
vn 0 0 1
vn 0 0 1
vn 0 0 1
vn 0 0 1
vn 0 0 1
vn 0 0 1
vn 0 0 1
vn 0 0 1
vn 0 0 1
vn 0 0 1
vn 0 0 1
vn 0 0 1
vn 0 0 1
vn 0 0 1
vn 0 0 1
vn 0 0 1
vn 0 0 1
vn 0 0 1
vn 0 0 1
vn 0 0 1
vn 0 0 1
vn 0 0 1
vn 0 0 1
vn 0 0 1
vn 0 0 1
vn 0 0 1
vn 0 0 1
vn 0 0 1
vn 0 0 1
vn 0 0 1
vn 0 0 1
vn 0 0 1
vn 0 0 1
vn 0 0 1
vn 0 0 1
vn 0 0 1
vn 0 0 1
vn 0 0 1
vn 0 0 1
vn 0 0 1
vn 0 0 1
vn 0 0 1
vn 0 0 1
vn 0 0 1
vn 0 0 1
vn 0 0 1
vn 0 0 1
vn 0 0 1
vn 0 0 1
vn 0 0 1
vn 0 0 1
vn 0 0 1
vn 0 0 1
vn 0 0 1
vn 0 0 1
vn 0 0 1
vn 0 0 1
vn 0 0 1
vn 0 0 1
vn 0 0 1
vn 0 0 1
vn 0 0 1
vn 0 0 1
vn 0 0 1
g SC_SaintPatrick_Rainbow_0
f 3/3/3 2/2/2 1/1/1
f 4/4/4 3/3/3 1/1/1
f 4/4/4 1/1/1 5/5/5
f 6/6/6 4/4/4 5/5/5
f 6/6/6 5/5/5 7/7/7
f 8/8/8 6/6/6 7/7/7
f 8/8/8 7/7/7 9/9/9
f 10/10/10 8/8/8 9/9/9
f 10/10/10 9/9/9 11/11/11
f 12/12/12 10/10/10 11/11/11
f 12/12/12 11/11/11 13/13/13
f 14/14/14 12/12/12 13/13/13
f 14/14/14 13/13/13 15/15/15
f 16/16/16 14/14/14 15/15/15
f 16/16/16 15/15/15 17/17/17
f 15/15/15 18/18/18 17/17/17
f 21/21/21 20/20/20 19/19/19
f 22/22/22 21/21/21 19/19/19
f 19/19/19 20/20/20 23/23/23
f 20/20/20 24/24/24 23/23/23
f 23/23/23 24/24/24 25/25/25
f 24/24/24 26/26/26 25/25/25
f 25/25/25 26/26/26 27/27/27
f 26/26/26 28/28/28 27/27/27
f 27/27/27 28/28/28 29/29/29
f 28/28/28 30/30/30 29/29/29
f 29/29/29 30/30/30 31/31/31
f 30/30/30 32/32/32 31/31/31
f 31/31/31 32/32/32 33/33/33
f 32/32/32 34/34/34 33/33/33
f 33/33/33 34/34/34 35/35/35
f 34/34/34 36/36/36 35/35/35
f 39/39/39 38/38/38 37/37/37
f 40/40/40 39/39/39 37/37/37
f 39/39/39 40/40/40 41/41/41
f 40/40/40 42/42/42 41/41/41
f 41/41/41 42/42/42 43/43/43
f 42/42/42 44/44/44 43/43/43
f 43/43/43 44/44/44 45/45/45
f 44/44/44 46/46/46 45/45/45
f 45/45/45 46/46/46 47/47/47
f 46/46/46 48/48/48 47/47/47
f 47/47/47 48/48/48 49/49/49
f 48/48/48 50/50/50 49/49/49
f 49/49/49 50/50/50 51/51/51
f 50/50/50 52/52/52 51/51/51
f 51/51/51 52/52/52 53/53/53
f 52/52/52 54/54/54 53/53/53
f 57/57/57 56/56/56 55/55/55
f 58/58/58 57/57/57 55/55/55
f 58/58/58 55/55/55 59/59/59
f 60/60/60 58/58/58 59/59/59
f 60/60/60 59/59/59 61/61/61
f 62/62/62 60/60/60 61/61/61
f 62/62/62 61/61/61 63/63/63
f 64/64/64 62/62/62 63/63/63
f 64/64/64 63/63/63 65/65/65
f 66/66/66 64/64/64 65/65/65
f 66/66/66 65/65/65 67/67/67
f 68/68/68 66/66/66 67/67/67
f 68/68/68 67/67/67 69/69/69
f 70/70/70 68/68/68 69/69/69
f 70/70/70 69/69/69 71/71/71
f 72/72/72 70/70/70 71/71/71
f 75/75/75 74/74/74 73/73/73
f 76/76/76 75/75/75 73/73/73
f 77/77/77 75/75/75 76/76/76
f 78/78/78 77/77/77 76/76/76
f 79/79/79 77/77/77 78/78/78
f 80/80/80 79/79/79 78/78/78
f 81/81/81 79/79/79 80/80/80
f 82/82/82 81/81/81 80/80/80
f 83/83/83 81/81/81 82/82/82
f 84/84/84 83/83/83 82/82/82
f 85/85/85 83/83/83 84/84/84
f 86/86/86 85/85/85 84/84/84
f 87/87/87 85/85/85 86/86/86
f 88/88/88 87/87/87 86/86/86
f 89/89/89 87/87/87 88/88/88
f 90/90/90 89/89/89 88/88/88
f 93/93/93 92/92/92 91/91/91
f 94/94/94 93/93/93 91/91/91
f 91/91/91 92/92/92 95/95/95
f 92/92/92 96/96/96 95/95/95
f 95/95/95 96/96/96 97/97/97
f 96/96/96 98/98/98 97/97/97
f 97/97/97 98/98/98 99/99/99
f 98/98/98 100/100/100 99/99/99
f 99/99/99 100/100/100 101/101/101
f 100/100/100 102/102/102 101/101/101
f 101/101/101 102/102/102 103/103/103
f 102/102/102 104/104/104 103/103/103
f 103/103/103 104/104/104 105/105/105
f 104/104/104 106/106/106 105/105/105
f 105/105/105 106/106/106 107/107/107
f 106/106/106 108/108/108 107/107/107
