g Stalagmite_Ice_01
v -0.6915183 2.77835 -0.1791684
v -0.9397084 1.285223 -0.2530946
v -0.1306835 1.285223 -1.018506
v -0.07061036 2.77835 -0.7666038
v -0.9397084 1.285223 -0.2530946
v -0.6915183 2.77835 -0.1791684
v -0.1306835 1.285223 -1.018506
v -0.07061036 2.77835 -0.7666038
v 1.088735 0 -0.8444196
v 1.395641 0 0.4425153
v 1.195048 1.285223 0.3827665
v 0.9366947 1.285223 -0.7005754
v 1.395641 0 0.4425153
v 1.088735 0 -0.8444196
v 1.195048 1.285223 0.3827665
v 0.9366947 1.285223 -0.7005754
v 0.7485776 2.77835 -0.5225995
v 0.9468576 2.77835 0.3088402
v 0.7898498 4.233677 0.2620737
v 0.6295727 4.233677 -0.41001
v 0.9468576 2.77835 0.3088402
v 0.7485776 2.77835 -0.5225995
v 0.7898498 4.233677 0.2620737
v 0.6295727 4.233677 -0.41001
v 0.2879468 4.233677 0.7369197
v 0.3259497 2.77835 0.8962757
v -0.4932382 2.77835 0.6522714
v -0.3742333 4.233677 0.5396819
v 0.3259497 2.77835 0.8962757
v 0.2879468 4.233677 0.7369197
v -0.4932382 2.77835 0.6522714
v -0.3742333 4.233677 0.5396819
v 0.7898498 4.233677 0.2620737
v 0.9468576 2.77835 0.3088402
v 0.3259497 2.77835 0.8962757
v 0.2879468 4.233677 0.7369197
v 0.9468576 2.77835 0.3088402
v 0.7898498 4.233677 0.2620737
v 0.3259497 2.77835 0.8962757
v 0.2879468 4.233677 0.7369197
v -0.9397084 1.285223 -0.2530946
v -1.140301 0 -0.3128435
v -0.1792359 0 -1.222099
v -0.1306835 1.285223 -1.018506
v -1.140301 0 -0.3128435
v -0.9397084 1.285223 -0.2530946
v -0.1792359 0 -1.222099
v -0.1306835 1.285223 -1.018506
v -0.4932382 2.77835 0.6522714
v -0.6813552 1.285223 0.8302472
v -0.9397084 1.285223 -0.2530946
v -0.6915183 2.77835 -0.1791684
v -0.6813552 1.285223 0.8302472
v -0.4932382 2.77835 0.6522714
v -0.9397084 1.285223 -0.2530946
v -0.6915183 2.77835 -0.1791684
v 0.0714903 8.988743 -0.1707388
v -0.03260747 4.233677 -0.6072478
v 0.6295727 4.233677 -0.41001
v 0.3035937 8.988743 -0.1016042
v -0.03260747 4.233677 -0.6072478
v 0.0714903 8.988743 -0.1707388
v 0.6295727 4.233677 -0.41001
v 0.3035937 8.988743 -0.1016042
v -0.04825432 8.988743 0.2312761
v -0.1044337 8.988743 -0.004298651
v 0.0714903 8.988743 -0.1707388
v 0.1838491 8.988743 0.3004107
v 0.3035937 8.988743 -0.1016042
v 0.3597731 8.988743 0.1339705
v -0.1044337 8.988743 -0.004298651
v -0.04825432 8.988743 0.2312761
v 0.0714903 8.988743 -0.1707388
v 0.1838491 8.988743 0.3004107
v 0.3035937 8.988743 -0.1016042
v 0.3597731 8.988743 0.1339705
v -0.1044337 8.988743 -0.004298651
v -0.5345105 4.233677 -0.1324018
v -0.03260747 4.233677 -0.6072478
v 0.0714903 8.988743 -0.1707388
v -0.5345105 4.233677 -0.1324018
v -0.1044337 8.988743 -0.004298651
v -0.03260747 4.233677 -0.6072478
v 0.0714903 8.988743 -0.1707388
v 0.9366947 1.285223 -0.7005754
v 1.195048 1.285223 0.3827665
v 0.9468576 2.77835 0.3088402
v 0.7485776 2.77835 -0.5225995
v 1.195048 1.285223 0.3827665
v 0.9366947 1.285223 -0.7005754
v 0.9468576 2.77835 0.3088402
v 0.7485776 2.77835 -0.5225995
v 0.3259497 2.77835 0.8962757
v 0.3860228 1.285223 1.148178
v -0.6813552 1.285223 0.8302472
v -0.4932382 2.77835 0.6522714
v 0.3860228 1.285223 1.148178
v 0.3259497 2.77835 0.8962757
v -0.6813552 1.285223 0.8302472
v -0.4932382 2.77835 0.6522714
v -0.5345105 4.233677 -0.1324018
v -0.6915183 2.77835 -0.1791684
v -0.07061036 2.77835 -0.7666038
v -0.03260747 4.233677 -0.6072478
v -0.6915183 2.77835 -0.1791684
v -0.5345105 4.233677 -0.1324018
v -0.07061036 2.77835 -0.7666038
v -0.03260747 4.233677 -0.6072478
v 0.9468576 2.77835 0.3088402
v 1.195048 1.285223 0.3827665
v 0.3860228 1.285223 1.148178
v 0.3259497 2.77835 0.8962757
v 1.195048 1.285223 0.3827665
v 0.9468576 2.77835 0.3088402
v 0.3860228 1.285223 1.148178
v 0.3259497 2.77835 0.8962757
v -0.3742333 4.233677 0.5396819
v -0.4932382 2.77835 0.6522714
v -0.6915183 2.77835 -0.1791684
v -0.5345105 4.233677 -0.1324018
v -0.4932382 2.77835 0.6522714
v -0.3742333 4.233677 0.5396819
v -0.6915183 2.77835 -0.1791684
v -0.5345105 4.233677 -0.1324018
v -0.1792359 0 -1.222099
v -1.140301 0 -0.3128435
v -0.8333958 0 0.9740914
v 0.4345753 0 1.351771
v 1.088735 0 -0.8444196
v 1.395641 0 0.4425153
v -1.140301 0 -0.3128435
v -0.1792359 0 -1.222099
v -0.8333958 0 0.9740914
v 0.4345753 0 1.351771
v 1.088735 0 -0.8444196
v 1.395641 0 0.4425153
v -0.07061036 2.77835 -0.7666038
v -0.1306835 1.285223 -1.018506
v 0.9366947 1.285223 -0.7005754
v 0.7485776 2.77835 -0.5225995
v -0.1306835 1.285223 -1.018506
v -0.07061036 2.77835 -0.7666038
v 0.9366947 1.285223 -0.7005754
v 0.7485776 2.77835 -0.5225995
v 0.1838491 8.988743 0.3004107
v 0.2879468 4.233677 0.7369197
v -0.3742333 4.233677 0.5396819
v -0.04825432 8.988743 0.2312761
v 0.2879468 4.233677 0.7369197
v 0.1838491 8.988743 0.3004107
v -0.3742333 4.233677 0.5396819
v -0.04825432 8.988743 0.2312761
v 0.6295727 4.233677 -0.41001
v 0.7898498 4.233677 0.2620737
v 0.3597731 8.988743 0.1339705
v 0.3035937 8.988743 -0.1016042
v 0.7898498 4.233677 0.2620737
v 0.6295727 4.233677 -0.41001
v 0.3597731 8.988743 0.1339705
v 0.3035937 8.988743 -0.1016042
v 0.3860228 1.285223 1.148178
v 0.4345753 0 1.351771
v -0.8333958 0 0.9740914
v -0.6813552 1.285223 0.8302472
v 0.4345753 0 1.351771
v 0.3860228 1.285223 1.148178
v -0.8333958 0 0.9740914
v -0.6813552 1.285223 0.8302472
v -0.03260747 4.233677 -0.6072478
v -0.07061036 2.77835 -0.7666038
v 0.7485776 2.77835 -0.5225995
v 0.6295727 4.233677 -0.41001
v -0.07061036 2.77835 -0.7666038
v -0.03260747 4.233677 -0.6072478
v 0.7485776 2.77835 -0.5225995
v 0.6295727 4.233677 -0.41001
v 0.3597731 8.988743 0.1339705
v 0.7898498 4.233677 0.2620737
v 0.2879468 4.233677 0.7369197
v 0.1838491 8.988743 0.3004107
v 0.7898498 4.233677 0.2620737
v 0.3597731 8.988743 0.1339705
v 0.2879468 4.233677 0.7369197
v 0.1838491 8.988743 0.3004107
v -0.04825432 8.988743 0.2312761
v -0.3742333 4.233677 0.5396819
v -0.5345105 4.233677 -0.1324018
v -0.1044337 8.988743 -0.004298651
v -0.3742333 4.233677 0.5396819
v -0.04825432 8.988743 0.2312761
v -0.5345105 4.233677 -0.1324018
v -0.1044337 8.988743 -0.004298651
v -0.6813552 1.285223 0.8302472
v -0.8333958 0 0.9740914
v -1.140301 0 -0.3128435
v -0.9397084 1.285223 -0.2530946
v -0.8333958 0 0.9740914
v -0.6813552 1.285223 0.8302472
v -1.140301 0 -0.3128435
v -0.9397084 1.285223 -0.2530946
v 1.195048 1.285223 0.3827665
v 1.395641 0 0.4425153
v 0.4345753 0 1.351771
v 0.3860228 1.285223 1.148178
v 1.395641 0 0.4425153
v 1.195048 1.285223 0.3827665
v 0.4345753 0 1.351771
v 0.3860228 1.285223 1.148178
v -0.1306835 1.285223 -1.018506
v -0.1792359 0 -1.222099
v 1.088735 0 -0.8444196
v 0.9366947 1.285223 -0.7005754
v -0.1792359 0 -1.222099
v -0.1306835 1.285223 -1.018506
v 1.088735 0 -0.8444196
v 0.9366947 1.285223 -0.7005754
vt 0.587754 4.119298
vt 0.7884531 1.778985
vt -0.9378189 1.778985
vt -0.7371198 4.119298
vt 0.7884531 1.778985
vt 0.587754 4.119298
vt -0.9378189 1.778985
vt -0.7371198 4.119298
vt 0.8816863 -0.2716425
vt -1.169005 -0.2716425
vt -1.006795 1.740172
vt 0.7194766 1.740172
vt -1.169005 -0.2716425
vt 0.8816863 -0.2716425
vt -1.006795 1.740172
vt 0.7194766 1.740172
vt 0.5187775 4.158391
vt -0.8060962 4.158391
vt -0.6791317 6.424845
vt 0.3918131 6.424845
vt -0.8060962 4.158391
vt 0.5187775 4.158391
vt -0.6791317 6.424845
vt 0.3918131 6.424845
vt 0.7538146 6.437396
vt 0.8807791 4.170941
vt -0.4440946 4.170941
vt -0.3171302 6.437396
vt 0.8807791 4.170941
vt 0.7538146 6.437396
vt -0.4440946 4.170941
vt -0.3171302 6.437396
vt 0.6101553 6.420981
vt 0.7371198 4.154527
vt -0.587754 4.154527
vt -0.4607895 6.420981
vt 0.7371198 4.154527
vt 0.6101553 6.420981
vt -0.587754 4.154527
vt -0.4607895 6.420981
vt 0.7884531 1.792986
vt 0.9506628 -0.2188287
vt -1.100029 -0.2188287
vt -0.9378189 1.792986
vt 0.9506628 -0.2188287
vt 0.7884531 1.792986
vt -1.100029 -0.2188287
vt -0.9378189 1.792986
vt 0.8060962 4.113383
vt 1.006795 1.77307
vt -0.7194766 1.77307
vt -0.5187775 4.113383
vt 1.006795 1.77307
vt 0.8060962 4.113383
vt -0.7194766 1.77307
vt -0.5187775 4.113383
vt -0.03065169 13.86304
vt 0.3171302 6.468099
vt -0.7538146 6.468099
vt -0.4060328 13.86304
vt 0.3171302 6.468099
vt -0.03065169 13.86304
vt -0.7538146 6.468099
vt -0.4060328 13.86304
vt -0.07479434 -0.3584786
vt -0.1618726 0.006662923
vt 0.1108102 0.2646456
vt 0.2849666 -0.4656375
vt 0.4705712 0.1574868
vt 0.5576494 -0.2076547
vt -0.1618726 0.006662923
vt -0.07479434 -0.3584786
vt 0.1108102 0.2646456
vt 0.2849666 -0.4656375
vt 0.4705712 0.1574868
vt 0.5576494 -0.2076547
vt 0.1130076 13.87682
vt 0.4607895 6.48188
vt -0.6101553 6.48188
vt -0.2623734 13.87682
vt 0.4607895 6.48188
vt 0.1130076 13.87682
vt -0.6101553 6.48188
vt -0.2623734 13.87682
vt 0.7194766 1.722812
vt -1.006795 1.722812
vt -0.8060962 4.063125
vt 0.5187775 4.063125
vt -1.006795 1.722812
vt 0.7194766 1.722812
vt -0.8060962 4.063125
vt 0.5187775 4.063125
vt 0.8807791 4.082338
vt 1.081478 1.742026
vt -0.6447937 1.742026
vt -0.4440946 4.082338
vt 1.081478 1.742026
vt 0.8807791 4.082338
vt -0.6447937 1.742026
vt -0.4440946 4.082338
vt 0.4607895 6.461539
vt 0.587754 4.195085
vt -0.7371198 4.195085
vt -0.6101553 6.461539
vt 0.587754 4.195085
vt 0.4607895 6.461539
vt -0.7371198 4.195085
vt -0.6101553 6.461539
vt 0.7371198 4.057209
vt 0.9378189 1.716897
vt -0.7884531 1.716897
vt -0.587754 4.057209
vt 0.9378189 1.716897
vt 0.7371198 4.057209
vt -0.7884531 1.716897
vt -0.587754 4.057209
vt 0.6791317 6.457675
vt 0.8060962 4.19122
vt -0.5187775 4.19122
vt -0.3918131 6.457675
vt 0.8060962 4.19122
vt 0.6791317 6.457675
vt -0.5187775 4.19122
vt -0.3918131 6.457675
vt 0.2778162 1.894257
vt 1.767471 0.4849083
vt 1.291766 -1.509845
vt -0.673593 -2.095249
vt -1.687543 1.308853
vt -2.163248 -0.6859002
vt 1.767471 0.4849083
vt 0.2778162 1.894257
vt 1.291766 -1.509845
vt -0.673593 -2.095249
vt -1.687543 1.308853
vt -2.163248 -0.6859002
vt 0.4440946 4.094169
vt 0.6447937 1.753856
vt -1.081478 1.753856
vt -0.8807791 4.094169
vt 0.6447937 1.753856
vt 0.4440946 4.094169
vt -1.081478 1.753856
vt -0.8807791 4.094169
vt 0.4060328 13.85655
vt 0.7538146 6.461611
vt -0.3171302 6.461611
vt 0.03065169 13.85655
vt 0.7538146 6.461611
vt 0.4060328 13.85655
vt -0.3171302 6.461611
vt 0.03065169 13.85655
vt 0.3918131 6.451075
vt -0.6791317 6.451075
vt -0.3313499 13.84602
vt 0.04403121 13.84602
vt -0.6791317 6.451075
vt 0.3918131 6.451075
vt -0.3313499 13.84602
vt 0.04403121 13.84602
vt 1.081478 1.758237
vt 1.243688 -0.2535778
vt -0.8070034 -0.2535778
vt -0.6447937 1.758237
vt 1.243688 -0.2535778
vt 1.081478 1.758237
vt -0.8070034 -0.2535778
vt -0.6447937 1.758237
vt 0.3171302 6.445124
vt 0.4440946 4.178669
vt -0.8807791 4.178669
vt -0.7538146 6.445124
vt 0.4440946 4.178669
vt 0.3171302 6.445124
vt -0.8807791 4.178669
vt -0.7538146 6.445124
vt 0.2623734 13.84277
vt 0.6101553 6.447831
vt -0.4607895 6.447831
vt -0.1130076 13.84277
vt 0.6101553 6.447831
vt 0.2623734 13.84277
vt -0.4607895 6.447831
vt -0.1130076 13.84277
vt 0.3313499 13.87358
vt 0.6791317 6.478636
vt -0.3918131 6.478636
vt -0.04403121 13.87358
vt 0.6791317 6.478636
vt 0.3313499 13.87358
vt -0.3918131 6.478636
vt -0.04403121 13.87358
vt 1.006795 1.787425
vt 1.169005 -0.2243902
vt -0.8816863 -0.2243902
vt -0.7194766 1.787425
vt 1.169005 -0.2243902
vt 1.006795 1.787425
vt -0.8816863 -0.2243902
vt -0.7194766 1.787425
vt 0.9378189 1.734611
vt 1.100029 -0.277204
vt -0.9506628 -0.277204
vt -0.7884531 1.734611
vt 1.100029 -0.277204
vt 0.9378189 1.734611
vt -0.9506628 -0.277204
vt -0.7884531 1.734611
vt 0.6447937 1.76936
vt 0.8070034 -0.2424549
vt -1.243688 -0.2424549
vt -1.081478 1.76936
vt 0.8070034 -0.2424549
vt 0.6447937 1.76936
vt -1.243688 -0.2424549
vt -1.081478 1.76936
vn -0.6796318 0.1485362 -0.7183576
vn -0.6796318 0.1485362 -0.7183576
vn -0.6796318 0.1485362 -0.7183576
vn -0.6796318 0.1485362 -0.7183576
vn 0.6796318 -0.1485362 0.7183576
vn 0.6796318 -0.1485362 0.7183576
vn 0.6796318 -0.1485362 0.7183576
vn 0.6796318 -0.1485362 0.7183576
vn 0.9631901 0.1396527 -0.2296996
vn 0.9631901 0.1396527 -0.2296996
vn 0.9631901 0.1396527 -0.2296996
vn 0.9631901 0.1396527 -0.2296996
vn -0.9631901 -0.1396527 0.2296996
vn -0.9631901 -0.1396527 0.2296996
vn -0.9631901 -0.1396527 0.2296996
vn -0.9631901 -0.1396527 0.2296996
vn 0.9681327 0.09702772 -0.2308783
vn 0.9681327 0.09702772 -0.2308783
vn 0.9681327 0.09702772 -0.2308783
vn 0.9681327 0.09702772 -0.2308783
vn -0.9681327 -0.09702772 0.2308783
vn -0.9681327 -0.09702772 0.2308783
vn -0.9681327 -0.09702772 0.2308783
vn -0.9681327 -0.09702772 0.2308783
vn -0.2841199 0.09702771 0.9538666
vn -0.2841199 0.09702771 0.9538666
vn -0.2841199 0.09702771 0.9538666
vn -0.2841199 0.09702771 0.9538666
vn 0.2841199 -0.09702771 -0.9538666
vn 0.2841199 -0.09702771 -0.9538666
vn 0.2841199 -0.09702771 -0.9538666
vn 0.2841199 -0.09702771 -0.9538666
vn 0.6840127 0.0970277 0.7229883
vn 0.6840127 0.0970277 0.7229883
vn 0.6840127 0.0970277 0.7229883
vn 0.6840127 0.0970277 0.7229883
vn -0.6840127 -0.0970277 -0.7229883
vn -0.6840127 -0.0970277 -0.7229883
vn -0.6840127 -0.0970277 -0.7229883
vn -0.6840127 -0.0970277 -0.7229883
vn -0.6805208 0.1396527 -0.7192973
vn -0.6805208 0.1396527 -0.7192973
vn -0.6805208 0.1396527 -0.7192973
vn -0.6805208 0.1396527 -0.7192973
vn 0.6805208 -0.1396527 0.7192973
vn 0.6805208 -0.1396527 0.7192973
vn 0.6805208 -0.1396527 0.7192973
vn 0.6805208 -0.1396527 0.7192973
vn -0.9619318 0.1485362 0.2293995
vn -0.9619318 0.1485362 0.2293995
vn -0.9619318 0.1485362 0.2293995
vn -0.9619318 0.1485362 0.2293995
vn 0.9619318 -0.1485362 -0.2293995
vn 0.9619318 -0.1485362 -0.2293995
vn 0.9619318 -0.1485362 -0.2293995
vn 0.9619318 -0.1485362 -0.2293995
vn 0.2845181 0.08145783 -0.9552037
vn 0.2845181 0.08145783 -0.9552037
vn 0.2845181 0.08145783 -0.9552037
vn 0.2845181 0.08145783 -0.9552037
vn -0.2845181 -0.08145783 0.9552037
vn -0.2845181 -0.08145783 0.9552037
vn -0.2845181 -0.08145783 0.9552037
vn -0.2845181 -0.08145783 0.9552037
vn 0 1 0
vn 0 1 0
vn 0 1 0
vn 0 1 0
vn 0 1 0
vn 0 1 0
vn 0 -1 0
vn 0 -1 0
vn 0 -1 0
vn 0 -1 0
vn 0 -1 0
vn 0 -1 0
vn -0.6849716 0.08145783 -0.7240018
vn -0.6849716 0.08145783 -0.7240018
vn -0.6849716 0.08145783 -0.7240018
vn -0.6849716 0.08145783 -0.7240018
vn 0.6849716 -0.08145783 0.7240018
vn 0.6849716 -0.08145783 0.7240018
vn 0.6849716 -0.08145783 0.7240018
vn 0.6849716 -0.08145783 0.7240018
vn 0.9619318 0.1485362 -0.2293995
vn 0.9619318 0.1485362 -0.2293995
vn 0.9619318 0.1485362 -0.2293995
vn 0.9619318 0.1485362 -0.2293995
vn -0.9619318 -0.1485362 0.2293995
vn -0.9619318 -0.1485362 0.2293995
vn -0.9619318 -0.1485362 0.2293995
vn -0.9619318 -0.1485362 0.2293995
vn -0.2823001 0.1485361 0.9477571
vn -0.2823001 0.1485361 0.9477571
vn -0.2823001 0.1485361 0.9477571
vn -0.2823001 0.1485361 0.9477571
vn 0.2823001 -0.1485361 -0.9477571
vn 0.2823001 -0.1485361 -0.9477571
vn 0.2823001 -0.1485361 -0.9477571
vn 0.2823001 -0.1485361 -0.9477571
vn -0.6840127 0.0970277 -0.7229883
vn -0.6840127 0.0970277 -0.7229883
vn -0.6840127 0.0970277 -0.7229883
vn -0.6840127 0.0970277 -0.7229883
vn 0.6840127 -0.0970277 0.7229883
vn 0.6840127 -0.0970277 0.7229883
vn 0.6840127 -0.0970277 0.7229883
vn 0.6840127 -0.0970277 0.7229883
vn 0.6796318 0.1485362 0.7183576
vn 0.6796318 0.1485362 0.7183576
vn 0.6796318 0.1485362 0.7183576
vn 0.6796318 0.1485362 0.7183576
vn -0.6796318 -0.1485362 -0.7183576
vn -0.6796318 -0.1485362 -0.7183576
vn -0.6796318 -0.1485362 -0.7183576
vn -0.6796318 -0.1485362 -0.7183576
vn -0.9681327 0.09702772 0.2308783
vn -0.9681327 0.09702772 0.2308783
vn -0.9681327 0.09702772 0.2308783
vn -0.9681327 0.09702772 0.2308783
vn 0.9681327 -0.09702772 -0.2308783
vn 0.9681327 -0.09702772 -0.2308783
vn 0.9681327 -0.09702772 -0.2308783
vn 0.9681327 -0.09702772 -0.2308783
vn 0 -1 0
vn 0 -1 0
vn 0 -1 0
vn 0 -1 0
vn 0 -1 0
vn 0 -1 0
vn 0 1 0
vn 0 1 0
vn 0 1 0
vn 0 1 0
vn 0 1 0
vn 0 1 0
vn 0.2823001 0.1485361 -0.9477571
vn 0.2823001 0.1485361 -0.9477571
vn 0.2823001 0.1485361 -0.9477571
vn 0.2823001 0.1485361 -0.9477571
vn -0.2823001 -0.1485361 0.9477571
vn -0.2823001 -0.1485361 0.9477571
vn -0.2823001 -0.1485361 0.9477571
vn -0.2823001 -0.1485361 0.9477571
vn -0.2845181 0.08145783 0.9552037
vn -0.2845181 0.08145783 0.9552037
vn -0.2845181 0.08145783 0.9552037
vn -0.2845181 0.08145783 0.9552037
vn 0.2845181 -0.08145783 -0.9552037
vn 0.2845181 -0.08145783 -0.9552037
vn 0.2845181 -0.08145783 -0.9552037
vn 0.2845181 -0.08145783 -0.9552037
vn 0.9694898 0.08145784 -0.2312019
vn 0.9694898 0.08145784 -0.2312019
vn 0.9694898 0.08145784 -0.2312019
vn 0.9694898 0.08145784 -0.2312019
vn -0.9694898 -0.08145784 0.2312019
vn -0.9694898 -0.08145784 0.2312019
vn -0.9694898 -0.08145784 0.2312019
vn -0.9694898 -0.08145784 0.2312019
vn -0.2826694 0.1396527 0.9489969
vn -0.2826694 0.1396527 0.9489969
vn -0.2826694 0.1396527 0.9489969
vn -0.2826694 0.1396527 0.9489969
vn 0.2826694 -0.1396527 -0.9489969
vn 0.2826694 -0.1396527 -0.9489969
vn 0.2826694 -0.1396527 -0.9489969
vn 0.2826694 -0.1396527 -0.9489969
vn 0.2841199 0.09702771 -0.9538666
vn 0.2841199 0.09702771 -0.9538666
vn 0.2841199 0.09702771 -0.9538666
vn 0.2841199 0.09702771 -0.9538666
vn -0.2841199 -0.09702771 0.9538666
vn -0.2841199 -0.09702771 0.9538666
vn -0.2841199 -0.09702771 0.9538666
vn -0.2841199 -0.09702771 0.9538666
vn 0.6849716 0.08145783 0.7240018
vn 0.6849716 0.08145783 0.7240018
vn 0.6849716 0.08145783 0.7240018
vn 0.6849716 0.08145783 0.7240018
vn -0.6849716 -0.08145783 -0.7240018
vn -0.6849716 -0.08145783 -0.7240018
vn -0.6849716 -0.08145783 -0.7240018
vn -0.6849716 -0.08145783 -0.7240018
vn -0.9694898 0.08145784 0.2312019
vn -0.9694898 0.08145784 0.2312019
vn -0.9694898 0.08145784 0.2312019
vn -0.9694898 0.08145784 0.2312019
vn 0.9694898 -0.08145784 -0.2312019
vn 0.9694898 -0.08145784 -0.2312019
vn 0.9694898 -0.08145784 -0.2312019
vn 0.9694898 -0.08145784 -0.2312019
vn -0.9631901 0.1396527 0.2296996
vn -0.9631901 0.1396527 0.2296996
vn -0.9631901 0.1396527 0.2296996
vn -0.9631901 0.1396527 0.2296996
vn 0.9631901 -0.1396527 -0.2296996
vn 0.9631901 -0.1396527 -0.2296996
vn 0.9631901 -0.1396527 -0.2296996
vn 0.9631901 -0.1396527 -0.2296996
vn 0.6805208 0.1396527 0.7192973
vn 0.6805208 0.1396527 0.7192973
vn 0.6805208 0.1396527 0.7192973
vn 0.6805208 0.1396527 0.7192973
vn -0.6805208 -0.1396527 -0.7192973
vn -0.6805208 -0.1396527 -0.7192973
vn -0.6805208 -0.1396527 -0.7192973
vn -0.6805208 -0.1396527 -0.7192973
vn 0.2826694 0.1396527 -0.9489969
vn 0.2826694 0.1396527 -0.9489969
vn 0.2826694 0.1396527 -0.9489969
vn 0.2826694 0.1396527 -0.9489969
vn -0.2826694 -0.1396527 0.9489969
vn -0.2826694 -0.1396527 0.9489969
vn -0.2826694 -0.1396527 0.9489969
vn -0.2826694 -0.1396527 0.9489969
g Stalagmite_Ice_01_0
f 3/3/3 2/2/2 1/1/1
f 1/1/1 4/4/4 3/3/3
f 7/7/7 6/6/6 5/5/5
f 6/6/6 7/7/7 8/8/8
f 11/11/11 10/10/10 9/9/9
f 9/9/9 12/12/12 11/11/11
f 15/15/15 14/14/14 13/13/13
f 14/14/14 15/15/15 16/16/16
f 19/19/19 18/18/18 17/17/17
f 17/17/17 20/20/20 19/19/19
f 23/23/23 22/22/22 21/21/21
f 22/22/22 23/23/23 24/24/24
f 27/27/27 26/26/26 25/25/25
f 25/25/25 28/28/28 27/27/27
f 31/31/31 30/30/30 29/29/29
f 30/30/30 31/31/31 32/32/32
f 35/35/35 34/34/34 33/33/33
f 33/33/33 36/36/36 35/35/35
f 39/39/39 38/38/38 37/37/37
f 38/38/38 39/39/39 40/40/40
f 43/43/43 42/42/42 41/41/41
f 41/41/41 44/44/44 43/43/43
f 47/47/47 46/46/46 45/45/45
f 46/46/46 47/47/47 48/48/48
f 51/51/51 50/50/50 49/49/49
f 49/49/49 52/52/52 51/51/51
f 55/55/55 54/54/54 53/53/53
f 54/54/54 55/55/55 56/56/56
f 59/59/59 58/58/58 57/57/57
f 57/57/57 60/60/60 59/59/59
f 63/63/63 62/62/62 61/61/61
f 62/62/62 63/63/63 64/64/64
f 67/67/67 66/66/66 65/65/65
f 65/65/65 68/68/68 67/67/67
f 68/68/68 69/69/69 67/67/67
f 68/68/68 70/70/70 69/69/69
f 73/73/73 72/72/72 71/71/71
f 72/72/72 73/73/73 74/74/74
f 74/74/74 73/73/73 75/75/75
f 74/74/74 75/75/75 76/76/76
f 79/79/79 78/78/78 77/77/77
f 77/77/77 80/80/80 79/79/79
f 83/83/83 82/82/82 81/81/81
f 82/82/82 83/83/83 84/84/84
f 87/87/87 86/86/86 85/85/85
f 85/85/85 88/88/88 87/87/87
f 91/91/91 90/90/90 89/89/89
f 90/90/90 91/91/91 92/92/92
f 95/95/95 94/94/94 93/93/93
f 93/93/93 96/96/96 95/95/95
f 99/99/99 98/98/98 97/97/97
f 98/98/98 99/99/99 100/100/100
f 103/103/103 102/102/102 101/101/101
f 101/101/101 104/104/104 103/103/103
f 107/107/107 106/106/106 105/105/105
f 106/106/106 107/107/107 108/108/108
f 111/111/111 110/110/110 109/109/109
f 109/109/109 112/112/112 111/111/111
f 115/115/115 114/114/114 113/113/113
f 114/114/114 115/115/115 116/116/116
f 119/119/119 118/118/118 117/117/117
f 117/117/117 120/120/120 119/119/119
f 123/123/123 122/122/122 121/121/121
f 122/122/122 123/123/123 124/124/124
f 127/127/127 126/126/126 125/125/125
f 125/125/125 128/128/128 127/127/127
f 125/125/125 129/129/129 128/128/128
f 129/129/129 130/130/130 128/128/128
f 133/133/133 132/132/132 131/131/131
f 132/132/132 133/133/133 134/134/134
f 132/132/132 134/134/134 135/135/135
f 135/135/135 134/134/134 136/136/136
f 139/139/139 138/138/138 137/137/137
f 137/137/137 140/140/140 139/139/139
f 143/143/143 142/142/142 141/141/141
f 142/142/142 143/143/143 144/144/144
f 147/147/147 146/146/146 145/145/145
f 145/145/145 148/148/148 147/147/147
f 151/151/151 150/150/150 149/149/149
f 150/150/150 151/151/151 152/152/152
f 155/155/155 154/154/154 153/153/153
f 153/153/153 156/156/156 155/155/155
f 159/159/159 158/158/158 157/157/157
f 158/158/158 159/159/159 160/160/160
f 163/163/163 162/162/162 161/161/161
f 161/161/161 164/164/164 163/163/163
f 167/167/167 166/166/166 165/165/165
f 166/166/166 167/167/167 168/168/168
f 171/171/171 170/170/170 169/169/169
f 169/169/169 172/172/172 171/171/171
f 175/175/175 174/174/174 173/173/173
f 174/174/174 175/175/175 176/176/176
f 179/179/179 178/178/178 177/177/177
f 177/177/177 180/180/180 179/179/179
f 183/183/183 182/182/182 181/181/181
f 182/182/182 183/183/183 184/184/184
f 187/187/187 186/186/186 185/185/185
f 185/185/185 188/188/188 187/187/187
f 191/191/191 190/190/190 189/189/189
f 190/190/190 191/191/191 192/192/192
f 195/195/195 194/194/194 193/193/193
f 193/193/193 196/196/196 195/195/195
f 199/199/199 198/198/198 197/197/197
f 198/198/198 199/199/199 200/200/200
f 203/203/203 202/202/202 201/201/201
f 201/201/201 204/204/204 203/203/203
f 207/207/207 206/206/206 205/205/205
f 206/206/206 207/207/207 208/208/208
f 211/211/211 210/210/210 209/209/209
f 209/209/209 212/212/212 211/211/211
f 215/215/215 214/214/214 213/213/213
f 214/214/214 215/215/215 216/216/216
