g starfish_T
v 0.0884771 0.1053553 0.06005968
v 0.1482929 2.765589E-08 0.107741
v 0.1323538 9.59883E-08 0.3860486
v 0.0884771 0.1053553 0.06005968
v 0.4080535 1.678478E-09 0.0065803
v 0.1482929 2.765589E-08 0.107741
v 0.08847709 0.1053553 -0.06005974
v 0.1482928 -2.765589E-08 -0.107741
v 0.4080535 -1.678466E-09 -0.006580298
v 0.08847709 0.1053553 -0.06005974
v 0.1323537 -9.59883E-08 -0.3860486
v 0.1482928 -2.765589E-08 -0.107741
v -0.02576337 0.1053553 -0.09717872
v -0.05664285 -4.190232E-08 -0.1743286
v 0.1198372 -9.731345E-08 -0.3901155
v -0.02576337 0.1053553 -0.09717872
v -0.3262544 -6.49859E-08 -0.2451716
v -0.05664285 -4.190232E-08 -0.1743286
v -0.1833 2.610738E-15 1.602459E-08
v -0.33399 -6.151663E-08 -0.2345245
v -0.09636777 0.1053553 -1.100322E-08
v -0.09636777 0.1053553 -1.100322E-08
v -0.3339901 6.151658E-08 0.2345244
v -0.1833 2.610738E-15 1.602459E-08
v -0.02576334 0.1053553 0.09717867
v -0.05664282 4.190232E-08 0.1743286
v -0.3262545 6.498586E-08 0.2451715
v -0.09636777 0.1053553 -1.100322E-08
v -0.02576337 0.1053553 -0.09717872
v 0.08847709 0.1053553 -0.06005974
v 0.0884771 0.1053553 0.06005968
v -0.02576334 0.1053553 0.09717867
v 0.0884771 0.1053553 0.06005968
v 0.08847709 0.1053553 -0.06005974
v 0.4080535 -1.678466E-09 -0.006580298
v 0.4080535 1.678478E-09 0.0065803
v -0.09636777 0.1053553 -1.100322E-08
v -0.02576334 0.1053553 0.09717867
v -0.3262545 6.498586E-08 0.2451715
v -0.3339901 6.151658E-08 0.2345244
v 0.08847709 0.1053553 -0.06005974
v -0.02576337 0.1053553 -0.09717872
v 0.1198372 -9.731345E-08 -0.3901155
v 0.1323537 -9.59883E-08 -0.3860486
v -0.02576334 0.1053553 0.09717867
v 0.0884771 0.1053553 0.06005968
v 0.1323538 9.59883E-08 0.3860486
v 0.1198373 9.731345E-08 0.3901155
v -0.02576337 0.1053553 -0.09717872
v -0.09636777 0.1053553 -1.100322E-08
v -0.33399 -6.151663E-08 -0.2345245
v -0.3262544 -6.49859E-08 -0.2451716
v -0.02576334 0.1053553 0.09717867
v 0.1198373 9.731345E-08 0.3901155
v -0.05664282 4.190232E-08 0.1743286
v 0.0884771 -0.06838373 0.06005974
v 0.1323538 9.59883E-08 0.3860486
v 0.1482929 2.765589E-08 0.107741
v 0.0884771 -0.06838373 0.06005974
v 0.1482929 2.765589E-08 0.107741
v 0.4080535 1.678478E-09 0.0065803
v 0.08847709 -0.06838378 -0.06005969
v 0.4080535 -1.678466E-09 -0.006580298
v 0.1482928 -2.765589E-08 -0.107741
v 0.08847709 -0.06838378 -0.06005969
v 0.1482928 -2.765589E-08 -0.107741
v 0.1323537 -9.59883E-08 -0.3860486
v -0.02576337 -0.06838378 -0.09717868
v 0.1198372 -9.731345E-08 -0.3901155
v -0.05664285 -4.190232E-08 -0.1743286
v -0.02576337 -0.06838378 -0.09717868
v -0.05664285 -4.190232E-08 -0.1743286
v -0.3262544 -6.49859E-08 -0.2451716
v -0.1833 2.610738E-15 1.602459E-08
v -0.09636777 -0.06838378 3.815758E-08
v -0.33399 -6.151663E-08 -0.2345245
v -0.09636777 -0.06838378 3.815758E-08
v -0.1833 2.610738E-15 1.602459E-08
v -0.3339901 6.151658E-08 0.2345244
v -0.02576334 -0.06838374 0.09717873
v -0.3262545 6.498586E-08 0.2451715
v -0.05664282 4.190232E-08 0.1743286
v 0.08847709 -0.06838378 -0.06005969
v -0.02576337 -0.06838378 -0.09717868
v -0.09636777 -0.06838378 3.815758E-08
v 0.0884771 -0.06838373 0.06005974
v -0.02576334 -0.06838374 0.09717873
v 0.0884771 -0.06838373 0.06005974
v 0.4080535 1.678478E-09 0.0065803
v 0.4080535 -1.678466E-09 -0.006580298
v 0.08847709 -0.06838378 -0.06005969
v -0.09636777 -0.06838378 3.815758E-08
v -0.3339901 6.151658E-08 0.2345244
v -0.3262545 6.498586E-08 0.2451715
v -0.02576334 -0.06838374 0.09717873
v 0.08847709 -0.06838378 -0.06005969
v 0.1323537 -9.59883E-08 -0.3860486
v 0.1198372 -9.731345E-08 -0.3901155
v -0.02576337 -0.06838378 -0.09717868
v -0.02576334 -0.06838374 0.09717873
v 0.1198373 9.731345E-08 0.3901155
v 0.1323538 9.59883E-08 0.3860486
v 0.0884771 -0.06838373 0.06005974
v -0.02576337 -0.06838378 -0.09717868
v -0.3262544 -6.49859E-08 -0.2451716
v -0.33399 -6.151663E-08 -0.2345245
v -0.09636777 -0.06838378 3.815758E-08
v -0.02576334 -0.06838374 0.09717873
v -0.05664282 4.190232E-08 0.1743286
v 0.1198373 9.731345E-08 0.3901155
vt 0.5731027 0.5691138
vt 0.5748537 0.571384
vt 0.5806948 0.5700589
vt 0.5731027 0.5691138
vt 0.5718511 0.5765061
vt 0.5748537 0.571384
vt 0.5703661 0.5691079
vt 0.5686205 0.5713809
vt 0.5716386 0.5764918
vt 0.5703661 0.5691079
vt 0.5627766 0.5700621
vt 0.5686205 0.5713809
vt 0.5695373 0.5665064
vt 0.5667878 0.5654692
vt 0.5627096 0.5698496
vt 0.5695373 0.5665064
vt 0.5662096 0.5596182
vt 0.5667878 0.5654692
vt 0.5717326 0.5619674
vt 0.5663906 0.5595082
vt 0.571732 0.5649313
vt 0.571732 0.5649313
vt 0.5770779 0.5595082
vt 0.5717326 0.5619674
vt 0.5739289 0.5665112
vt 0.576679 0.5654721
vt 0.5772594 0.5596179
vt 0.571732 0.5649313
vt 0.5695373 0.5665064
vt 0.5703661 0.5691079
vt 0.5731027 0.5691138
vt 0.5739289 0.5665112
vt 0.5731027 0.5691138
vt 0.5703661 0.5691079
vt 0.5716386 0.5764918
vt 0.5718511 0.5765061
vt 0.571732 0.5649313
vt 0.5739289 0.5665112
vt 0.5772594 0.5596179
vt 0.5770779 0.5595082
vt 0.5703661 0.5691079
vt 0.5695373 0.5665064
vt 0.5627096 0.5698496
vt 0.5627766 0.5700621
vt 0.5739289 0.5665112
vt 0.5731027 0.5691138
vt 0.5806948 0.5700589
vt 0.5807614 0.569847
vt 0.5695373 0.5665064
vt 0.571732 0.5649313
vt 0.5663906 0.5595082
vt 0.5662096 0.5596182
vt 0.5739289 0.5665112
vt 0.5807614 0.569847
vt 0.576679 0.5654721
vt 0.5728032 0.5836657
vt 0.5801382 0.5827301
vt 0.5741858 0.5818928
vt 0.5728032 0.5836657
vt 0.5741858 0.5818928
vt 0.5715898 0.5765131
vt 0.5701191 0.5836693
vt 0.5713456 0.5765213
vt 0.5687388 0.5818949
vt 0.5701191 0.5836693
vt 0.5687388 0.5818949
vt 0.562785 0.5827298
vt 0.5692995 0.5862234
vt 0.5627096 0.5829683
vt 0.5671046 0.5870688
vt 0.5692995 0.5862234
vt 0.5671046 0.5870688
vt 0.5660436 0.592924
vt 0.5714605 0.5901865
vt 0.57146 0.587782
vt 0.5662471 0.5930605
vt 0.57146 0.587782
vt 0.5714605 0.5901865
vt 0.5766775 0.59306
vt 0.5736218 0.5862202
vt 0.5768813 0.5929235
vt 0.575817 0.587066
vt 0.5701191 0.5836693
vt 0.5692995 0.5862234
vt 0.57146 0.587782
vt 0.5728032 0.5836657
vt 0.5736218 0.5862202
vt 0.5728032 0.5836657
vt 0.5715898 0.5765131
vt 0.5713456 0.5765213
vt 0.5701191 0.5836693
vt 0.57146 0.587782
vt 0.5766775 0.59306
vt 0.5768813 0.5929235
vt 0.5736218 0.5862202
vt 0.5701191 0.5836693
vt 0.562785 0.5827298
vt 0.5627096 0.5829683
vt 0.5692995 0.5862234
vt 0.5736218 0.5862202
vt 0.5802135 0.5829683
vt 0.5801382 0.5827301
vt 0.5728032 0.5836657
vt 0.5692995 0.5862234
vt 0.5660436 0.592924
vt 0.5662471 0.5930605
vt 0.57146 0.587782
vt 0.5736218 0.5862202
vt 0.575817 0.587066
vt 0.5802135 0.5829683
vn 0.8588433 0.5098716 0.04918708
vn 0.8588433 0.5098716 0.04918708
vn 0.8588433 0.5098716 0.04918708
vn 0.3073493 0.531677 0.7892122
vn 0.3073493 0.531677 0.7892122
vn 0.3073493 0.531677 0.7892122
vn 0.3073494 0.5316768 -0.7892124
vn 0.3073494 0.5316768 -0.7892124
vn 0.3073494 0.5316768 -0.7892124
vn 0.8588434 0.5098712 -0.04918735
vn 0.8588434 0.5098712 -0.04918735
vn 0.8588434 0.5098712 -0.04918735
vn -0.6369918 0.5681918 -0.5209603
vn -0.6369918 0.5681918 -0.5209603
vn -0.6369918 0.5681918 -0.5209603
vn 0.2146552 0.5353068 -0.816927
vn 0.2146552 0.5353068 -0.816927
vn 0.2146552 0.5353068 -0.816927
vn -0.6911038 0.5702529 0.4440576
vn -0.6911038 0.5702529 0.4440576
vn -0.6911038 0.5702529 0.4440576
vn -0.6911036 0.5702525 -0.4440584
vn -0.6911036 0.5702525 -0.4440584
vn -0.6911036 0.5702525 -0.4440584
vn 0.2146548 0.5353072 0.8169268
vn 0.2146548 0.5353072 0.8169268
vn 0.2146548 0.5353072 0.8169268
vn 0 1 0
vn 0 1 0
vn 0 1 0
vn 0 1 0
vn 0 1 0
vn 0.3130962 0.9497214 0
vn 0.3130962 0.9497214 0
vn 0.3130962 0.9497214 0
vn 0.3130962 0.9497214 0
vn -0.245989 0.9526532 0.1787213
vn -0.245989 0.9526532 0.1787213
vn -0.245989 0.9526532 0.1787213
vn -0.245989 0.9526532 0.1787213
vn 0.09566713 0.9508717 -0.2944329
vn 0.09566713 0.9508717 -0.2944329
vn 0.09566713 0.9508717 -0.2944329
vn 0.09566713 0.9508717 -0.2944329
vn 0.09566693 0.9508719 0.2944326
vn 0.09566693 0.9508719 0.2944326
vn 0.09566693 0.9508719 0.2944326
vn 0.09566693 0.9508719 0.2944326
vn -0.2459891 0.952653 -0.1787218
vn -0.2459891 0.952653 -0.1787218
vn -0.2459891 0.952653 -0.1787218
vn -0.2459891 0.952653 -0.1787218
vn -0.6369916 0.5681921 0.5209601
vn -0.6369916 0.5681921 0.5209601
vn -0.6369916 0.5681921 0.5209601
vn 0.7372404 -0.6743098 0.042223
vn 0.7372404 -0.6743098 0.042223
vn 0.7372404 -0.6743098 0.042223
vn 0.2608509 -0.6952022 0.6698139
vn 0.2608509 -0.6952022 0.6698139
vn 0.2608509 -0.6952022 0.6698139
vn 0.2608509 -0.6952026 -0.6698135
vn 0.2608509 -0.6952026 -0.6698135
vn 0.2608509 -0.6952026 -0.6698135
vn 0.7372407 -0.6743096 -0.0422227
vn 0.7372407 -0.6743096 -0.0422227
vn 0.7372407 -0.6743096 -0.0422227
vn -0.5301908 -0.728613 -0.4336134
vn -0.5301908 -0.728613 -0.4336134
vn -0.5301908 -0.728613 -0.4336134
vn 0.1818323 -0.6986117 -0.6920105
vn 0.1818323 -0.6986117 -0.6920105
vn 0.1818323 -0.6986117 -0.6920105
vn -0.5745894 -0.7304404 0.3691934
vn -0.5745894 -0.7304404 0.3691934
vn -0.5745894 -0.7304404 0.3691934
vn -0.574589 -0.7304408 -0.3691933
vn -0.574589 -0.7304408 -0.3691933
vn -0.574589 -0.7304408 -0.3691933
vn 0.181832 -0.6986116 0.6920109
vn 0.181832 -0.6986116 0.6920109
vn 0.181832 -0.6986116 0.6920109
vn 0 -1 0
vn 0 -1 0
vn 0 -1 0
vn 0 -1 0
vn 0 -1 0
vn 0.2092455 -0.9778631 0
vn 0.2092455 -0.9778631 0
vn 0.2092455 -0.9778631 0
vn 0.2092455 -0.9778631 0
vn -0.1641167 -0.9792078 0.119238
vn -0.1641167 -0.9792078 0.119238
vn -0.1641167 -0.9792078 0.119238
vn -0.1641167 -0.9792078 0.119238
vn 0.06389242 -0.9783917 -0.1966406
vn 0.06389242 -0.9783917 -0.1966406
vn 0.06389242 -0.9783917 -0.1966406
vn 0.06389242 -0.9783917 -0.1966406
vn 0.06389268 -0.9783916 0.196641
vn 0.06389268 -0.9783916 0.196641
vn 0.06389268 -0.9783916 0.196641
vn 0.06389268 -0.9783916 0.196641
vn -0.1641166 -0.9792079 -0.1192374
vn -0.1641166 -0.9792079 -0.1192374
vn -0.1641166 -0.9792079 -0.1192374
vn -0.1641166 -0.9792079 -0.1192374
vn -0.5301908 -0.7286128 0.433614
vn -0.5301908 -0.7286128 0.433614
vn -0.5301908 -0.7286128 0.433614
g starfish_T_0
f 3/3/3 2/2/2 1/1/1
f 6/6/6 5/5/5 4/4/4
f 9/9/9 8/8/8 7/7/7
f 12/12/12 11/11/11 10/10/10
f 15/15/15 14/14/14 13/13/13
f 18/18/18 17/17/17 16/16/16
f 21/21/21 20/20/20 19/19/19
f 24/24/24 23/23/23 22/22/22
f 27/27/27 26/26/26 25/25/25
f 30/30/30 29/29/29 28/28/28
f 28/28/28 31/31/31 30/30/30
f 28/28/28 32/32/32 31/31/31
f 35/35/35 34/34/34 33/33/33
f 36/36/36 35/35/35 33/33/33
f 39/39/39 38/38/38 37/37/37
f 40/40/40 39/39/39 37/37/37
f 43/43/43 42/42/42 41/41/41
f 44/44/44 43/43/43 41/41/41
f 47/47/47 46/46/46 45/45/45
f 48/48/48 47/47/47 45/45/45
f 51/51/51 50/50/50 49/49/49
f 52/52/52 51/51/51 49/49/49
f 55/55/55 54/54/54 53/53/53
f 58/58/58 57/57/57 56/56/56
f 61/61/61 60/60/60 59/59/59
f 64/64/64 63/63/63 62/62/62
f 67/67/67 66/66/66 65/65/65
f 70/70/70 69/69/69 68/68/68
f 73/73/73 72/72/72 71/71/71
f 76/76/76 75/75/75 74/74/74
f 79/79/79 78/78/78 77/77/77
f 82/82/82 81/81/81 80/80/80
f 85/85/85 84/84/84 83/83/83
f 83/83/83 86/86/86 85/85/85
f 86/86/86 87/87/87 85/85/85
f 90/90/90 89/89/89 88/88/88
f 91/91/91 90/90/90 88/88/88
f 94/94/94 93/93/93 92/92/92
f 95/95/95 94/94/94 92/92/92
f 98/98/98 97/97/97 96/96/96
f 99/99/99 98/98/98 96/96/96
f 102/102/102 101/101/101 100/100/100
f 103/103/103 102/102/102 100/100/100
f 106/106/106 105/105/105 104/104/104
f 107/107/107 106/106/106 104/104/104
f 110/110/110 109/109/109 108/108/108
