g Terrain_Tile_Grass_Dirt_Stairs_01
v 43.35491 2.292069E-15 12.7
v 40.93616 0 12.7
v 40.93616 29.083 12.7
v 43.35491 24.5872 12.7
v 43.35491 29.083 12.7
v 47.43861 20.2692 0
v 47.43861 20.2692 10.74364
v 47.43861 24.5872 10.74364
v 47.43861 24.5872 0
v 12.52071 41.402 0
v 12.52071 41.402 12.7
v 12.52071 46.8122 12.7
v 12.52071 46.8122 0
v 26.82152 33.4518 0
v 26.82152 -2.292069E-15 0
v 34.3362 0 0.9196253
v 34.3362 29.083 0.9196253
v 34.3362 33.4518 0.9196253
v 57.84636 8.1788 1.264894
v 57.84636 8.1788 11.69889
v 57.84636 15.113 11.69889
v 57.84636 15.113 1.264894
v 21.02739 37.5666 10.04235
v 21.02739 0 10.04235
v 12.52071 4.584137E-15 12.7
v 12.52071 41.402 12.7
v 21.02739 41.402 10.04235
v 0 50.8 0
v 0 50.8 12.7
v 0 0 12.7
v 0 0 0
v 6.3645 46.8122 0.9196253
v 6.3645 0 0.9196253
v 12.52071 0 0
v 12.52071 41.402 0
v 12.52071 46.8122 0
v 0 50.8 0
v 0 0 0
v 6.3645 0 0.9196253
v 6.3645 46.8122 0.9196253
v 6.3645 50.8 0.9196253
v 12.52071 41.402 0
v 12.52071 0 0
v 21.02739 2.292069E-15 0.9196253
v 21.02739 37.5666 0.9196253
v 21.02739 41.402 0.9196253
v 34.3362 0 11.5073
v 26.82152 -2.292069E-15 12.7
v 26.82152 33.4518 12.7
v 34.3362 29.083 11.5073
v 34.3362 33.4518 11.5073
v 6.3645 46.8122 0.9196253
v 6.3645 46.8122 11.04222
v 6.3645 50.8 11.04222
v 6.3645 50.8 0.9196253
v 21.02739 37.5666 0.9196253
v 21.02739 37.5666 10.04235
v 21.02739 41.402 10.04235
v 21.02739 41.402 0.9196253
v 57.84636 5.730172E-16 11.69889
v 52.1927 -1.146034E-15 12.7
v 52.1927 15.113 12.7
v 57.84636 8.1788 11.69889
v 57.84636 15.113 11.69889
v 52.1927 0 1.264894
v 57.84636 -5.730172E-16 1.264894
v 57.84636 8.1788 1.264894
v 52.1927 15.113 1.264894
v 57.84636 15.113 1.264894
v 12.52071 4.584137E-15 12.7
v 10.60181 0 12.7
v 10.60181 46.8122 12.7
v 12.52071 41.402 12.7
v 12.52071 46.8122 12.7
v 21.02739 2.292069E-15 0.9196253
v 26.82152 -2.292069E-15 0
v 26.82152 33.4518 0
v 21.02739 37.5666 0.9196253
v 26.82152 37.5666 0
v 6.3645 0 0.9196253
v 0 0 0
v 0 0 12.7
v 6.3645 0 11.04222
v 12.52071 0 0
v 10.60181 0 12.7
v 12.52071 4.584137E-15 12.7
v 21.02739 2.292069E-15 0.9196253
v 21.02739 0 10.04235
v 26.82152 -2.292069E-15 0
v 26.82152 -2.292069E-15 12.7
v 34.3362 0 0.9196253
v 34.3362 0 11.5073
v 43.35491 0 0
v 40.93616 0 12.7
v 43.35491 2.292069E-15 12.7
v 47.43861 0 0
v 47.43861 0 10.74364
v 52.1927 0 1.264894
v 50.87254 0 12.7
v 52.1927 -1.146034E-15 12.7
v 57.84636 -5.730172E-16 1.264894
v 57.84636 5.730172E-16 11.69889
v 63.5 -5.730172E-16 0.6976376
v 63.5 0 12.7
v 57.84636 8.1788 1.264894
v 57.84636 -5.730172E-16 1.264894
v 63.5 -5.730172E-16 0.6976376
v 63.5 8.1788 0.6976376
v 52.1927 15.113 12.7
v 52.1927 -1.146034E-15 12.7
v 50.87254 0 12.7
v 50.87254 20.2692 12.7
v 52.1927 20.2692 12.7
v 43.35491 24.5872 0
v 43.35491 24.5872 12.7
v 43.35491 29.083 12.7
v 43.35491 29.083 0
v 34.3362 29.083 0.9196253
v 34.3362 29.083 11.5073
v 34.3362 33.4518 11.5073
v 34.3362 33.4518 0.9196253
v 50.87254 20.2692 12.7
v 50.87254 0 12.7
v 47.43861 0 10.74364
v 47.43861 20.2692 10.74364
v 10.60181 46.8122 12.7
v 10.60181 0 12.7
v 6.3645 0 11.04222
v 6.3645 46.8122 11.04222
v 40.93616 29.083 12.7
v 40.93616 0 12.7
v 34.3362 0 11.5073
v 34.3362 29.083 11.5073
v 52.1927 15.113 1.264894
v 52.1927 15.113 12.7
v 52.1927 20.2692 12.7
v 52.1927 20.2692 1.264894
v 26.82152 33.4518 0
v 26.82152 33.4518 12.7
v 26.82152 37.5666 12.7
v 26.82152 37.5666 0
v 47.43861 20.2692 10.74364
v 47.43861 0 10.74364
v 43.35491 2.292069E-15 12.7
v 43.35491 24.5872 12.7
v 47.43861 24.5872 10.74364
v 47.43861 20.2692 0
v 47.43861 0 0
v 52.1927 0 1.264894
v 52.1927 15.113 1.264894
v 52.1927 20.2692 1.264894
v 26.82152 33.4518 12.7
v 26.82152 -2.292069E-15 12.7
v 21.02739 0 10.04235
v 21.02739 37.5666 10.04235
v 26.82152 37.5666 12.7
v 63.5 -5.730172E-16 0.6976376
v 63.5 0 12.7
v 63.5 8.1788 12.7
v 63.5 8.1788 0.6976376
v 34.3362 29.083 0.9196253
v 34.3362 0 0.9196253
v 43.35491 0 0
v 43.35491 24.5872 0
v 43.35491 29.083 0
v 6.3645 46.8122 11.04222
v 6.3645 0 11.04222
v 0 0 12.7
v 0 50.8 12.7
v 6.3645 50.8 11.04222
v 63.5 8.1788 12.7
v 63.5 0 12.7
v 57.84636 5.730172E-16 11.69889
v 57.84636 8.1788 11.69889
v 43.35491 24.5872 0
v 43.35491 0 0
v 47.43861 0 0
v 47.43861 20.2692 0
v 47.43861 24.5872 0
v 57.84636 15.113 11.69889
v 52.1927 15.113 12.7
v 52.1927 15.113 1.264894
v 57.84636 15.113 1.264894
v 26.82152 37.5666 12.7
v 21.02739 37.5666 10.04235
v 21.02739 37.5666 0.9196253
v 26.82152 37.5666 0
v 6.3645 50.8 11.04222
v 0 50.8 12.7
v 0 50.8 0
v 6.3645 50.8 0.9196253
v 50.87254 20.2692 12.7
v 47.43861 20.2692 10.74364
v 47.43861 20.2692 0
v 52.1927 20.2692 1.264894
v 52.1927 20.2692 12.7
v 63.5 8.1788 12.7
v 57.84636 8.1788 11.69889
v 57.84636 8.1788 1.264894
v 63.5 8.1788 0.6976376
v 40.93616 29.083 12.7
v 34.3362 29.083 11.5073
v 34.3362 29.083 0.9196253
v 43.35491 29.083 0
v 43.35491 29.083 12.7
v 34.3362 33.4518 11.5073
v 26.82152 33.4518 12.7
v 26.82152 33.4518 0
v 34.3362 33.4518 0.9196253
v 47.43861 24.5872 10.74364
v 43.35491 24.5872 12.7
v 43.35491 24.5872 0
v 47.43861 24.5872 0
v 10.60181 46.8122 12.7
v 6.3645 46.8122 11.04222
v 6.3645 46.8122 0.9196253
v 12.52071 46.8122 0
v 12.52071 46.8122 12.7
v 21.02739 41.402 10.04235
v 12.52071 41.402 12.7
v 12.52071 41.402 0
v 21.02739 41.402 0.9196253
vt 67.20025 3.552714E-15
vt 63.45118 0
vt 63.45118 45.07874
vt 67.20025 38.11024
vt 67.20025 45.07874
vt 0 31.41732
vt -16.65267 31.41732
vt -16.65267 38.11024
vt 0 38.11024
vt 0 64.17323
vt -19.68504 64.17323
vt -19.68504 72.55905
vt 0 72.55905
vt -41.26559 51.8504
vt -41.26559 -3.552714E-15
vt -53.00026 0
vt -53.00026 45.07874
vt -53.00026 51.8504
vt -1.96059 12.67717
vt -18.13332 12.67717
vt -18.13332 23.4252
vt -1.96059 23.4252
vt 26.46786 58.22835
vt 26.46786 4.471855E-17
vt 12.65398 7.150146E-15
vt 12.65398 64.17323
vt 26.46786 64.17323
vt 0 78.74016
vt 19.68504 78.74016
vt 19.68504 0
vt 0 0
vt -9.546141 72.55905
vt -9.546141 -1.020349E-18
vt -19.19416 -1.020349E-18
vt -19.19416 64.17323
vt -19.19416 72.55905
vt 0 78.74016
vt 0 0
vt -9.967445 0
vt -9.967445 72.55905
vt -9.967445 78.74016
vt -19.29472 64.17323
vt -19.29472 1.976622E-18
vt -32.55692 3.55469E-15
vt -32.55692 58.22835
vt -32.55692 64.17323
vt 49.76735 2.441536E-17
vt 37.97377 -3.528298E-15
vt 37.97377 51.8504
vt 49.76735 45.07874
vt 49.76735 51.8504
vt -1.425422 72.55905
vt -17.11547 72.55905
vt -17.11547 78.74016
vt -1.425422 78.74016
vt -1.425422 58.22835
vt -15.56568 58.22835
vt -15.56568 64.17323
vt -1.425422 64.17323
vt 85.12683 9.668607E-16
vt 76.22733 -1.697675E-15
vt 76.22733 23.4252
vt 85.12683 12.67717
vt 85.12683 23.4252
vt -80.89885 0
vt -89.66203 -8.881784E-16
vt -89.66203 12.67717
vt -80.89885 23.4252
vt -89.66203 23.4252
vt 19.40714 7.105427E-15
vt 16.43284 0
vt 16.43284 72.55905
vt 19.40714 64.17323
vt 19.40714 72.55905
vt -31.96615 3.552714E-15
vt -41.05949 -3.552714E-15
vt -41.05949 51.8504
vt -31.96615 58.22835
vt -41.05949 58.22835
vt -9.864995 -1.425422
vt 0 0
vt 0 -19.68504
vt -9.864995 -17.11547
vt -19.40714 -8.295608E-33
vt -16.43284 -19.68504
vt -19.40714 -19.68504
vt -32.59251 -1.425422
vt -32.59251 -15.56568
vt -41.57344 1.188821E-31
vt -41.57344 -19.68504
vt -53.22121 -1.425422
vt -53.22121 -17.83634
vt -67.20025 -2.872484E-32
vt -63.45118 -19.68504
vt -67.20025 -19.68504
vt -73.52998 -3.143049E-32
vt -73.52998 -16.65267
vt -80.89885 -1.96059
vt -78.85258 -19.68504
vt -80.89885 -19.68504
vt -89.66203 -1.96059
vt -89.66203 -18.13332
vt -98.42519 -1.08134
vt -98.42519 -19.68504
vt -89.01836 12.67717
vt -89.01836 -8.881784E-16
vt -97.82553 -8.881784E-16
vt -97.82553 12.67717
vt 80.89885 23.4252
vt 80.89885 -1.776357E-15
vt 78.85258 0
vt 78.85258 31.41732
vt 80.89885 31.41732
vt 0 38.11024
vt -19.68504 38.11024
vt -19.68504 45.07874
vt 0 45.07874
vt -1.425422 45.07874
vt -17.83634 45.07874
vt -17.83634 51.8504
vt -1.425422 51.8504
vt 78.25814 31.41732
vt 78.25814 0
vt 72.13235 0
vt 72.13235 31.41732
vt 22.47543 72.55905
vt 22.47543 0
vt 15.42283 0
vt 15.42283 72.55905
vt 65.94046 45.07874
vt 65.94046 0
vt 55.5448 0
vt 55.5448 45.07874
vt -1.96059 23.4252
vt -19.68504 23.4252
vt -19.68504 31.41732
vt -1.96059 31.41732
vt 0 51.8504
vt -19.68504 51.8504
vt -19.68504 58.22835
vt 0 58.22835
vt 59.11836 31.41732
vt 59.11836 1.925787E-16
vt 52.09975 3.745293E-15
vt 52.09975 38.11024
vt 59.11836 38.11024
vt -71.05789 31.41732
vt -71.05789 1.552321E-17
vt -78.68312 1.552321E-17
vt -78.68312 23.4252
vt -78.68312 31.41732
vt 45.99498 51.8504
vt 45.99498 -3.552073E-15
vt 36.11438 6.403532E-19
vt 36.11438 58.22835
vt 45.99498 58.22835
vt -1.08134 -8.881784E-16
vt -19.68504 0
vt -19.68504 12.67717
vt -1.08134 12.67717
vt -52.80207 45.07874
vt -52.80207 0
vt -66.85359 0
vt -66.85359 38.11024
vt -66.85359 45.07874
vt 5.232288 72.55905
vt 5.232288 0
vt -4.961868 0
vt -4.961868 78.74016
vt 5.232288 78.74016
vt 100.3498 12.67717
vt 100.3498 8.564703E-18
vt 91.4503 8.967431E-16
vt 91.4503 12.67717
vt -67.20025 38.11024
vt -67.20025 0
vt -73.52998 0
vt -73.52998 31.41732
vt -73.52998 38.11024
vt 89.66203 -18.13332
vt 80.89885 -19.68504
vt 80.89885 -1.96059
vt 89.66203 -1.96059
vt 41.57344 -19.68504
vt 32.59251 -15.56568
vt 32.59251 -1.425422
vt 41.57344 0
vt 9.864995 -17.11547
vt 0 -19.68504
vt 0 0
vt 9.864995 -1.425422
vt 78.85258 -19.68504
vt 73.52998 -16.65267
vt 73.52998 0
vt 80.89885 -1.96059
vt 80.89885 -19.68504
vt 98.42519 -19.68504
vt 89.66203 -18.13332
vt 89.66203 -1.96059
vt 98.42519 -1.08134
vt 63.45118 -19.68504
vt 53.22121 -17.83634
vt 53.22121 -1.425422
vt 67.20025 0
vt 67.20025 -19.68504
vt 53.22121 -17.83634
vt 41.57344 -19.68504
vt 41.57344 0
vt 53.22121 -1.425422
vt 73.52998 -16.65267
vt 67.20025 -19.68504
vt 67.20025 0
vt 73.52998 0
vt 16.43284 -19.68504
vt 9.864995 -17.11547
vt 9.864995 -1.425422
vt 19.40714 0
vt 19.40714 -19.68504
vt 32.59251 -15.56568
vt 19.40714 -19.68504
vt 19.40714 0
vt 32.59251 -1.425422
vn 0 0 1
vn 0 0 1
vn 0 0 1
vn 0 0 1
vn 0 0 1
vn 1 0 0
vn 1 0 0
vn 1 0 0
vn 1 0 0
vn 1 0 0
vn 1 0 0
vn 1 0 0
vn 1 0 0
vn 0.121471 0 -0.992595
vn 0.121471 0 -0.992595
vn 0.121471 0 -0.992595
vn 0.121471 0 -0.992595
vn 0.121471 0 -0.992595
vn 1 0 0
vn 1 0 0
vn 1 0 0
vn 1 0 0
vn 0.2982046 0 0.954502
vn 0.2982046 0 0.954502
vn 0.2982046 0 0.954502
vn 0.2982046 0 0.954502
vn 0.2982046 0 0.954502
vn -1 0 0
vn -1 0 0
vn -1 0 0
vn -1 0 0
vn -0.1477424 0 -0.9890259
vn -0.1477424 0 -0.9890259
vn -0.1477424 0 -0.9890259
vn -0.1477424 0 -0.9890259
vn -0.1477424 0 -0.9890259
vn 0.1430078 0 -0.9897216
vn 0.1430078 0 -0.9897216
vn 0.1430078 0 -0.9897216
vn 0.1430078 0 -0.9897216
vn 0.1430078 0 -0.9897216
vn 0.1074801 0 -0.9942073
vn 0.1074801 0 -0.9942073
vn 0.1074801 0 -0.9942073
vn 0.1074801 0 -0.9942073
vn 0.1074801 0 -0.9942073
vn 0.1567545 0 0.9876376
vn 0.1567545 0 0.9876376
vn 0.1567545 0 0.9876376
vn 0.1567545 0 0.9876376
vn 0.1567545 0 0.9876376
vn 1 0 0
vn 1 0 0
vn 1 0 0
vn 1 0 0
vn 1 0 0
vn 1 0 0
vn 1 0 0
vn 1 0 0
vn 0.1743606 0 0.9846818
vn 0.1743606 0 0.9846818
vn 0.1743606 0 0.9846818
vn 0.1743606 0 0.9846818
vn 0.1743606 0 0.9846818
vn 0 0 -1
vn 0 0 -1
vn 0 0 -1
vn 0 0 -1
vn 0 0 -1
vn 0 0 1
vn 0 0 1
vn 0 0 1
vn 0 0 1
vn 0 0 1
vn -0.1567545 0 -0.9876376
vn -0.1567545 0 -0.9876376
vn -0.1567545 0 -0.9876376
vn -0.1567545 0 -0.9876376
vn -0.1567545 0 -0.9876376
vn 0 -1 0
vn 0 -1 0
vn 0 -1 0
vn 0 -1 0
vn 0 -1 0
vn 0 -1 0
vn 0 -1 0
vn 0 -1 0
vn 0 -1 0
vn 0 -1 0
vn 0 -1 0
vn 0 -1 0
vn 0 -1 0
vn 0 -1 0
vn 0 -1 0
vn 0 -1 0
vn 0 -1 0
vn 0 -1 0
vn 0 -1 0
vn 0 -1 0
vn 0 -1 0
vn 0 -1 0
vn 0 -1 0
vn 0 -1 0
vn 0 -1 0
vn -0.09983335 0 -0.9950042
vn -0.09983335 0 -0.9950042
vn -0.09983335 0 -0.9950042
vn -0.09983335 0 -0.9950042
vn 0 0 1
vn 0 0 1
vn 0 0 1
vn 0 0 1
vn 0 0 1
vn 1 0 0
vn 1 0 0
vn 1 0 0
vn 1 0 0
vn 1 0 0
vn 1 0 0
vn 1 0 0
vn 1 0 0
vn -0.4950165 0 0.8688836
vn -0.4950165 0 0.8688836
vn -0.4950165 0 0.8688836
vn -0.4950165 0 0.8688836
vn -0.3643432 0 0.9312647
vn -0.3643432 0 0.9312647
vn -0.3643432 0 0.9312647
vn -0.3643432 0 0.9312647
vn -0.1778333 0 0.9840606
vn -0.1778333 0 0.9840606
vn -0.1778333 0 0.9840606
vn -0.1778333 0 0.9840606
vn 1 0 0
vn 1 0 0
vn 1 0 0
vn 1 0 0
vn 1 0 0
vn 1 0 0
vn 1 0 0
vn 1 0 0
vn 0.432047 0 0.9018511
vn 0.432047 0 0.9018511
vn 0.432047 0 0.9018511
vn 0.432047 0 0.9018511
vn 0.432047 0 0.9018511
vn 0.2571189 0 -0.9663798
vn 0.2571189 0 -0.9663798
vn 0.2571189 0 -0.9663798
vn 0.2571189 0 -0.9663798
vn 0.2571189 0 -0.9663798
vn -0.4169143 0 0.9089458
vn -0.4169143 0 0.9089458
vn -0.4169143 0 0.9089458
vn -0.4169143 0 0.9089458
vn -0.4169143 0 0.9089458
vn 1 0 0
vn 1 0 0
vn 1 0 0
vn 1 0 0
vn -0.1014425 0 -0.9948414
vn -0.1014425 0 -0.9948414
vn -0.1014425 0 -0.9948414
vn -0.1014425 0 -0.9948414
vn -0.1014425 0 -0.9948414
vn 0.2520629 0 0.9677108
vn 0.2520629 0 0.9677108
vn 0.2520629 0 0.9677108
vn 0.2520629 0 0.9677108
vn 0.2520629 0 0.9677108
vn -0.1743606 0 0.9846818
vn -0.1743606 0 0.9846818
vn -0.1743606 0 0.9846818
vn -0.1743606 0 0.9846818
vn 0 0 -1
vn 0 0 -1
vn 0 0 -1
vn 0 0 -1
vn 0 0 -1
vn 0 1 0
vn 0 1 0
vn 0 1 0
vn 0 1 0
vn 0 1 0
vn 0 1 0
vn 0 1 0
vn 0 1 0
vn 0 1 0
vn 0 1 0
vn 0 1 0
vn 0 1 0
vn 0 1 0
vn 0 1 0
vn 0 1 0
vn 0 1 0
vn 0 1 0
vn 0 1 0
vn 0 1 0
vn 0 1 0
vn 0 1 0
vn 0 1 0
vn 0 1 0
vn 0 1 0
vn 0 1 0
vn 0 1 0
vn 0 1 0
vn 0 1 0
vn 0 1 0
vn 0 1 0
vn 0 1 0
vn 0 1 0
vn 0 1 0
vn 0 1 0
vn 0 1 0
vn 0 1 0
vn 0 1 0
vn 0 1 0
vn 0 1 0
vn 0 1 0
vn 0 1 0
vn 0 1 0
vn 0 1 0
g Terrain_Tile_Grass_Dirt_Stairs_01_0
f 3/3/3 2/2/2 1/1/1
f 1/1/1 4/4/4 3/3/3
f 4/4/4 5/5/5 3/3/3
f 8/8/8 7/7/7 6/6/6
f 6/6/6 9/9/9 8/8/8
f 12/12/12 11/11/11 10/10/10
f 10/10/10 13/13/13 12/12/12
f 16/16/16 15/15/15 14/14/14
f 14/14/14 17/17/17 16/16/16
f 14/14/14 18/18/18 17/17/17
f 21/21/21 20/20/20 19/19/19
f 19/19/19 22/22/22 21/21/21
f 25/25/25 24/24/24 23/23/23
f 23/23/23 26/26/26 25/25/25
f 23/23/23 27/27/27 26/26/26
f 30/30/30 29/29/29 28/28/28
f 28/28/28 31/31/31 30/30/30
f 34/34/34 33/33/33 32/32/32
f 32/32/32 35/35/35 34/34/34
f 32/32/32 36/36/36 35/35/35
f 39/39/39 38/38/38 37/37/37
f 37/37/37 40/40/40 39/39/39
f 37/37/37 41/41/41 40/40/40
f 44/44/44 43/43/43 42/42/42
f 42/42/42 45/45/45 44/44/44
f 42/42/42 46/46/46 45/45/45
f 49/49/49 48/48/48 47/47/47
f 47/47/47 50/50/50 49/49/49
f 50/50/50 51/51/51 49/49/49
f 54/54/54 53/53/53 52/52/52
f 52/52/52 55/55/55 54/54/54
f 58/58/58 57/57/57 56/56/56
f 56/56/56 59/59/59 58/58/58
f 62/62/62 61/61/61 60/60/60
f 60/60/60 63/63/63 62/62/62
f 63/63/63 64/64/64 62/62/62
f 67/67/67 66/66/66 65/65/65
f 65/65/65 68/68/68 67/67/67
f 68/68/68 69/69/69 67/67/67
f 72/72/72 71/71/71 70/70/70
f 70/70/70 73/73/73 72/72/72
f 73/73/73 74/74/74 72/72/72
f 77/77/77 76/76/76 75/75/75
f 75/75/75 78/78/78 77/77/77
f 78/78/78 79/79/79 77/77/77
f 82/82/82 81/81/81 80/80/80
f 80/80/80 83/83/83 82/82/82
f 80/80/80 84/84/84 83/83/83
f 84/84/84 85/85/85 83/83/83
f 84/84/84 86/86/86 85/85/85
f 84/84/84 87/87/87 86/86/86
f 87/87/87 88/88/88 86/86/86
f 87/87/87 89/89/89 88/88/88
f 89/89/89 90/90/90 88/88/88
f 89/89/89 91/91/91 90/90/90
f 91/91/91 92/92/92 90/90/90
f 91/91/91 93/93/93 92/92/92
f 93/93/93 94/94/94 92/92/92
f 93/93/93 95/95/95 94/94/94
f 93/93/93 96/96/96 95/95/95
f 96/96/96 97/97/97 95/95/95
f 96/96/96 98/98/98 97/97/97
f 98/98/98 99/99/99 97/97/97
f 98/98/98 100/100/100 99/99/99
f 98/98/98 101/101/101 100/100/100
f 101/101/101 102/102/102 100/100/100
f 101/101/101 103/103/103 102/102/102
f 103/103/103 104/104/104 102/102/102
f 107/107/107 106/106/106 105/105/105
f 105/105/105 108/108/108 107/107/107
f 111/111/111 110/110/110 109/109/109
f 109/109/109 112/112/112 111/111/111
f 109/109/109 113/113/113 112/112/112
f 116/116/116 115/115/115 114/114/114
f 114/114/114 117/117/117 116/116/116
f 120/120/120 119/119/119 118/118/118
f 118/118/118 121/121/121 120/120/120
f 124/124/124 123/123/123 122/122/122
f 122/122/122 125/125/125 124/124/124
f 128/128/128 127/127/127 126/126/126
f 126/126/126 129/129/129 128/128/128
f 132/132/132 131/131/131 130/130/130
f 130/130/130 133/133/133 132/132/132
f 136/136/136 135/135/135 134/134/134
f 134/134/134 137/137/137 136/136/136
f 140/140/140 139/139/139 138/138/138
f 138/138/138 141/141/141 140/140/140
f 144/144/144 143/143/143 142/142/142
f 142/142/142 145/145/145 144/144/144
f 142/142/142 146/146/146 145/145/145
f 149/149/149 148/148/148 147/147/147
f 147/147/147 150/150/150 149/149/149
f 147/147/147 151/151/151 150/150/150
f 154/154/154 153/153/153 152/152/152
f 152/152/152 155/155/155 154/154/154
f 152/152/152 156/156/156 155/155/155
f 159/159/159 158/158/158 157/157/157
f 157/157/157 160/160/160 159/159/159
f 163/163/163 162/162/162 161/161/161
f 161/161/161 164/164/164 163/163/163
f 161/161/161 165/165/165 164/164/164
f 168/168/168 167/167/167 166/166/166
f 166/166/166 169/169/169 168/168/168
f 166/166/166 170/170/170 169/169/169
f 173/173/173 172/172/172 171/171/171
f 171/171/171 174/174/174 173/173/173
f 177/177/177 176/176/176 175/175/175
f 175/175/175 178/178/178 177/177/177
f 175/175/175 179/179/179 178/178/178
g Terrain_Tile_Grass_Dirt_Stairs_01_1
f 182/182/182 181/181/181 180/180/180
f 180/180/180 183/183/183 182/182/182
f 186/186/186 185/185/185 184/184/184
f 184/184/184 187/187/187 186/186/186
f 190/190/190 189/189/189 188/188/188
f 188/188/188 191/191/191 190/190/190
f 194/194/194 193/193/193 192/192/192
f 192/192/192 195/195/195 194/194/194
f 192/192/192 196/196/196 195/195/195
f 199/199/199 198/198/198 197/197/197
f 197/197/197 200/200/200 199/199/199
f 203/203/203 202/202/202 201/201/201
f 201/201/201 204/204/204 203/203/203
f 201/201/201 205/205/205 204/204/204
f 208/208/208 207/207/207 206/206/206
f 206/206/206 209/209/209 208/208/208
f 212/212/212 211/211/211 210/210/210
f 210/210/210 213/213/213 212/212/212
f 216/216/216 215/215/215 214/214/214
f 214/214/214 217/217/217 216/216/216
f 214/214/214 218/218/218 217/217/217
f 221/221/221 220/220/220 219/219/219
f 219/219/219 222/222/222 221/221/221
