g Tree_Conifer_01
v -3.824142 14.20994 -3.777676
v -5.549364 7.405232 -5.502896
v 0.08916413 7.405232 -7.838452
v 0.08916383 14.20994 -5.398622
v -0.1508639 33.31181 0.1356295
v -5.365999 21.60629 0.1356301
v -3.768218 21.60629 -3.721751
v -0.08056158 33.31181 -0.03409527
v 0.08916253 21.60629 4.293009
v 0.08916204 14.20994 7.387294
v -5.038537 14.20994 5.26333
v -2.850547 21.60629 3.07534
v -0.08056158 33.31181 -0.03409527
v -3.768218 21.60629 -3.721751
v 0.089164 21.60629 -5.319532
v 0.08916324 33.31181 -0.1043976
v -2.850547 21.60629 3.07534
v -5.038537 14.20994 5.26333
v -7.162501 14.20994 0.1356303
v -4.068216 21.60629 0.13563
v -0.08056157 33.31181 0.3053542
v -0.1508639 33.31181 0.1356295
v -0.08056158 33.31181 -0.03409527
v 0.08916324 33.31181 -0.1043976
v 0.08916316 33.31181 0.3756566
v 0.2588879 33.31181 0.3053543
v 0.258888 33.31181 -0.03409522
v 0.3291903 33.31181 0.1356295
v -5.549364 7.405232 -5.502896
v -7.884919 7.405232 0.1356305
v -5.549363 7.405232 5.774156
v 0.08916413 7.405232 -7.838452
v -1.989313 7.405232 0.1356301
v -1.380541 7.405232 -1.334074
v 0.08916298 7.405232 -1.942846
v 1.558867 7.405232 -1.334074
v 5.72769 7.405232 -5.502894
v 2.167639 7.405232 0.1356306
v 5.727689 7.405232 5.774157
v 8.063245 7.405232 0.135631
v 0.08916184 7.405232 8.109712
v -1.380541 7.405232 1.605334
v 0.08916254 7.405232 2.214106
v 1.558867 7.405232 1.605334
v 8.063245 7.405232 0.135631
v 5.727689 7.405232 5.774157
v 4.002468 14.20994 4.048936
v 5.623414 14.20994 0.1356306
v 5.544325 21.60629 0.1356303
v 3.946543 21.60629 3.993011
v 0.2588879 33.31181 0.3053543
v 0.3291903 33.31181 0.1356295
v -0.08056157 33.31181 0.3053542
v -3.768218 21.60629 3.993011
v -5.365999 21.60629 0.1356301
v -0.1508639 33.31181 0.1356295
v -4.068216 21.60629 0.13563
v -7.162501 14.20994 0.1356303
v -5.038537 14.20994 -4.99207
v -2.850547 21.60629 -2.80408
v 7.340827 14.20994 0.1356307
v 5.216862 14.20994 5.26333
v 3.028873 21.60629 3.07534
v 4.246542 21.60629 0.1356302
v 0.2588879 33.31181 0.3053543
v 3.946543 21.60629 3.993011
v 0.08916236 21.60629 5.590792
v 0.08916316 33.31181 0.3756566
v 0.08916224 14.20994 5.66988
v 0.08916184 7.405232 8.109712
v -5.549363 7.405232 5.774156
v -3.824142 14.20994 4.048935
v 0.08916316 33.31181 0.3756566
v 0.08916236 21.60629 5.590792
v -3.768218 21.60629 3.993011
v -0.08056157 33.31181 0.3053542
v -5.445088 14.20994 0.1356302
v -7.884919 7.405232 0.1356305
v -5.549364 7.405232 -5.502896
v -3.824142 14.20994 -3.777676
v -2.850547 21.60629 -2.80408
v -5.038537 14.20994 -4.99207
v 0.08916417 14.20994 -7.116035
v 0.08916374 21.60629 -4.02175
v 5.72769 7.405232 -5.502894
v 8.063245 7.405232 0.135631
v 5.623414 14.20994 0.1356306
v 4.002469 14.20994 -3.777674
v 0.08916324 33.31181 -0.1043976
v 0.089164 21.60629 -5.319532
v 3.946544 21.60629 -3.72175
v 0.258888 33.31181 -0.03409522
v -3.824142 14.20994 4.048935
v -5.549363 7.405232 5.774156
v -7.884919 7.405232 0.1356305
v -5.445088 14.20994 0.1356302
v -5.038537 14.20994 -4.99207
v -7.162501 14.20994 0.1356303
v -5.445088 14.20994 0.1356302
v -3.824142 14.20994 -3.777676
v 0.08916417 14.20994 -7.116035
v 0.08916383 14.20994 -5.398622
v 4.002469 14.20994 -3.777674
v 5.216863 14.20994 -4.992068
v 5.623414 14.20994 0.1356306
v 7.340827 14.20994 0.1356307
v -5.038537 14.20994 5.26333
v -3.824142 14.20994 4.048935
v 0.08916204 14.20994 7.387294
v 0.08916224 14.20994 5.66988
v 5.216862 14.20994 5.26333
v 4.002468 14.20994 4.048936
v 3.946544 21.60629 -3.72175
v 5.544325 21.60629 0.1356303
v 0.3291903 33.31181 0.1356295
v 0.258888 33.31181 -0.03409522
v 3.028873 21.60629 3.07534
v 5.216862 14.20994 5.26333
v 0.08916204 14.20994 7.387294
v 0.08916253 21.60629 4.293009
v 0.08916383 14.20994 -5.398622
v 0.08916413 7.405232 -7.838452
v 5.72769 7.405232 -5.502894
v 4.002469 14.20994 -3.777674
v -3.768218 21.60629 -3.721751
v -5.365999 21.60629 0.1356301
v -4.068216 21.60629 0.13563
v -2.850547 21.60629 -2.80408
v 0.089164 21.60629 -5.319532
v 0.08916374 21.60629 -4.02175
v 3.028874 21.60629 -2.80408
v 3.946544 21.60629 -3.72175
v 4.246542 21.60629 0.1356302
v 5.544325 21.60629 0.1356303
v -3.768218 21.60629 3.993011
v -2.850547 21.60629 3.07534
v 0.08916236 21.60629 5.590792
v 0.08916253 21.60629 4.293009
v 3.946543 21.60629 3.993011
v 3.028873 21.60629 3.07534
v 0.08916374 21.60629 -4.02175
v 0.08916417 14.20994 -7.116035
v 5.216863 14.20994 -4.992068
v 3.028874 21.60629 -2.80408
v 4.002468 14.20994 4.048936
v 5.727689 7.405232 5.774157
v 0.08916184 7.405232 8.109712
v 0.08916224 14.20994 5.66988
v 5.216863 14.20994 -4.992068
v 7.340827 14.20994 0.1356307
v 4.246542 21.60629 0.1356302
v 3.028874 21.60629 -2.80408
v -1.469915 3.243619 -1.423449
v -1.934551 0 -1.888084
v 0.08916298 0 -2.726334
v 0.08916298 3.243619 -2.069239
v 0.08916298 7.405232 -1.942846
v 0.08916298 3.243619 -2.069239
v 1.648241 3.243619 -1.423448
v 1.558867 7.405232 -1.334074
v 0.08916245 3.243619 2.340499
v 0.08916245 0 2.997594
v -1.934551 0 2.159343
v -1.469915 3.243619 1.694708
v 2.294033 3.243619 0.1356305
v 2.167639 7.405232 0.1356306
v 1.558867 7.405232 -1.334074
v 1.648241 3.243619 -1.423448
v 1.558867 7.405232 1.605334
v 1.648241 3.243619 1.694708
v 0.08916245 3.243619 2.340499
v 0.08916254 7.405232 2.214106
v 1.648241 3.243619 1.694708
v 2.112877 0 2.159343
v 0.08916245 0 2.997594
v 0.08916245 3.243619 2.340499
v 0.08916254 7.405232 2.214106
v 0.08916245 3.243619 2.340499
v -1.469915 3.243619 1.694708
v -1.380541 7.405232 1.605334
v -1.380541 7.405232 -1.334074
v -1.469915 3.243619 -1.423449
v 0.08916298 3.243619 -2.069239
v 0.08916298 7.405232 -1.942846
v -1.469915 3.243619 1.694708
v -1.934551 0 2.159343
v -2.772801 0 0.1356301
v -2.115707 3.243619 0.13563
v -2.115707 3.243619 0.13563
v -2.772801 0 0.1356301
v -1.934551 0 -1.888084
v -1.469915 3.243619 -1.423449
v -1.380541 7.405232 1.605334
v -1.469915 3.243619 1.694708
v -2.115707 3.243619 0.13563
v -1.989313 7.405232 0.1356301
v 2.112877 0 -1.888083
v 2.951127 0 0.1356307
v 2.294033 3.243619 0.1356305
v 1.648241 3.243619 -1.423448
v 2.294033 3.243619 0.1356305
v 1.648241 3.243619 1.694708
v 1.558867 7.405232 1.605334
v 2.167639 7.405232 0.1356306
v 2.951127 0 0.1356307
v 2.112877 0 2.159343
v 1.648241 3.243619 1.694708
v 2.294033 3.243619 0.1356305
v 0.08916298 3.243619 -2.069239
v 0.08916298 0 -2.726334
v 2.112877 0 -1.888083
v 1.648241 3.243619 -1.423448
v -1.380541 7.405232 -1.334074
v -1.989313 7.405232 0.1356301
v -2.115707 3.243619 0.13563
v -1.469915 3.243619 -1.423449
vt 3.235464 18.49378
vt 4.682674 7.382835
vt -4.777148 7.382835
vt -3.329935 18.49378
vt 0.2837102 47.6952
vt 3.377125 28.07472
vt -3.094448 28.07472
vt -0.001039002 47.6952
vt 2.674128 29.04045
vt 4.509537 16.74957
vt -4.093263 16.74957
vt -2.257857 29.04045
vt 0.09514149 47.71004
vt 3.188551 28.08956
vt -3.283023 28.08956
vt -0.1896078 47.71004
vt 2.713102 29.10843
vt 4.548508 16.81755
vt -4.054291 16.81755
vt -2.218883 29.10843
vt -0.1248707 -0.4733
vt -0.2338396 -0.2102262
vt -0.1248707 0.05284777
vt 0.1382033 0.1618167
vt 0.1382032 -0.5822689
vt 0.4012771 -0.4733001
vt 0.4012772 0.0528477
vt 0.510246 -0.2102262
vt 8.601531 8.529507
vt 12.22165 -0.2102277
vt 8.60153 -8.94996
vt -0.1382047 12.14963
vt 3.083441 -0.2102271
vt 2.139843 2.067819
vt -0.1382029 3.011418
vt -2.416249 2.067818
vt -8.877937 8.529504
vt -3.359847 -0.2102278
vt -8.877935 -8.949961
vt -12.49806 -0.2102285
vt -0.1382011 -12.57008
vt 2.139843 -2.488273
vt -0.1382022 -3.431871
vt -2.416249 -2.488273
vt 4.588578 7.239681
vt -4.871242 7.239681
vt -3.424032 18.35063
vt 3.141366 18.35063
vt 3.094453 27.91628
vt -3.377119 27.91628
vt -0.2837099 47.53676
vt 0.00103927 47.53676
vt 0.3894862 47.63396
vt 3.482895 28.01348
vt -2.988677 28.01348
vt 0.104737 47.63396
vt 2.607331 29.16644
vt 4.442739 16.87556
vt -4.160061 16.87556
vt -2.324655 29.16644
vt 4.160068 16.72548
vt -4.442732 16.72548
vt -2.607327 29.01637
vt 2.324659 29.01637
vt 0.1896075 47.52192
vt 3.283017 27.90144
vt -3.188556 27.90144
vt -0.09514166 47.52192
vt 3.490834 18.37163
vt 4.938046 7.260685
vt -4.521772 7.260685
vt -3.074562 18.37163
vt 0.3505079 47.56218
vt 3.443922 27.9417
vt -3.02765 27.9417
vt 0.06575879 47.56218
vt 3.424037 18.48152
vt 4.87125 7.370578
vt -4.588571 7.370578
vt -3.141361 18.48152
vt 2.418758 29.18049
vt 4.254165 16.88961
vt -4.348638 16.88961
vt -2.513229 29.18049
vt 4.482791 7.290277
vt -4.977027 7.290277
vt -3.529814 18.40122
vt 3.035582 18.40122
vt -0.0657585 47.66978
vt 3.027658 28.0493
vt -3.443915 28.0493
vt -0.3505077 47.66978
vt 3.529808 18.43093
vt 4.977018 7.319982
vt -4.482801 7.319982
vt -3.035589 18.43093
vt 7.809748 7.737724
vt 11.1019 -0.2102274
vt 8.439903 -0.2102273
vt 5.927433 5.855409
vt -0.1382047 11.02988
vt -0.1382042 8.36788
vt -6.203839 5.855407
vt -8.086154 7.737721
vt -8.71631 -0.2102278
vt -11.37831 -0.210228
vt 7.809748 -8.158176
vt 5.927433 -6.275862
vt -0.1382014 -11.45033
vt -0.1382017 -8.788333
vt -8.086153 -8.158178
vt -6.203838 -6.275863
vt 2.98867 27.97752
vt -3.482902 27.97752
vt -0.3894865 47.598
vt -0.1047373 47.598
vt 2.513224 29.00232
vt 4.34863 16.71143
vt -4.254171 16.71143
vt -2.418762 29.00232
vt 3.07457 18.46052
vt 4.521784 7.349574
vt -4.938037 7.349574
vt -3.490828 18.46052
vt 5.84075 5.768726
vt 8.317315 -0.210227
vt 6.305748 -0.2102269
vt 4.418357 4.346334
vt -0.1382045 8.245292
vt -0.1382041 6.233725
vt -4.694764 4.346332
vt -6.117157 5.768724
vt -6.582154 -0.2102273
vt -8.593721 -0.2102274
vt 5.840749 -6.189179
vt 4.418357 -4.766786
vt -0.138202 -8.665744
vt -0.1382022 -6.654177
vt -6.117155 -6.18918
vt -4.694763 -4.766787
vt 2.257863 29.14236
vt 4.093273 16.85147
vt -4.509528 16.85147
vt -2.674123 29.14236
vt 3.329929 18.33837
vt 4.777139 7.227424
vt -4.682682 7.227424
vt -3.235469 18.33837
vt 4.054282 16.78349
vt -4.548517 16.78349
vt -2.713108 29.07438
vt 2.218878 29.07438
vt 1.260609 4.406416
vt 1.650371 -0.708501
vt -1.744837 -0.7085012
vt -1.355074 4.406417
vt 1.024738 11.3941
vt 1.099709 4.941046
vt -1.515974 4.941046
vt -1.441002 11.3941
vt 1.515975 4.334956
vt 1.905738 -0.7799622
vt -1.489469 -0.7799622
vt -1.099707 4.334956
vt -1.554955 4.935757
vt -1.479984 11.38881
vt 0.9857559 11.38881
vt 1.060728 4.935757
vt 1.280102 11.3832
vt 1.355074 4.930151
vt -1.26061 4.930151
vt -1.185638 11.3832
vt 1.355074 4.315496
vt 1.744836 -0.7994213
vt -1.650373 -0.7994214
vt -1.26061 4.315496
vt 1.441003 11.38617
vt 1.515975 4.933117
vt -1.099708 4.933117
vt -1.024736 11.38617
vt 1.185637 11.39707
vt 1.260609 4.944013
vt -1.355073 4.944013
vt -1.280102 11.39707
vt 1.554953 4.369646
vt 1.944715 -0.7452719
vt -1.450492 -0.7452719
vt -1.06073 4.369646
vt 1.449178 4.399246
vt 1.838941 -0.7156715
vt -1.556267 -0.7156715
vt -1.166505 4.399246
vt 1.479981 11.39146
vt 1.554953 4.938406
vt -1.06073 4.938406
vt -0.985758 11.39146
vt 1.45049 -0.76265
vt -1.944718 -0.76265
vt -1.554955 4.352268
vt 1.060728 4.352268
vt 1.166506 4.931243
vt -1.449176 4.931243
vt -1.374205 11.3843
vt 1.091534 11.3843
vt 1.556268 -0.7922505
vt -1.838938 -0.7922505
vt -1.449176 4.322667
vt 1.166506 4.322667
vt 1.099709 4.386958
vt 1.489473 -0.7279602
vt -1.905736 -0.7279601
vt -1.515974 4.386958
vt -1.091533 11.39597
vt 1.374207 11.39597
vt 1.449178 4.942919
vt -1.166506 4.942919
vn -0.3632712 0.3144536 -0.8770136
vn -0.3632712 0.3144536 -0.8770136
vn -0.3632712 0.3144536 -0.8770136
vn -0.3632712 0.3144536 -0.8770136
vn -0.8543364 0.3806306 -0.353878
vn -0.8543364 0.3806306 -0.353878
vn -0.8543364 0.3806306 -0.353878
vn -0.8543364 0.3806306 -0.353878
vn -0.3569494 0.3605164 0.8617511
vn -0.3569494 0.3605164 0.8617511
vn -0.3569494 0.3605164 0.8617511
vn -0.3569494 0.3605164 0.8617511
vn -0.353878 0.3806306 -0.8543364
vn -0.353878 0.3806306 -0.8543364
vn -0.353878 0.3806306 -0.8543364
vn -0.353878 0.3806306 -0.8543364
vn -0.8617511 0.3605164 0.3569494
vn -0.8617511 0.3605164 0.3569494
vn -0.8617511 0.3605164 0.3569494
vn -0.8617511 0.3605164 0.3569494
vn 0 1 0
vn 0 1 0
vn 0 1 0
vn 0 1 0
vn 0 1 0
vn 0 1 0
vn 0 1 0
vn 0 1 0
vn 0 -1 0
vn 0 -1 0
vn 0 -1 0
vn 0 -1 0
vn 0 -1 0
vn 0 -1 0
vn 0 -1 0
vn 0 -1 0
vn 0 -1 0
vn 0 -1 0
vn 0 -1 0
vn 0 -1 0
vn 0 -1 0
vn 0 -1 0
vn 0 -1 0
vn 0 -1 0
vn 0.8770135 0.3144536 0.3632713
vn 0.8770135 0.3144536 0.3632713
vn 0.8770135 0.3144536 0.3632713
vn 0.8770135 0.3144536 0.3632713
vn 0.8543363 0.3806306 0.3538781
vn 0.8543363 0.3806306 0.3538781
vn 0.8543363 0.3806306 0.3538781
vn 0.8543363 0.3806306 0.3538781
vn -0.8543364 0.3806306 0.3538781
vn -0.8543364 0.3806306 0.3538781
vn -0.8543364 0.3806306 0.3538781
vn -0.8543364 0.3806306 0.3538781
vn -0.8617513 0.3605164 -0.3569493
vn -0.8617513 0.3605164 -0.3569493
vn -0.8617513 0.3605164 -0.3569493
vn -0.8617513 0.3605164 -0.3569493
vn 0.8617511 0.3605164 0.3569494
vn 0.8617511 0.3605164 0.3569494
vn 0.8617511 0.3605164 0.3569494
vn 0.8617511 0.3605164 0.3569494
vn 0.3538779 0.3806306 0.8543364
vn 0.3538779 0.3806306 0.8543364
vn 0.3538779 0.3806306 0.8543364
vn 0.3538779 0.3806306 0.8543364
vn -0.3632713 0.3144537 0.8770136
vn -0.3632713 0.3144537 0.8770136
vn -0.3632713 0.3144537 0.8770136
vn -0.3632713 0.3144537 0.8770136
vn -0.3538781 0.3806306 0.8543363
vn -0.3538781 0.3806306 0.8543363
vn -0.3538781 0.3806306 0.8543363
vn -0.3538781 0.3806306 0.8543363
vn -0.8770137 0.3144537 -0.3632711
vn -0.8770137 0.3144537 -0.3632711
vn -0.8770137 0.3144537 -0.3632711
vn -0.8770137 0.3144537 -0.3632711
vn -0.3569494 0.3605164 -0.8617513
vn -0.3569494 0.3605164 -0.8617513
vn -0.3569494 0.3605164 -0.8617513
vn -0.3569494 0.3605164 -0.8617513
vn 0.8770136 0.3144536 -0.3632712
vn 0.8770136 0.3144536 -0.3632712
vn 0.8770136 0.3144536 -0.3632712
vn 0.8770136 0.3144536 -0.3632712
vn 0.3538783 0.3806306 -0.8543363
vn 0.3538783 0.3806306 -0.8543363
vn 0.3538783 0.3806306 -0.8543363
vn 0.3538783 0.3806306 -0.8543363
vn -0.8770136 0.3144537 0.3632713
vn -0.8770136 0.3144537 0.3632713
vn -0.8770136 0.3144537 0.3632713
vn -0.8770136 0.3144537 0.3632713
vn 0 -1 0
vn 0 -1 0
vn 0 -1 0
vn 0 -1 0
vn 0 -1 0
vn 0 -1 0
vn 0 -1 0
vn 0 -1 0
vn 0 -1 0
vn 0 -1 0
vn 0 -1 0
vn 0 -1 0
vn 0 -1 0
vn 0 -1 0
vn 0 -1 0
vn 0 -1 0
vn 0.8543364 0.3806306 -0.353878
vn 0.8543364 0.3806306 -0.353878
vn 0.8543364 0.3806306 -0.353878
vn 0.8543364 0.3806306 -0.353878
vn 0.3569492 0.3605164 0.8617513
vn 0.3569492 0.3605164 0.8617513
vn 0.3569492 0.3605164 0.8617513
vn 0.3569492 0.3605164 0.8617513
vn 0.3632716 0.3144536 -0.8770135
vn 0.3632716 0.3144536 -0.8770135
vn 0.3632716 0.3144536 -0.8770135
vn 0.3632716 0.3144536 -0.8770135
vn 0 -1 0
vn 0 -1 0
vn 0 -1 0
vn 0 -1 0
vn 0 -1 0
vn 0 -1 0
vn 0 -1 0
vn 0 -1 0
vn 0 -1 0
vn 0 -1 0
vn 0 -1 0
vn 0 -1 0
vn 0 -1 0
vn 0 -1 0
vn 0 -1 0
vn 0 -1 0
vn 0.3569497 0.3605164 -0.8617511
vn 0.3569497 0.3605164 -0.8617511
vn 0.3569497 0.3605164 -0.8617511
vn 0.3569497 0.3605164 -0.8617511
vn 0.3632711 0.3144537 0.8770137
vn 0.3632711 0.3144537 0.8770137
vn 0.3632711 0.3144537 0.8770137
vn 0.3632711 0.3144537 0.8770137
vn 0.8617513 0.3605164 -0.3569494
vn 0.8617513 0.3605164 -0.3569494
vn 0.8617513 0.3605164 -0.3569494
vn 0.8617513 0.3605164 -0.3569494
vn -0.3805137 0.1063344 -0.9186415
vn -0.3761521 0.1839658 -0.9081114
vn -0.3761521 0.1839658 -0.9081114
vn -0.3805137 0.1063344 -0.9186415
vn 0.3825332 0.02804837 -0.9235159
vn 0.3805141 0.1063344 -0.9186414
vn 0.3805141 0.1063344 -0.9186414
vn 0.3825332 0.02804837 -0.9235159
vn -0.380514 0.1063344 0.9186414
vn -0.3761523 0.1839658 0.9081113
vn -0.3761523 0.1839658 0.9081113
vn -0.380514 0.1063344 0.9186414
vn 0.9186414 0.1063344 -0.3805139
vn 0.923516 0.02804845 -0.382533
vn 0.923516 0.02804845 -0.382533
vn 0.9186414 0.1063344 -0.3805139
vn 0.3825329 0.02804838 0.923516
vn 0.3805138 0.1063344 0.9186415
vn 0.3805138 0.1063344 0.9186415
vn 0.3825329 0.02804838 0.923516
vn 0.3805138 0.1063344 0.9186415
vn 0.3761521 0.1839657 0.9081113
vn 0.3761521 0.1839657 0.9081113
vn 0.3805138 0.1063344 0.9186415
vn -0.3825332 0.02804838 0.9235159
vn -0.380514 0.1063344 0.9186414
vn -0.380514 0.1063344 0.9186414
vn -0.3825332 0.02804838 0.9235159
vn -0.3825328 0.02804839 -0.9235161
vn -0.3805137 0.1063344 -0.9186415
vn -0.3805137 0.1063344 -0.9186415
vn -0.3825328 0.02804839 -0.9235161
vn -0.9186414 0.1063344 0.380514
vn -0.9081113 0.1839657 0.3761523
vn -0.9081113 0.1839657 0.3761523
vn -0.9186414 0.1063344 0.380514
vn -0.9186415 0.1063344 -0.3805139
vn -0.9081113 0.1839657 -0.3761522
vn -0.9081113 0.1839657 -0.3761522
vn -0.9186415 0.1063344 -0.3805139
vn -0.923516 0.02804841 0.3825331
vn -0.9186414 0.1063344 0.380514
vn -0.9186414 0.1063344 0.380514
vn -0.923516 0.02804841 0.3825331
vn 0.9081113 0.1839657 -0.3761522
vn 0.9081113 0.1839657 -0.3761522
vn 0.9186414 0.1063344 -0.3805139
vn 0.9186414 0.1063344 -0.3805139
vn 0.9186414 0.1063344 0.3805141
vn 0.9186414 0.1063344 0.3805141
vn 0.9235159 0.02804843 0.3825332
vn 0.9235159 0.02804843 0.3825332
vn 0.9081113 0.1839657 0.3761523
vn 0.9081113 0.1839657 0.3761523
vn 0.9186414 0.1063344 0.3805141
vn 0.9186414 0.1063344 0.3805141
vn 0.3805141 0.1063344 -0.9186414
vn 0.3761524 0.1839657 -0.9081112
vn 0.3761524 0.1839657 -0.9081112
vn 0.3805141 0.1063344 -0.9186414
vn -0.923516 0.02804845 -0.3825329
vn -0.923516 0.02804845 -0.3825329
vn -0.9186415 0.1063344 -0.3805139
vn -0.9186415 0.1063344 -0.3805139
g Tree_Conifer_01_0
f 3/3/3 2/2/2 1/1/1
f 1/1/1 4/4/4 3/3/3
f 7/7/7 6/6/6 5/5/5
f 5/5/5 8/8/8 7/7/7
f 11/11/11 10/10/10 9/9/9
f 9/9/9 12/12/12 11/11/11
f 15/15/15 14/14/14 13/13/13
f 13/13/13 16/16/16 15/15/15
f 19/19/19 18/18/18 17/17/17
f 17/17/17 20/20/20 19/19/19
f 23/23/23 22/22/22 21/21/21
f 21/21/21 24/24/24 23/23/23
f 21/21/21 25/25/25 24/24/24
f 25/25/25 26/26/26 24/24/24
f 26/26/26 27/27/27 24/24/24
f 26/26/26 28/28/28 27/27/27
f 31/31/31 30/30/30 29/29/29
f 29/29/29 32/32/32 31/31/31
f 32/32/32 33/33/33 31/31/31
f 32/32/32 34/34/34 33/33/33
f 32/32/32 35/35/35 34/34/34
f 32/32/32 36/36/36 35/35/35
f 32/32/32 37/37/37 36/36/36
f 37/37/37 38/38/38 36/36/36
f 37/37/37 39/39/39 38/38/38
f 37/37/37 40/40/40 39/39/39
f 41/41/41 31/31/31 33/33/33
f 33/33/33 42/42/42 41/41/41
f 42/42/42 43/43/43 41/41/41
f 43/43/43 39/39/39 41/41/41
f 43/43/43 44/44/44 39/39/39
f 44/44/44 38/38/38 39/39/39
f 47/47/47 46/46/46 45/45/45
f 45/45/45 48/48/48 47/47/47
f 51/51/51 50/50/50 49/49/49
f 49/49/49 52/52/52 51/51/51
f 55/55/55 54/54/54 53/53/53
f 53/53/53 56/56/56 55/55/55
f 59/59/59 58/58/58 57/57/57
f 57/57/57 60/60/60 59/59/59
f 63/63/63 62/62/62 61/61/61
f 61/61/61 64/64/64 63/63/63
f 67/67/67 66/66/66 65/65/65
f 65/65/65 68/68/68 67/67/67
f 71/71/71 70/70/70 69/69/69
f 69/69/69 72/72/72 71/71/71
f 75/75/75 74/74/74 73/73/73
f 73/73/73 76/76/76 75/75/75
f 79/79/79 78/78/78 77/77/77
f 77/77/77 80/80/80 79/79/79
f 83/83/83 82/82/82 81/81/81
f 81/81/81 84/84/84 83/83/83
f 87/87/87 86/86/86 85/85/85
f 85/85/85 88/88/88 87/87/87
f 91/91/91 90/90/90 89/89/89
f 89/89/89 92/92/92 91/91/91
f 95/95/95 94/94/94 93/93/93
f 93/93/93 96/96/96 95/95/95
f 99/99/99 98/98/98 97/97/97
f 97/97/97 100/100/100 99/99/99
f 97/97/97 101/101/101 100/100/100
f 101/101/101 102/102/102 100/100/100
f 101/101/101 103/103/103 102/102/102
f 101/101/101 104/104/104 103/103/103
f 104/104/104 105/105/105 103/103/103
f 104/104/104 106/106/106 105/105/105
f 107/107/107 98/98/98 99/99/99
f 99/99/99 108/108/108 107/107/107
f 108/108/108 109/109/109 107/107/107
f 108/108/108 110/110/110 109/109/109
f 110/110/110 111/111/111 109/109/109
f 105/105/105 106/106/106 111/111/111
f 110/110/110 112/112/112 111/111/111
f 112/112/112 105/105/105 111/111/111
f 115/115/115 114/114/114 113/113/113
f 113/113/113 116/116/116 115/115/115
f 119/119/119 118/118/118 117/117/117
f 117/117/117 120/120/120 119/119/119
f 123/123/123 122/122/122 121/121/121
f 121/121/121 124/124/124 123/123/123
f 127/127/127 126/126/126 125/125/125
f 125/125/125 128/128/128 127/127/127
f 125/125/125 129/129/129 128/128/128
f 129/129/129 130/130/130 128/128/128
f 129/129/129 131/131/131 130/130/130
f 129/129/129 132/132/132 131/131/131
f 132/132/132 133/133/133 131/131/131
f 132/132/132 134/134/134 133/133/133
f 135/135/135 126/126/126 127/127/127
f 127/127/127 136/136/136 135/135/135
f 136/136/136 137/137/137 135/135/135
f 136/136/136 138/138/138 137/137/137
f 138/138/138 139/139/139 137/137/137
f 133/133/133 134/134/134 139/139/139
f 138/138/138 140/140/140 139/139/139
f 140/140/140 133/133/133 139/139/139
f 143/143/143 142/142/142 141/141/141
f 141/141/141 144/144/144 143/143/143
f 147/147/147 146/146/146 145/145/145
f 145/145/145 148/148/148 147/147/147
f 151/151/151 150/150/150 149/149/149
f 149/149/149 152/152/152 151/151/151
g Tree_Conifer_01_1
f 155/155/155 154/154/154 153/153/153
f 153/153/153 156/156/156 155/155/155
f 159/159/159 158/158/158 157/157/157
f 157/157/157 160/160/160 159/159/159
f 163/163/163 162/162/162 161/161/161
f 161/161/161 164/164/164 163/163/163
f 167/167/167 166/166/166 165/165/165
f 165/165/165 168/168/168 167/167/167
f 171/171/171 170/170/170 169/169/169
f 169/169/169 172/172/172 171/171/171
f 175/175/175 174/174/174 173/173/173
f 173/173/173 176/176/176 175/175/175
f 179/179/179 178/178/178 177/177/177
f 177/177/177 180/180/180 179/179/179
f 183/183/183 182/182/182 181/181/181
f 181/181/181 184/184/184 183/183/183
f 187/187/187 186/186/186 185/185/185
f 185/185/185 188/188/188 187/187/187
f 191/191/191 190/190/190 189/189/189
f 189/189/189 192/192/192 191/191/191
f 195/195/195 194/194/194 193/193/193
f 193/193/193 196/196/196 195/195/195
f 199/199/199 198/198/198 197/197/197
f 197/197/197 200/200/200 199/199/199
f 203/203/203 202/202/202 201/201/201
f 201/201/201 204/204/204 203/203/203
f 207/207/207 206/206/206 205/205/205
f 205/205/205 208/208/208 207/207/207
f 211/211/211 210/210/210 209/209/209
f 209/209/209 212/212/212 211/211/211
f 215/215/215 214/214/214 213/213/213
f 213/213/213 216/216/216 215/215/215
