g Waterfall_Angled_Medium_01
v 17.57998 -0.197358 0.9906
v 17.48886 -54.20382 0.8870888
v 13.95707 -54.05048 0.4033298
v 20.83057 -0.08458212 0.4245435
v 25.1503 -0.2152456 1.080383
v 20.09095 -54.14669 0.3750248
v 9.999823 -0.2119673 1.063929
v 13.95707 -54.05048 0.4033298
v 12.06131 -54.13857 0.9135339
v 12.48615 -0.1104775 0.5545202
v 17.57998 -0.197358 0.9906
v 13.95707 -54.05048 0.4033298
v 12.48615 -0.1104775 0.5545202
v 13.95707 -54.05048 0.4033298
v 9.999823 -0.2119673 1.063929
v 9.999823 -0.2119673 1.063929
v 12.06131 -54.13857 0.9135339
v 7.922751 -54.05281 0.4745722
v 4.801914 -0.1176686 0.5906148
v 7.922751 -54.05281 0.4745722
v 0.4334162 -0.2103953 1.056038
v 20.83057 -0.08458212 0.4245435
v 17.48886 -54.20382 0.8870888
v 17.57998 -0.197358 0.9906
v 25.1503 -0.2152456 1.080383
v 22.9713 -54.27945 0.9480832
v 20.09095 -54.14669 0.3750248
v 4.801914 -0.1176686 0.5906148
v 9.999823 -0.2119673 1.063929
v 7.922751 -54.05281 0.4745722
v 0.4334162 -0.2103953 1.056038
v 7.922751 -54.05281 0.4745722
v 4.592418 -54.12683 0.9403768
v 20.83057 -0.08458212 0.4245435
v 20.09095 -54.14669 0.3750248
v 17.48886 -54.20382 0.8870888
v 0 0 0
v 25.4 0 0
v 4.801914 -0.1176686 0.5906148
v 0.4334162 -0.2103953 1.056038
v 12.48615 -0.1104775 0.5545202
v 9.999823 -0.2119673 1.063929
v 20.83057 -0.08458212 0.4245435
v 17.57998 -0.197358 0.9906
v 25.1503 -0.2152456 1.080383
vt 27.20516 -0.3095429
vt 27.04346 -84.01984
vt 21.51805 -83.78217
vt 32.02056 -0.1262889
vt 38.79288 -0.3288178
vt 30.87561 -83.92278
vt 14.54044 -0.3691395
vt 20.72974 -83.82118
vt 17.68675 -83.95773
vt 19.35628 -0.1753151
vt 27.28061 -0.309982
vt 21.60788 -83.78358
vt 18.78771 -0.184112
vt 21.06832 -83.7916
vt 14.85385 -0.3414221
vt 15.58724 -0.3285228
vt 18.74006 -83.91687
vt 12.2893 -83.78394
vt 7.304255 -0.1891539
vt 12.13342 -83.78946
vt 0.4947474 -0.3328818
vt 31.6954 -0.1176223
vt 26.46956 -84.00281
vt 26.58115 -0.2924257
vt 38.56192 -0.3011457
vt 35.20927 -84.10207
vt 30.65721 -83.89629
vt 7.495364 -0.180638
vt 15.58547 -0.3268053
vt 12.29635 -83.78257
vt 0.4389062 -0.3407495
vt 12.06047 -83.79971
vt 6.848194 -83.91445
vt 31.55227 -0.1067292
vt 30.44227 -83.90369
vt 26.33168 -83.99224
vt 0 0
vt 39.37008 6.142554E-13
vt 7.442982 -0.9334465
vt 0.6717965 -1.669033
vt 19.35357 -0.8764002
vt 15.49976 -1.681503
vt 32.28745 -0.6709764
vt 27.24902 -1.565609
vt 38.98304 -1.707509
vn -0.1357766 -0.001669825 0.9907381
vn -0.1357766 -0.001669825 0.9907381
vn -0.1357766 -0.001669825 0.9907381
vn -0.1500702 0.001147514 0.9886747
vn -0.1500702 0.001147514 0.9886747
vn -0.1500702 0.001147514 0.9886747
vn 0.2595618 0.00722924 0.9656994
vn 0.2595618 0.00722924 0.9656994
vn 0.2595618 0.00722924 0.9656994
vn -0.08538295 -0.005121031 0.996335
vn -0.08538295 -0.005121031 0.996335
vn -0.08538295 -0.005121031 0.996335
vn 0.2006073 0.002724556 0.979668
vn 0.2006073 0.002724556 0.979668
vn 0.2006073 0.002724556 0.979668
vn -0.1056117 -0.006810511 0.9943842
vn -0.1056117 -0.006810511 0.9943842
vn -0.1056117 -0.006810511 0.9943842
vn 0.1058568 0.003985753 0.9943734
vn 0.1058568 0.003985753 0.9943734
vn 0.1058568 0.003985753 0.9943734
vn 0.1716307 -0.002177756 0.985159
vn 0.1716307 -0.002177756 0.985159
vn 0.1716307 -0.002177756 0.985159
vn -0.1948851 0.005454488 0.9808109
vn -0.1948851 0.005454488 0.9808109
vn -0.1948851 0.005454488 0.9808109
vn -0.09081394 -0.007397318 0.9958404
vn -0.09081394 -0.007397318 0.9958404
vn -0.09081394 -0.007397318 0.9958404
vn 0.1383276 0.008545798 0.9903497
vn 0.1383276 0.008545798 0.9903497
vn 0.1383276 0.008545798 0.9903497
vn 0.1931602 -0.003541312 0.9811608
vn 0.1931602 -0.003541312 0.9811608
vn 0.1931602 -0.003541312 0.9811608
vn 0 0.9807255 0.1953907
vn 0 0.9807255 0.1953907
vn 0 0.9807255 0.1953907
vn 0 0.9807255 0.1953907
vn 0 0.9807255 0.1953907
vn 0 0.9807255 0.1953907
vn 0 0.9807255 0.1953907
vn 0 0.9807255 0.1953907
vn 0 0.9807255 0.1953907
g Waterfall_Angled_Medium_01_0
f 3/3/3 2/2/2 1/1/1
f 6/6/6 5/5/5 4/4/4
f 9/9/9 8/8/8 7/7/7
f 12/12/12 11/11/11 10/10/10
f 15/15/15 14/14/14 13/13/13
f 18/18/18 17/17/17 16/16/16
f 21/21/21 20/20/20 19/19/19
f 24/24/24 23/23/23 22/22/22
f 27/27/27 26/26/26 25/25/25
f 30/30/30 29/29/29 28/28/28
f 33/33/33 32/32/32 31/31/31
f 36/36/36 35/35/35 34/34/34
f 39/39/39 38/38/38 37/37/37
f 37/37/37 40/40/40 39/39/39
f 39/39/39 41/41/41 38/38/38
f 39/39/39 42/42/42 41/41/41
f 41/41/41 43/43/43 38/38/38
f 41/41/41 44/44/44 43/43/43
f 43/43/43 45/45/45 38/38/38
